<svg width="245" height="245" viewBox="0 0 245 245" fill="none" xmlns="http://www.w3.org/2000/svg">
<g id="64% rond" clip-path="url(#clip0_57_92)">
<path id="Vector" d="M244.945 124.344C245.949 56.7187 191.941 1.08465 124.317 0.0813447C56.6918 -0.921963 1.05769 53.0854 0.0543811 120.71C-0.948927 188.335 53.0585 243.969 120.683 244.972C188.308 245.976 243.942 191.968 244.945 124.344Z" fill="url(#paint0_linear_57_92)"/>
<path id="Vector_2" d="M122.5 12.0122C110.939 12.0122 99.1725 13.8571 87.5703 17.7108C29.6821 37.0206 -1.55788 99.5825 17.7109 157.43C36.9796 215.318 99.5415 246.599 157.43 227.289C173.747 221.878 187.932 213.022 199.452 201.789C203.801 197.193 214.1 185.2 220.5 174" stroke="white" stroke-width="5" stroke-linecap="round" stroke-linejoin="round"/>
<path id="Vector_3" d="M229.611 169.806C229.611 173.577 226.577 176.611 222.806 176.611C219.034 176.611 216 173.577 216 169.806C216 166.034 219.034 163 222.806 163C226.577 163 229.611 166.034 229.611 169.806Z" fill="white"/>
<path id="64 %" d="M85.925 148.675C83.225 148.675 81.025 148.2 79.325 147.25C77.625 146.3 76.375 144.95 75.575 143.2C74.825 141.45 74.45 139.425 74.45 137.125V114.25C74.45 110.75 75.5 108.075 77.6 106.225C79.75 104.375 82.575 103.45 86.075 103.45C89.575 103.45 92.275 104.3 94.175 106C96.125 107.7 97.1 110.35 97.1 113.95V116.8H92.45V113.35C92.45 111 91.9 109.3 90.8 108.25C89.7 107.15 88.125 106.6 86.075 106.6C83.975 106.6 82.3 107.275 81.05 108.625C79.85 109.925 79.25 111.575 79.25 113.575V124.6C80.15 123.3 81.325 122.3 82.775 121.6C84.275 120.85 85.925 120.475 87.725 120.475C90.475 120.475 92.8 121.325 94.7 123.025C96.6 124.675 97.55 126.975 97.55 129.925V137.575C97.55 139.675 97.125 141.575 96.275 143.275C95.475 144.975 94.225 146.3 92.525 147.25C90.875 148.2 88.675 148.675 85.925 148.675ZM86 145.675C88 145.675 89.625 145.075 90.875 143.875C92.175 142.625 92.825 140.725 92.825 138.175V130.525C92.825 128.225 92.15 126.525 90.8 125.425C89.5 124.325 87.875 123.75 85.925 123.7C84.075 123.7 82.5 124.25 81.2 125.35C79.95 126.45 79.3 127.975 79.25 129.925V138.175C79.25 140.625 79.85 142.475 81.05 143.725C82.25 144.975 83.9 145.625 86 145.675ZM117.533 148V139.075H102.008V135.325L118.058 103.675H122.258V135.775H126.683V139.075H122.258V148H117.533ZM106.058 135.775H117.533V112.975L106.058 135.775ZM152.241 100.804C155.461 100.804 157.991 102.161 159.831 104.875C161.671 107.681 162.591 111.315 162.591 115.777C162.591 120.331 161.694 123.873 159.9 126.403C158.06 128.841 155.53 130.06 152.31 130.06C148.906 130.06 146.307 128.772 144.513 126.196C142.811 123.712 141.96 120.262 141.96 115.846C141.96 111.338 142.834 107.773 144.582 105.151C146.33 102.253 148.883 100.804 152.241 100.804ZM182.739 101.563L155.346 148H150.378L177.702 101.563H182.739ZM152.241 104.461C150.309 104.461 148.86 105.266 147.894 106.876C146.744 108.762 146.169 111.752 146.169 115.846C146.169 118.836 146.491 121.159 147.135 122.815C148.101 125.207 149.803 126.403 152.241 126.403C154.541 126.403 156.22 125.276 157.278 123.022C158.06 121.228 158.451 118.836 158.451 115.846C158.451 111.66 157.784 108.601 156.45 106.669C155.438 105.197 154.035 104.461 152.241 104.461ZM180.186 119.365C183.406 119.365 185.936 120.722 187.776 123.436C189.616 126.242 190.536 129.876 190.536 134.338C190.536 138.846 189.639 142.388 187.845 144.964C186.005 147.402 183.475 148.621 180.255 148.621C176.851 148.621 174.252 147.333 172.458 144.757C170.756 142.273 169.905 138.823 169.905 134.407C169.905 129.853 170.779 126.265 172.527 123.643C174.275 120.791 176.828 119.365 180.186 119.365ZM180.186 123.022C178.254 123.022 176.805 123.827 175.839 125.437C174.689 127.323 174.114 130.313 174.114 134.407C174.114 137.397 174.459 139.72 175.149 141.376C176.069 143.768 177.748 144.964 180.186 144.964C182.486 144.964 184.165 143.837 185.223 141.583C186.005 139.789 186.396 137.397 186.396 134.407C186.396 130.221 185.729 127.162 184.395 125.23C183.383 123.758 181.98 123.022 180.186 123.022Z" fill="#13375B"/>
<path id="64 %_2" d="M83.925 146.675C81.225 146.675 79.025 146.2 77.325 145.25C75.625 144.3 74.375 142.95 73.575 141.2C72.825 139.45 72.45 137.425 72.45 135.125V112.25C72.45 108.75 73.5 106.075 75.6 104.225C77.75 102.375 80.575 101.45 84.075 101.45C87.575 101.45 90.275 102.3 92.175 104C94.125 105.7 95.1 108.35 95.1 111.95V114.8H90.45V111.35C90.45 109 89.9 107.3 88.8 106.25C87.7 105.15 86.125 104.6 84.075 104.6C81.975 104.6 80.3 105.275 79.05 106.625C77.85 107.925 77.25 109.575 77.25 111.575V122.6C78.15 121.3 79.325 120.3 80.775 119.6C82.275 118.85 83.925 118.475 85.725 118.475C88.475 118.475 90.8 119.325 92.7 121.025C94.6 122.675 95.55 124.975 95.55 127.925V135.575C95.55 137.675 95.125 139.575 94.275 141.275C93.475 142.975 92.225 144.3 90.525 145.25C88.875 146.2 86.675 146.675 83.925 146.675ZM84 143.675C86 143.675 87.625 143.075 88.875 141.875C90.175 140.625 90.825 138.725 90.825 136.175V128.525C90.825 126.225 90.15 124.525 88.8 123.425C87.5 122.325 85.875 121.75 83.925 121.7C82.075 121.7 80.5 122.25 79.2 123.35C77.95 124.45 77.3 125.975 77.25 127.925V136.175C77.25 138.625 77.85 140.475 79.05 141.725C80.25 142.975 81.9 143.625 84 143.675ZM115.533 146V137.075H100.008V133.325L116.058 101.675H120.258V133.775H124.683V137.075H120.258V146H115.533ZM104.058 133.775H115.533V110.975L104.058 133.775ZM150.241 98.804C153.461 98.804 155.991 100.161 157.831 102.875C159.671 105.681 160.591 109.315 160.591 113.777C160.591 118.331 159.694 121.873 157.9 124.403C156.06 126.841 153.53 128.06 150.31 128.06C146.906 128.06 144.307 126.772 142.513 124.196C140.811 121.712 139.96 118.262 139.96 113.846C139.96 109.338 140.834 105.773 142.582 103.151C144.33 100.253 146.883 98.804 150.241 98.804ZM180.739 99.563L153.346 146H148.378L175.702 99.563H180.739ZM150.241 102.461C148.309 102.461 146.86 103.266 145.894 104.876C144.744 106.762 144.169 109.752 144.169 113.846C144.169 116.836 144.491 119.159 145.135 120.815C146.101 123.207 147.803 124.403 150.241 124.403C152.541 124.403 154.22 123.276 155.278 121.022C156.06 119.228 156.451 116.836 156.451 113.846C156.451 109.66 155.784 106.601 154.45 104.669C153.438 103.197 152.035 102.461 150.241 102.461ZM178.186 117.365C181.406 117.365 183.936 118.722 185.776 121.436C187.616 124.242 188.536 127.876 188.536 132.338C188.536 136.846 187.639 140.388 185.845 142.964C184.005 145.402 181.475 146.621 178.255 146.621C174.851 146.621 172.252 145.333 170.458 142.757C168.756 140.273 167.905 136.823 167.905 132.407C167.905 127.853 168.779 124.265 170.527 121.643C172.275 118.791 174.828 117.365 178.186 117.365ZM178.186 121.022C176.254 121.022 174.805 121.827 173.839 123.437C172.689 125.323 172.114 128.313 172.114 132.407C172.114 135.397 172.459 137.72 173.149 139.376C174.069 141.768 175.748 142.964 178.186 142.964C180.486 142.964 182.165 141.837 183.223 139.583C184.005 137.789 184.396 135.397 184.396 132.407C184.396 128.221 183.729 125.162 182.395 123.23C181.383 121.758 179.98 121.022 178.186 121.022Z" fill="white"/>
</g>
<defs>
<linearGradient id="paint0_linear_57_92" x1="9" y1="66.5" x2="236.5" y2="185" gradientUnits="userSpaceOnUse">
<stop offset="0.0833333" stop-color="#CDA7D7"/>
<stop offset="1" stop-color="#407BFF"/>
</linearGradient>
<clipPath id="clip0_57_92">
<rect width="245" height="245" fill="white"/>
</clipPath>
</defs>
</svg>
