<svg width="1280" height="683" viewBox="0 0 1280 683" fill="none" xmlns="http://www.w3.org/2000/svg">
<g id="d&#195;&#169;coration">
<g id="Arc en ciel">
<path id="Ellipse 23" d="M1394 483.424C1394 389.854 1311.62 314 1210 314C1108.38 314 1026 389.854 1026 483.424" stroke="#C15635" stroke-width="35"/>
<path id="Ellipse 26" d="M382 625.965C382 493.455 286.413 386.035 168.5 386.035C50.5872 386.035 -45 493.455 -45 625.965" stroke="#CD8FA5" stroke-width="35"/>
<path id="Ellipse 27" d="M361 658.587C361 526.077 273.024 418.657 164.5 418.657C55.976 418.657 -32 526.077 -32 658.587" stroke="#E8CEC5" stroke-width="35"/>
<path id="Ellipse 28" d="M337 687C337 554.49 257.531 447.07 159.5 447.07C61.4695 447.07 -18 554.49 -18 687" stroke="#D5E8E2" stroke-width="35"/>
<path id="Ellipse 24" d="M1407 495C1407 410.147 1325.07 341.36 1224 341.36C1122.93 341.36 1041 410.147 1041 495" stroke="#D5E8E2" stroke-width="35"/>
<path id="Ellipse 25" d="M1415 527.622C1415 441.026 1333.96 370.826 1234 370.826C1134.04 370.826 1053 441.026 1053 527.622" stroke="#CD8FA5" stroke-width="35"/>
</g>
<g id="Nuages">
<path id="Vector" d="M501.271 50.7458C499.9 50.7458 498.617 51.0375 497.479 51.5625C498.092 49.6958 498.412 47.6833 498.412 45.5833C498.412 34.9375 489.779 26.3333 479.162 26.3333C475.167 26.3333 471.492 27.5292 468.4 29.6292C465.542 26.1875 461.225 24 456.412 24C450.025 24 444.542 27.85 442.121 33.3333C439.904 32.0792 437.337 31.35 434.625 31.35C426.196 31.35 419.371 38.175 419.371 46.6042C419.371 47.45 419.429 48.2667 419.575 49.0833C418.117 48.3542 416.512 47.9459 414.762 47.9459C408.813 47.9459 404 52.7583 404 58.7083C404 64.6583 408.813 69.4708 414.762 69.4708C416.6 69.4708 418.321 69.0042 419.808 68.2167C421.675 76.4708 429.054 82.6542 437.862 82.6542C441.975 82.6542 445.767 81.3125 448.829 79.0667C452.096 84.0833 457.754 87.4083 464.171 87.4083C473.067 87.4083 480.475 81.05 482.137 72.65C483.771 74.1083 485.9 75.0125 488.262 75.0125C492.521 75.0125 496.108 72.0958 497.129 68.1292C498.354 68.7417 499.754 69.0917 501.212 69.0917C506.258 69.0917 510.371 64.9792 510.371 59.9334C510.371 54.8875 506.258 50.775 501.212 50.775L501.271 50.7458Z" fill="#FFDED2"/>
<path id="Vector_2" d="M1255.27 243.725C1253.34 243.725 1251.56 244.367 1250.13 245.475C1248.73 238.067 1242.23 232.467 1234.41 232.467C1234.3 232.467 1234.21 232.467 1234.09 232.467C1232.17 220.304 1221.61 211 1208.92 211C1196.23 211 1185.94 220.071 1183.81 232.029C1180.86 228.646 1176.55 226.517 1171.7 226.517C1162.87 226.517 1155.69 233.692 1155.69 242.529C1155.69 242.646 1155.69 242.763 1155.69 242.879C1154.76 242.646 1153.77 242.529 1152.77 242.529C1145.72 242.529 1140 248.246 1140 255.304C1140 262.363 1145.72 268.079 1152.77 268.079C1155.46 268.079 1157.97 267.233 1160.01 265.833C1161.73 273.271 1168.38 278.842 1176.37 278.842C1181.56 278.842 1186.2 276.479 1189.29 272.775C1192.33 277.179 1197.4 280.096 1203.15 280.096C1210.09 280.096 1216.04 275.896 1218.6 269.888C1220.56 271.142 1222.89 271.842 1225.37 271.842C1229.95 271.842 1233.98 269.392 1236.19 265.746C1237.65 269.363 1241.21 271.929 1245.35 271.929C1250.8 271.929 1255.24 267.496 1255.24 262.042C1255.24 261.546 1255.21 261.05 1255.12 260.554C1255.15 260.554 1255.18 260.554 1255.24 260.554C1259.88 260.554 1263.67 256.792 1263.67 252.125C1263.67 247.458 1259.9 243.696 1255.24 243.696L1255.27 243.725Z" fill="#FFDED2"/>
<path id="Vector_3" d="M427.257 277.222C430.214 272.018 431.989 265.869 431.989 259.483C431.989 239.734 416.018 223.769 396.262 223.769C392.713 223.769 389.282 224.242 386.088 225.306C386.561 222.113 386.798 218.92 386.798 215.609C386.798 187.818 370.827 163.694 347.64 151.986C350.834 145.127 352.609 137.322 352.609 129.281C352.609 99.3612 328.357 75 298.309 75C276.423 75 257.613 87.8902 248.977 106.575C241.524 99.1247 231.114 94.3944 219.639 94.3944C200.71 94.3944 184.74 107.166 179.771 124.55C174.684 123.604 169.361 123.013 163.919 123.013C118.373 123.013 81.4629 159.909 81.4629 205.439C81.4629 211.47 82.1727 217.383 83.3557 223.059C81.108 222.586 78.742 222.35 76.376 222.35C56.2648 222.35 39.9392 238.669 39.9392 258.773C39.9392 263.504 40.8856 267.998 42.4236 272.137C41.5954 272.137 40.7673 272.018 39.9392 272.018C28.3457 272.018 19 281.361 19 292.95C19 304.539 28.3457 314 39.9392 314H413.061C424.654 314 434 304.658 434 292.95C434 286.801 431.279 281.242 427.02 277.34L427.257 277.222Z" fill="#FFDED2"/>
<path id="Vector_4" d="M246.426 126.816C248.234 123.888 249.357 120.4 249.357 116.662C249.357 106.073 240.751 97.5387 230.212 97.5387C225.223 97.5387 220.734 99.4075 217.304 102.522C212.564 94.7979 203.959 89.6277 194.231 89.6277C188.805 89.6277 183.754 91.2473 179.514 93.9881C177.019 70.9401 157.438 53 133.679 53C117.154 53 102.624 61.7209 94.4552 74.8022C90.8384 72.9957 86.7226 71.999 82.3574 71.999C67.3911 71.999 55.2933 84.146 55.2933 99.0338C55.2933 103.581 56.4158 107.879 58.4113 111.617C57.4136 111.554 56.3534 111.492 55.2933 111.492C35.2759 111.492 19 127.75 19 147.746C19 167.742 35.2759 184 55.2933 184H240.003C256.029 184 269 171.043 269 155.034C269 141.268 259.334 129.744 246.426 126.816V126.816Z" fill="white"/>
<path id="Vector_5" d="M1244.18 516.5C1240.44 516.5 1236.99 517.482 1233.93 519.349C1231.76 502.353 1217.27 489.188 1199.62 489.188C1196.67 489.188 1193.91 489.581 1191.15 490.269C1189.08 480.444 1180.4 473.076 1169.95 473.076C1165.22 473.076 1160.88 474.55 1157.33 477.104C1151.71 457.75 1133.87 443.603 1112.67 443.603C1109.42 443.603 1106.27 443.897 1103.21 444.585C1091.97 417.765 1065.45 399 1034.5 399C993.387 399 960.066 432.206 960.066 473.174C960.066 479.265 960.756 485.16 962.136 490.76C956.024 486.928 948.827 484.669 941.138 484.669C919.548 484.669 902 502.156 902 523.672C902 545.187 919.548 562.674 941.138 562.674C944.194 562.674 947.151 562.281 949.912 561.692C949.222 563.067 948.827 564.541 948.532 566.113C947.349 574.267 953.066 581.93 961.249 583.109C965.488 583.699 969.629 582.52 972.783 579.965C978.698 593.818 991.416 604.33 1007.48 606.688C1019.12 608.358 1030.45 605.41 1039.43 599.123C1040.61 615.824 1053.33 630.168 1070.68 632.624C1088.52 635.178 1105.28 624.47 1110.7 607.965C1118.29 613.859 1127.46 617.986 1137.71 619.459C1169.16 623.979 1198.34 602.267 1202.98 570.927C1202.98 570.436 1203.08 569.944 1203.17 569.453C1206.23 573.776 1210.96 576.92 1216.58 577.706C1227.43 579.278 1237.58 571.811 1239.16 560.906C1239.45 559.039 1239.45 557.271 1239.16 555.503C1240.73 555.896 1242.31 556.092 1244.09 556.092C1255.03 556.092 1264 547.25 1264 536.247C1264 525.243 1255.13 516.401 1244.09 516.401L1244.18 516.5Z" fill="white"/>
<path id="Vector_6" d="M1174.59 104.178C1173.68 104.178 1172.78 104.178 1171.88 104.26C1171.88 104.014 1171.88 103.685 1171.88 103.438C1171.88 76.5509 1151.92 54.2681 1125.97 50.8146C1125.97 50.6502 1125.97 50.4857 1125.97 50.3213C1125.97 44.2367 1121.04 39.3032 1114.96 39.3032C1113.48 39.3032 1112.01 39.6321 1110.69 40.1255C1098.45 16.2804 1073.65 0 1045.07 0C1011.23 0 982.733 22.7761 974.028 53.8569C971.317 53.0347 968.525 52.5413 965.568 52.5413C949.717 52.5413 936.905 65.3683 936.905 81.2376C936.905 86.0889 938.137 90.6112 940.19 94.6402C919.001 95.1336 902 112.483 902 133.779C902 155.075 919.494 173 941.176 173H1174.59C1193.56 173 1209 157.624 1209 138.548C1209 119.472 1193.64 104.096 1174.59 104.096V104.178Z" fill="#FFDED2"/>
<path id="Vector_7" d="M280.298 582.852C280.298 582.852 279.995 582.852 279.793 582.852C280.096 580.933 280.298 578.913 280.298 576.893C280.298 557.2 264.336 541.243 244.635 541.243C235.745 541.243 227.562 544.475 221.298 549.928C216.348 513.874 185.332 486 147.851 486C117.745 486 91.7808 503.977 80.1626 529.831C67.9383 531.043 56.9264 536.597 48.8442 544.98C41.9743 538.92 32.9829 535.183 23.0822 535.183C1.66438 535.183 -15.6113 552.554 -15.6113 573.864C-15.6113 579.115 -14.601 584.165 -12.6815 588.709C-13.6918 588.609 -14.601 588.508 -15.6113 588.508C-31.2705 588.508 -44 601.233 -44 616.886C-44 632.54 -31.2705 645.265 -15.6113 645.265C-13.1866 645.265 -10.863 644.962 -8.74142 644.457C-6.8219 663.848 9.54454 678.896 29.3459 678.896C40.9641 678.896 51.3699 673.644 58.4418 665.464C64.6045 673.543 74.3031 678.795 85.214 678.795C86.7294 678.795 88.2449 678.694 89.7603 678.492C94.4076 702.124 115.32 720 140.375 720C167.652 720 189.979 698.892 191.798 672.129C197.051 674.351 202.911 675.563 208.973 675.563C233.724 675.563 253.728 655.567 253.728 630.823C253.728 628.905 253.627 627.087 253.324 625.269C258.072 635.368 268.377 642.337 280.298 642.337C296.765 642.337 310 629.006 310 612.645C310 596.284 296.664 582.953 280.298 582.953V582.852Z" fill="#FFDED2"/>
<path id="Vector_8" d="M1334.94 649.061C1341.7 643.516 1346 635.067 1346 625.65C1346 609.015 1332.48 595.461 1315.9 595.461C1314.58 595.461 1313.35 595.549 1312.12 595.725C1312.82 592.733 1313.26 589.564 1313.26 586.308C1313.26 564.568 1295.71 546.966 1274.03 546.966C1267.53 546.966 1261.48 548.55 1256.04 551.366C1243.4 526.811 1217.86 510 1188.46 510C1155.45 510 1127.37 531.123 1116.84 560.608C1108.41 553.391 1097.44 548.99 1085.5 548.99C1058.82 548.99 1037.14 570.729 1037.14 597.485C1037.14 599.598 1037.32 601.622 1037.58 603.646C1035.91 603.382 1034.25 603.206 1032.58 603.206C1016.25 603.206 1003 616.496 1003 632.867C1003 649.237 1016.25 662.527 1032.58 662.527C1036 662.527 1039.34 661.911 1042.5 660.855C1044.87 675.201 1057.33 686.203 1072.34 686.203C1080.24 686.203 1087.35 683.21 1092.79 678.282C1099.37 699.053 1118.85 714.191 1141.76 714.191C1156.07 714.191 1168.97 708.294 1178.27 698.877C1183.45 708.03 1193.28 714.191 1204.6 714.191C1213.64 714.191 1221.81 710.231 1227.34 703.894C1236.73 713.751 1249.89 720 1264.64 720C1292.11 720 1314.58 698.349 1315.98 671.153C1318.7 675.113 1323.27 677.754 1328.45 677.754C1336.78 677.754 1343.45 670.977 1343.45 662.615C1343.45 656.63 1340.03 651.526 1335.03 649.061H1334.94Z" fill="#FFDED2"/>
<path id="Vector_9" d="M405.861 623.348C402.555 623.348 399.389 623.911 396.505 624.966C396.505 624.122 396.645 623.278 396.645 622.363C396.645 603.508 381.38 588.242 362.527 588.242C352.256 588.242 342.97 592.815 336.779 600.061C327.705 585.638 311.595 576 293.304 576C271.145 576 252.221 590.071 245.046 609.77C241.036 608.222 236.675 607.378 232.102 607.378C212.405 607.378 196.436 623.348 196.436 643.047C196.436 644.384 196.506 645.721 196.647 646.987C196.576 646.987 196.506 646.987 196.436 646.987C181.311 646.987 169 659.229 169 674.425C169 689.621 181.241 701.863 196.436 701.863C203.611 701.863 210.083 699.119 214.937 694.687C214.937 695.039 214.937 695.39 214.937 695.742C214.937 717.411 232.454 734.929 254.121 734.929C268.19 734.929 280.572 727.472 287.466 716.356C297.103 735.703 317.152 749 340.226 749C372.797 749 399.178 722.617 399.178 690.044C399.178 685.963 398.756 682.023 397.982 678.224C400.514 678.998 403.188 679.42 406.002 679.42C421.478 679.42 434 666.897 434 651.419C434 635.941 421.478 623.418 406.002 623.418L405.861 623.348Z" fill="white"/>
<path id="Vector_10" d="M1006.71 184.618C1007.72 182.131 1008.26 179.434 1008.26 176.568C1008.26 164.6 998.6 154.949 986.711 154.949C984.863 154.949 983.056 155.202 981.334 155.623C982.132 153.01 982.552 150.229 982.552 147.363C982.552 131.685 969.865 119 954.28 119C941.719 119 931.049 127.218 927.352 138.639C924.033 135.225 919.412 133.076 914.287 133.076C904.247 133.076 896.139 141.21 896.139 151.282C896.139 152.715 896.307 154.106 896.643 155.454C883.746 157.941 874 169.278 874 182.974C874 198.441 886.519 211 901.936 211H1003.68C1011.03 211 1017 205.016 1017 197.64C1017 191.319 1012.63 186.051 1006.79 184.66L1006.71 184.618Z" fill="white"/>
</g>
<g id="Stars">
<g id="Iconsax/Linear/star1" clip-path="url(#clip0_115_12)">
<path id="Vector_11" d="M628.859 61.0617L634.776 68.5083C635.587 69.5474 637.335 70.3398 638.657 70.2835L646.465 69.9469C651.458 69.7342 653.331 72.9947 650.582 77.1798L645.954 84.2804C645.17 85.4829 645.03 87.5129 645.626 88.8197L648.835 95.7255C651.371 101.193 648.789 104.058 643.072 102.127L635.119 99.4315C633.682 98.9439 631.578 99.3875 630.437 100.418L624.248 106.094C619.821 110.164 616.273 108.565 616.391 102.564L616.54 94.9501C616.559 93.5137 615.611 91.713 614.409 90.9291L607.308 86.3007C603.128 83.5758 603.502 79.8418 608.156 78.0211L615.435 75.1779C616.644 74.7009 617.923 73.2705 618.246 71.9922L620.654 62.7912C621.972 57.7961 625.661 57.0186 628.859 61.0617V61.0617Z" stroke="#F99893" stroke-width="4" stroke-linecap="round" stroke-linejoin="round"/>
</g>
<g id="Iconsax/Linear/star1_2" clip-path="url(#clip1_115_12)">
<path id="Vector_12" d="M933.045 497.418L929.523 506.253C929.024 507.473 929.205 509.384 929.91 510.503L934.082 517.111C936.748 521.339 934.849 524.584 929.851 524.279L921.389 523.79C919.956 523.707 918.125 524.594 917.287 525.761L912.889 531.977C909.404 536.894 905.634 536.077 904.47 530.156L902.857 521.915C902.567 520.427 901.136 518.821 899.674 518.343L891.674 515.792C885.942 513.972 885.567 510.099 890.834 507.22L897.515 503.566C898.771 502.868 899.863 501.151 899.945 499.718L900.434 491.256C900.721 486.275 904.148 484.744 908.041 487.878L914.125 492.783C915.139 493.594 917.016 493.994 918.286 493.639L927.467 491.157C932.457 489.819 934.965 492.634 933.045 497.418V497.418Z" stroke="#F99893" stroke-width="4" stroke-linecap="round" stroke-linejoin="round"/>
</g>
<g id="Iconsax/Linear/star1_3" clip-path="url(#clip2_115_12)">
<path id="Vector_13" d="M80.857 322.988L73.0876 328.474C72.0042 329.225 71.1142 330.926 71.0956 332.248L70.9899 340.063C70.9198 345.06 67.5585 346.745 63.5356 343.764L56.7083 338.742C55.5521 337.891 53.5332 337.636 52.1948 338.158L45.1185 340.971C39.5167 343.193 36.8016 340.453 39.0536 334.854L42.1945 327.067C42.7626 325.66 42.4388 323.534 41.4742 322.336L36.1577 315.837C32.3449 311.186 34.1416 307.735 40.127 308.192L47.72 308.772C49.153 308.871 51.0045 308.027 51.8551 306.871L56.8779 300.043C59.8348 296.024 63.5417 296.609 65.0962 301.359L67.523 308.787C67.9308 310.021 69.2866 311.379 70.5446 311.774L79.5946 314.698C84.5071 316.297 85.0746 320.024 80.857 322.988V322.988Z" stroke="#F99893" stroke-width="4" stroke-linecap="round" stroke-linejoin="round"/>
</g>
<g id="Iconsax/Linear/star1_4" clip-path="url(#clip3_115_12)">
<path id="Vector_14" d="M1092.78 237.074L1087.67 245.095C1086.96 246.201 1086.78 248.112 1087.26 249.343L1090.13 256.614C1091.96 261.265 1089.48 264.099 1084.63 262.865L1076.41 260.806C1075.02 260.457 1073.05 260.987 1072.01 261.977L1066.53 267.262C1062.19 271.442 1058.64 269.936 1058.6 263.901L1058.55 255.505C1058.55 253.988 1057.44 252.143 1056.09 251.4L1048.71 247.401C1043.42 244.543 1043.77 240.668 1049.48 238.822L1056.73 236.48C1058.09 236.029 1059.49 234.546 1059.84 233.154L1061.9 224.932C1063.11 220.092 1066.76 219.227 1070 223.033L1075.06 228.987C1075.91 229.974 1077.68 230.717 1078.99 230.606L1088.47 229.881C1093.62 229.498 1095.56 232.732 1092.78 237.074V237.074Z" stroke="#F99893" stroke-width="4" stroke-linecap="round" stroke-linejoin="round"/>
</g>
<g id="Iconsax/Linear/star1_5" clip-path="url(#clip4_115_12)">
<path id="Vector_15" d="M520.407 618.856L516.938 624.301C516.451 625.052 516.33 626.348 516.658 627.184L518.603 632.119C519.844 635.276 518.167 637.199 514.873 636.362L509.293 634.964C508.347 634.728 507.014 635.087 506.307 635.759L502.587 639.347C499.64 642.184 497.23 641.161 497.204 637.066L497.173 631.366C497.167 630.337 496.417 629.084 495.503 628.58L490.491 625.866C486.9 623.926 487.14 621.296 491.017 620.043L495.935 618.453C496.861 618.147 497.807 617.14 498.044 616.195L499.442 610.615C500.265 607.33 502.743 606.743 504.942 609.326L508.378 613.368C508.951 614.037 510.152 614.542 511.044 614.466L517.48 613.974C520.977 613.714 522.293 615.909 520.407 618.856V618.856Z" stroke="#F99893" stroke-width="4" stroke-linecap="round" stroke-linejoin="round"/>
</g>
</g>
</g>
<defs>
<clipPath id="clip0_115_12">
<rect width="58" height="58" fill="white" transform="translate(594.643 59.6045) rotate(-11.9019)"/>
</clipPath>
<clipPath id="clip1_115_12">
<rect width="58" height="58" fill="white" transform="translate(917.308 467) rotate(48.3044)"/>
</clipPath>
<clipPath id="clip2_115_12">
<rect width="58" height="58" fill="white" transform="translate(84.2477 288.909) rotate(81.3417)"/>
</clipPath>
<clipPath id="clip3_115_12">
<rect width="58" height="58" fill="white" transform="translate(1083 204.252) rotate(59.0641)"/>
</clipPath>
<clipPath id="clip4_115_12">
<rect width="39.3676" height="39.3676" fill="white" transform="translate(513.767 596.579) rotate(59.0641)"/>
</clipPath>
</defs>
</svg>
