<svg width="245" height="245" viewBox="0 0 245 245" fill="none" xmlns="http://www.w3.org/2000/svg">
<g clip-path="url(#clip0_45_2)">
<path d="M244.945 124.344C245.949 56.7187 191.941 1.08465 124.317 0.0813447C56.6918 -0.921963 1.05769 53.0854 0.0543811 120.71C-0.948927 188.335 53.0585 243.969 120.683 244.972C188.308 245.976 243.942 191.968 244.945 124.344Z" fill="url(#paint0_linear_45_2)"/>
<path d="M199.452 201.789C187.932 213.022 173.747 221.878 157.43 227.289C99.5415 246.599 36.9796 215.318 17.7109 157.43C-1.55788 99.5825 29.6821 37.0206 87.5703 17.7108C99.1725 13.8571 110.939 12.0122 122.5 12.0122" stroke="white" stroke-width="5" stroke-linecap="round" stroke-linejoin="round"/>
<path d="M206.258 201.994C206.258 205.766 203.224 208.799 199.452 208.799C195.68 208.799 192.646 205.766 192.646 201.994C192.646 198.222 195.68 195.188 199.452 195.188C203.224 195.188 206.258 198.222 206.258 201.994Z" fill="white"/>
<path d="M85.925 148.675C83.225 148.675 81.025 148.2 79.325 147.25C77.625 146.3 76.375 144.95 75.575 143.2C74.825 141.45 74.45 139.425 74.45 137.125V114.25C74.45 110.75 75.5 108.075 77.6 106.225C79.75 104.375 82.575 103.45 86.075 103.45C89.575 103.45 92.275 104.3 94.175 106C96.125 107.7 97.1 110.35 97.1 113.95V116.8H92.45V113.35C92.45 111 91.9 109.3 90.8 108.25C89.7 107.15 88.125 106.6 86.075 106.6C83.975 106.6 82.3 107.275 81.05 108.625C79.85 109.925 79.25 111.575 79.25 113.575V124.6C80.15 123.3 81.325 122.3 82.775 121.6C84.275 120.85 85.925 120.475 87.725 120.475C90.475 120.475 92.8 121.325 94.7 123.025C96.6 124.675 97.55 126.975 97.55 129.925V137.575C97.55 139.675 97.125 141.575 96.275 143.275C95.475 144.975 94.225 146.3 92.525 147.25C90.875 148.2 88.675 148.675 85.925 148.675ZM86 145.675C88 145.675 89.625 145.075 90.875 143.875C92.175 142.625 92.825 140.725 92.825 138.175V130.525C92.825 128.225 92.15 126.525 90.8 125.425C89.5 124.325 87.875 123.75 85.925 123.7C84.075 123.7 82.5 124.25 81.2 125.35C79.95 126.45 79.3 127.975 79.25 129.925V138.175C79.25 140.625 79.85 142.475 81.05 143.725C82.25 144.975 83.9 145.625 86 145.675ZM115.808 148.9C113.708 148.9 111.783 148.425 110.033 147.475C108.283 146.525 106.883 145.05 105.833 143.05C104.833 141 104.333 138.375 104.333 135.175V116.05C104.333 111.6 105.458 108.325 107.708 106.225C109.958 104.125 112.708 103.075 115.958 103.075C119.208 103.075 121.908 104.15 124.058 106.3C126.258 108.4 127.358 111.65 127.358 116.05V135.175C127.358 138.425 126.858 141.075 125.858 143.125C124.858 145.125 123.483 146.6 121.733 147.55C119.983 148.45 118.008 148.9 115.808 148.9ZM115.883 145.975C117.833 145.975 119.433 145.2 120.683 143.65C121.983 142.1 122.633 139.9 122.633 137.05V115C122.633 112.15 121.983 109.95 120.683 108.4C119.383 106.85 117.783 106.075 115.883 106.075C113.933 106.075 112.308 106.85 111.008 108.4C109.708 109.95 109.058 112.15 109.058 115V137.05C109.058 139.9 109.708 142.1 111.008 143.65C112.308 145.2 113.933 145.975 115.883 145.975ZM155.097 100.804C158.317 100.804 160.847 102.161 162.687 104.875C164.527 107.681 165.447 111.315 165.447 115.777C165.447 120.331 164.55 123.873 162.756 126.403C160.916 128.841 158.386 130.06 155.166 130.06C151.762 130.06 149.163 128.772 147.369 126.196C145.667 123.712 144.816 120.262 144.816 115.846C144.816 111.338 145.69 107.773 147.438 105.151C149.186 102.253 151.739 100.804 155.097 100.804ZM185.595 101.563L158.202 148H153.234L180.558 101.563H185.595ZM155.097 104.461C153.165 104.461 151.716 105.266 150.75 106.876C149.6 108.762 149.025 111.752 149.025 115.846C149.025 118.836 149.347 121.159 149.991 122.815C150.957 125.207 152.659 126.403 155.097 126.403C157.397 126.403 159.076 125.276 160.134 123.022C160.916 121.228 161.307 118.836 161.307 115.846C161.307 111.66 160.64 108.601 159.306 106.669C158.294 105.197 156.891 104.461 155.097 104.461ZM183.042 119.365C186.262 119.365 188.792 120.722 190.632 123.436C192.472 126.242 193.392 129.876 193.392 134.338C193.392 138.846 192.495 142.388 190.701 144.964C188.861 147.402 186.331 148.621 183.111 148.621C179.707 148.621 177.108 147.333 175.314 144.757C173.612 142.273 172.761 138.823 172.761 134.407C172.761 129.853 173.635 126.265 175.383 123.643C177.131 120.791 179.684 119.365 183.042 119.365ZM183.042 123.022C181.11 123.022 179.661 123.827 178.695 125.437C177.545 127.323 176.97 130.313 176.97 134.407C176.97 137.397 177.315 139.72 178.005 141.376C178.925 143.768 180.604 144.964 183.042 144.964C185.342 144.964 187.021 143.837 188.079 141.583C188.861 139.789 189.252 137.397 189.252 134.407C189.252 130.221 188.585 127.162 187.251 125.23C186.239 123.758 184.836 123.022 183.042 123.022Z" fill="#13375B"/>
<path d="M83.925 146.675C81.225 146.675 79.025 146.2 77.325 145.25C75.625 144.3 74.375 142.95 73.575 141.2C72.825 139.45 72.45 137.425 72.45 135.125V112.25C72.45 108.75 73.5 106.075 75.6 104.225C77.75 102.375 80.575 101.45 84.075 101.45C87.575 101.45 90.275 102.3 92.175 104C94.125 105.7 95.1 108.35 95.1 111.95V114.8H90.45V111.35C90.45 109 89.9 107.3 88.8 106.25C87.7 105.15 86.125 104.6 84.075 104.6C81.975 104.6 80.3 105.275 79.05 106.625C77.85 107.925 77.25 109.575 77.25 111.575V122.6C78.15 121.3 79.325 120.3 80.775 119.6C82.275 118.85 83.925 118.475 85.725 118.475C88.475 118.475 90.8 119.325 92.7 121.025C94.6 122.675 95.55 124.975 95.55 127.925V135.575C95.55 137.675 95.125 139.575 94.275 141.275C93.475 142.975 92.225 144.3 90.525 145.25C88.875 146.2 86.675 146.675 83.925 146.675ZM84 143.675C86 143.675 87.625 143.075 88.875 141.875C90.175 140.625 90.825 138.725 90.825 136.175V128.525C90.825 126.225 90.15 124.525 88.8 123.425C87.5 122.325 85.875 121.75 83.925 121.7C82.075 121.7 80.5 122.25 79.2 123.35C77.95 124.45 77.3 125.975 77.25 127.925V136.175C77.25 138.625 77.85 140.475 79.05 141.725C80.25 142.975 81.9 143.625 84 143.675ZM113.808 146.9C111.708 146.9 109.783 146.425 108.033 145.475C106.283 144.525 104.883 143.05 103.833 141.05C102.833 139 102.333 136.375 102.333 133.175V114.05C102.333 109.6 103.458 106.325 105.708 104.225C107.958 102.125 110.708 101.075 113.958 101.075C117.208 101.075 119.908 102.15 122.058 104.3C124.258 106.4 125.358 109.65 125.358 114.05V133.175C125.358 136.425 124.858 139.075 123.858 141.125C122.858 143.125 121.483 144.6 119.733 145.55C117.983 146.45 116.008 146.9 113.808 146.9ZM113.883 143.975C115.833 143.975 117.433 143.2 118.683 141.65C119.983 140.1 120.633 137.9 120.633 135.05V113C120.633 110.15 119.983 107.95 118.683 106.4C117.383 104.85 115.783 104.075 113.883 104.075C111.933 104.075 110.308 104.85 109.008 106.4C107.708 107.95 107.058 110.15 107.058 113V135.05C107.058 137.9 107.708 140.1 109.008 141.65C110.308 143.2 111.933 143.975 113.883 143.975ZM153.097 98.804C156.317 98.804 158.847 100.161 160.687 102.875C162.527 105.681 163.447 109.315 163.447 113.777C163.447 118.331 162.55 121.873 160.756 124.403C158.916 126.841 156.386 128.06 153.166 128.06C149.762 128.06 147.163 126.772 145.369 124.196C143.667 121.712 142.816 118.262 142.816 113.846C142.816 109.338 143.69 105.773 145.438 103.151C147.186 100.253 149.739 98.804 153.097 98.804ZM183.595 99.563L156.202 146H151.234L178.558 99.563H183.595ZM153.097 102.461C151.165 102.461 149.716 103.266 148.75 104.876C147.6 106.762 147.025 109.752 147.025 113.846C147.025 116.836 147.347 119.159 147.991 120.815C148.957 123.207 150.659 124.403 153.097 124.403C155.397 124.403 157.076 123.276 158.134 121.022C158.916 119.228 159.307 116.836 159.307 113.846C159.307 109.66 158.64 106.601 157.306 104.669C156.294 103.197 154.891 102.461 153.097 102.461ZM181.042 117.365C184.262 117.365 186.792 118.722 188.632 121.436C190.472 124.242 191.392 127.876 191.392 132.338C191.392 136.846 190.495 140.388 188.701 142.964C186.861 145.402 184.331 146.621 181.111 146.621C177.707 146.621 175.108 145.333 173.314 142.757C171.612 140.273 170.761 136.823 170.761 132.407C170.761 127.853 171.635 124.265 173.383 121.643C175.131 118.791 177.684 117.365 181.042 117.365ZM181.042 121.022C179.11 121.022 177.661 121.827 176.695 123.437C175.545 125.323 174.97 128.313 174.97 132.407C174.97 135.397 175.315 137.72 176.005 139.376C176.925 141.768 178.604 142.964 181.042 142.964C183.342 142.964 185.021 141.837 186.079 139.583C186.861 137.789 187.252 135.397 187.252 132.407C187.252 128.221 186.585 125.162 185.251 123.23C184.239 121.758 182.836 121.022 181.042 121.022Z" fill="white"/>
</g>
<defs>
<linearGradient id="paint0_linear_45_2" x1="9" y1="66.5" x2="236.5" y2="185" gradientUnits="userSpaceOnUse">
<stop offset="0.0833333" stop-color="#CDA7D7"/>
<stop offset="1" stop-color="#407BFF"/>
</linearGradient>
<clipPath id="clip0_45_2">
<rect width="245" height="245" fill="white"/>
</clipPath>
</defs>
</svg>
