<svg width="1280" height="380" viewBox="0 0 1280 380" fill="none" xmlns="http://www.w3.org/2000/svg">
<g id="Arc en ciel">
<path id="Ellipse 23" d="M1382 187.424C1382 93.8539 1299.62 18 1198 18C1096.38 18 1014 93.8539 1014 187.424" stroke="#C15635" stroke-width="35"/>
<path id="Ellipse 26" d="M370 318.965C370 186.455 274.413 79.0347 156.5 79.0347C38.5872 79.0347 -57 186.455 -57 318.965" stroke="#CD8FA5" stroke-width="35"/>
<path id="Ellipse 27" d="M349 351.587C349 219.077 261.024 111.657 152.5 111.657C43.976 111.657 -44 219.077 -44 351.587" stroke="#E8CEC5" stroke-width="35"/>
<path id="Ellipse 28" d="M325 380C325 247.49 245.531 140.07 147.5 140.07C49.4695 140.07 -30 247.49 -30 380" stroke="#D5E8E2" stroke-width="35"/>
<path id="Ellipse 24" d="M1395 199C1395 114.147 1313.07 45.3604 1212 45.3604C1110.93 45.3604 1029 114.147 1029 199" stroke="#D5E8E2" stroke-width="35"/>
<path id="Ellipse 25" d="M1403 231.622C1403 145.026 1321.96 74.8257 1222 74.8257C1122.04 74.8257 1041 145.026 1041 231.622" stroke="#CD8FA5" stroke-width="35"/>
</g>
</svg>
