<svg width="1280" height="362" viewBox="0 0 1280 362" fill="none" xmlns="http://www.w3.org/2000/svg">
<g id="Arc en ciel">
<path id="Ellipse 23" d="M1382 179C1382 90.0822 1299.62 18 1198 18C1096.38 18 1014 90.0822 1014 179" stroke="#C15635" stroke-width="35"/>
<path id="Ellipse 26" d="M370 304C370 178.079 274.413 76 156.5 76C38.5872 76 -57 178.079 -57 304" stroke="#CD8FA5" stroke-width="35"/>
<path id="Ellipse 27" d="M349 335C349 209.079 261.024 107 152.5 107C43.976 107 -44 209.079 -44 335" stroke="#E8CEC5" stroke-width="35"/>
<path id="Ellipse 28" d="M325 362C325 236.079 245.531 134 147.5 134C49.4695 134 -30 236.079 -30 362" stroke="#D5E8E2" stroke-width="35"/>
<path id="Ellipse 24" d="M1395 190C1395 109.366 1313.07 44 1212 44C1110.93 44 1029 109.366 1029 190" stroke="#D5E8E2" stroke-width="35"/>
<path id="Ellipse 25" d="M1403 221C1403 138.71 1321.96 72 1222 72C1122.04 72 1041 138.71 1041 221" stroke="#CD8FA5" stroke-width="35"/>
</g>
</svg>
