<svg width="608" height="412" viewBox="0 0 608 412" fill="none" xmlns="http://www.w3.org/2000/svg">
<g id="augmentation">
<path id="Vector" d="M60 66H461" stroke="#D9D9D9" stroke-width="0.5" stroke-linecap="round" stroke-linejoin="round"/>
<path id="Vector_2" d="M60 19H461" stroke="#D9D9D9" stroke-width="0.5" stroke-linecap="round" stroke-linejoin="round"/>
<path id="Vector_3" d="M60 115H461" stroke="#D9D9D9" stroke-width="0.5" stroke-linecap="round" stroke-linejoin="round"/>
<path id="Vector_4" d="M60 164H461" stroke="#D9D9D9" stroke-width="0.5" stroke-linecap="round" stroke-linejoin="round"/>
<path id="Vector_5" d="M60 213H461" stroke="#D9D9D9" stroke-width="0.5" stroke-linecap="round" stroke-linejoin="round"/>
<path id="Vector_6" d="M60 262H461" stroke="#D9D9D9" stroke-width="0.5" stroke-linecap="round" stroke-linejoin="round"/>
<path id="Vector_7" d="M60 311H461" stroke="#D9D9D9" stroke-width="0.5" stroke-linecap="round" stroke-linejoin="round"/>
<path id="Vector_8" d="M60 360H461" stroke="#D9D9D9" stroke-width="0.5" stroke-linecap="round" stroke-linejoin="round"/>
<path id="1993" d="M47.22 403V388.944H44.56V387.936L45.96 387.908C46.4267 387.889 46.7627 387.777 46.968 387.572C47.192 387.367 47.3693 386.993 47.5 386.452H48.984V403H47.22ZM56.2139 403.252C54.8886 403.252 53.8619 402.935 53.1339 402.3C52.4246 401.665 52.0699 400.676 52.0699 399.332V398.1H53.8339V399.556C53.8339 400.433 54.0392 401.077 54.4499 401.488C54.8792 401.88 55.4579 402.076 56.1859 402.076C56.9886 402.076 57.6139 401.833 58.0619 401.348C58.5286 400.844 58.7619 400.219 58.7619 399.472V395.244C58.4259 395.748 57.9779 396.14 57.4179 396.42C56.8766 396.681 56.2699 396.812 55.5979 396.812C54.9072 396.812 54.2819 396.663 53.7219 396.364C53.1619 396.065 52.7139 395.627 52.3779 395.048C52.0606 394.469 51.9019 393.751 51.9019 392.892V390.512C51.9019 389.709 52.0512 389 52.3499 388.384C52.6672 387.749 53.1432 387.255 53.7779 386.9C54.4312 386.545 55.2619 386.368 56.2699 386.368C57.2779 386.368 58.0899 386.545 58.7059 386.9C59.3406 387.255 59.7979 387.759 60.0779 388.412C60.3766 389.047 60.5259 389.803 60.5259 390.68V399.22C60.5259 400.527 60.1339 401.525 59.3499 402.216C58.5659 402.907 57.5206 403.252 56.2139 403.252ZM56.2419 395.636C56.9512 395.636 57.5392 395.421 58.0059 394.992C58.4912 394.563 58.7432 393.993 58.7619 393.284V390.288C58.7619 389.373 58.5379 388.683 58.0899 388.216C57.6419 387.749 57.0259 387.507 56.2419 387.488C55.4952 387.488 54.8792 387.721 54.3939 388.188C53.9086 388.636 53.6659 389.336 53.6659 390.288V393.06C53.6659 393.9 53.9179 394.535 54.4219 394.964C54.9259 395.375 55.5326 395.599 56.2419 395.636ZM67.3155 403.252C65.9901 403.252 64.9635 402.935 64.2355 402.3C63.5261 401.665 63.1715 400.676 63.1715 399.332V398.1H64.9355V399.556C64.9355 400.433 65.1408 401.077 65.5515 401.488C65.9808 401.88 66.5595 402.076 67.2875 402.076C68.0901 402.076 68.7155 401.833 69.1635 401.348C69.6301 400.844 69.8635 400.219 69.8635 399.472V395.244C69.5275 395.748 69.0795 396.14 68.5195 396.42C67.9781 396.681 67.3715 396.812 66.6995 396.812C66.0088 396.812 65.3835 396.663 64.8235 396.364C64.2635 396.065 63.8155 395.627 63.4795 395.048C63.1621 394.469 63.0035 393.751 63.0035 392.892V390.512C63.0035 389.709 63.1528 389 63.4515 388.384C63.7688 387.749 64.2448 387.255 64.8795 386.9C65.5328 386.545 66.3635 386.368 67.3715 386.368C68.3795 386.368 69.1915 386.545 69.8075 386.9C70.4421 387.255 70.8995 387.759 71.1795 388.412C71.4781 389.047 71.6275 389.803 71.6275 390.68V399.22C71.6275 400.527 71.2355 401.525 70.4515 402.216C69.6675 402.907 68.6221 403.252 67.3155 403.252ZM67.3435 395.636C68.0528 395.636 68.6408 395.421 69.1075 394.992C69.5928 394.563 69.8448 393.993 69.8635 393.284V390.288C69.8635 389.373 69.6395 388.683 69.1915 388.216C68.7435 387.749 68.1275 387.507 67.3435 387.488C66.5968 387.488 65.9808 387.721 65.4955 388.188C65.0101 388.636 64.7675 389.336 64.7675 390.288V393.06C64.7675 393.9 65.0195 394.535 65.5235 394.964C66.0275 395.375 66.6341 395.599 67.3435 395.636ZM78.305 403.196C77.2784 403.196 76.4477 403.028 75.813 402.692C75.1784 402.337 74.7117 401.852 74.413 401.236C74.1144 400.601 73.965 399.892 73.965 399.108V397.428H75.785V398.856C75.785 399.808 75.9904 400.555 76.401 401.096C76.8304 401.619 77.465 401.889 78.305 401.908C79.0704 401.908 79.677 401.656 80.125 401.152C80.5917 400.648 80.825 399.967 80.825 399.108V397.568C80.825 396.728 80.5544 396.093 80.013 395.664C79.4904 395.235 78.7624 395.001 77.829 394.964H76.205V393.844H77.857C78.2864 393.844 78.697 393.769 79.089 393.62C79.481 393.452 79.7984 393.219 80.041 392.92C80.2837 392.677 80.4517 392.416 80.545 392.136C80.6384 391.837 80.685 391.52 80.685 391.184V390.204C80.685 389.495 80.4984 388.897 80.125 388.412C79.7517 387.908 79.145 387.656 78.305 387.656C77.4464 387.656 76.8304 387.917 76.457 388.44C76.0837 388.963 75.897 389.635 75.897 390.456V391.436H74.077V390.204C74.077 388.991 74.413 388.048 75.085 387.376C75.7757 386.704 76.849 386.368 78.305 386.368C79.817 386.368 80.8997 386.695 81.553 387.348C82.225 387.983 82.561 388.897 82.561 390.092V390.932C82.561 391.903 82.3184 392.687 81.833 393.284C81.3477 393.863 80.713 394.255 79.929 394.46C80.825 394.609 81.5064 395.001 81.973 395.636C82.4397 396.252 82.673 397.036 82.673 397.988V399.108C82.673 399.929 82.533 400.648 82.253 401.264C81.973 401.88 81.5157 402.356 80.881 402.692C80.2464 403.028 79.3877 403.196 78.305 403.196Z" fill="white"/>
<path id="0 %" d="M11.572 368.336C10.788 368.336 10.0693 368.159 9.416 367.804C8.76267 367.449 8.24 366.899 7.848 366.152C7.47467 365.387 7.288 364.407 7.288 363.212V356.072C7.288 354.411 7.708 353.188 8.548 352.404C9.388 351.62 10.4147 351.228 11.628 351.228C12.8413 351.228 13.8493 351.629 14.652 352.432C15.4733 353.216 15.884 354.429 15.884 356.072V363.212C15.884 364.425 15.6973 365.415 15.324 366.18C14.9507 366.927 14.4373 367.477 13.784 367.832C13.1307 368.168 12.3933 368.336 11.572 368.336ZM11.6 367.244C12.328 367.244 12.9253 366.955 13.392 366.376C13.8773 365.797 14.12 364.976 14.12 363.912V355.68C14.12 354.616 13.8773 353.795 13.392 353.216C12.9067 352.637 12.3093 352.348 11.6 352.348C10.872 352.348 10.2653 352.637 9.78 353.216C9.29467 353.795 9.052 354.616 9.052 355.68V363.912C9.052 364.976 9.29467 365.797 9.78 366.376C10.2653 366.955 10.872 367.244 11.6 367.244ZM26.5266 350.9C27.6932 350.9 28.6099 351.392 29.2766 352.375C29.9432 353.392 30.2766 354.708 30.2766 356.325C30.2766 357.975 29.9516 359.258 29.3016 360.175C28.6349 361.058 27.7182 361.5 26.5516 361.5C25.3182 361.5 24.3766 361.033 23.7266 360.1C23.1099 359.2 22.8016 357.95 22.8016 356.35C22.8016 354.717 23.1182 353.425 23.7516 352.475C24.3849 351.425 25.3099 350.9 26.5266 350.9ZM37.5766 351.175L27.6516 368H25.8516L35.7516 351.175H37.5766ZM26.5266 352.225C25.8266 352.225 25.3016 352.517 24.9516 353.1C24.5349 353.783 24.3266 354.867 24.3266 356.35C24.3266 357.433 24.4432 358.275 24.6766 358.875C25.0266 359.742 25.6432 360.175 26.5266 360.175C27.3599 360.175 27.9682 359.767 28.3516 358.95C28.6349 358.3 28.7766 357.433 28.7766 356.35C28.7766 354.833 28.5349 353.725 28.0516 353.025C27.6849 352.492 27.1766 352.225 26.5266 352.225ZM36.6516 357.625C37.8182 357.625 38.7349 358.117 39.4016 359.1C40.0682 360.117 40.4016 361.433 40.4016 363.05C40.4016 364.683 40.0766 365.967 39.4266 366.9C38.7599 367.783 37.8432 368.225 36.6766 368.225C35.4432 368.225 34.5016 367.758 33.8516 366.825C33.2349 365.925 32.9266 364.675 32.9266 363.075C32.9266 361.425 33.2432 360.125 33.8766 359.175C34.5099 358.142 35.4349 357.625 36.6516 357.625ZM36.6516 358.95C35.9516 358.95 35.4266 359.242 35.0766 359.825C34.6599 360.508 34.4516 361.592 34.4516 363.075C34.4516 364.158 34.5766 365 34.8266 365.6C35.1599 366.467 35.7682 366.9 36.6516 366.9C37.4849 366.9 38.0932 366.492 38.4766 365.675C38.7599 365.025 38.9016 364.158 38.9016 363.075C38.9016 361.558 38.6599 360.45 38.1766 359.75C37.8099 359.217 37.3016 358.95 36.6516 358.95Z" fill="white"/>
<path id="10 %" d="M6.22 319V304.944H3.56V303.936L4.96 303.908C5.42667 303.889 5.76267 303.777 5.968 303.572C6.192 303.367 6.36933 302.993 6.5 302.452H7.984V319H6.22ZM15.3259 319.336C14.5419 319.336 13.8232 319.159 13.1699 318.804C12.5166 318.449 11.9939 317.899 11.6019 317.152C11.2286 316.387 11.0419 315.407 11.0419 314.212V307.072C11.0419 305.411 11.4619 304.188 12.3019 303.404C13.1419 302.62 14.1686 302.228 15.3819 302.228C16.5952 302.228 17.6032 302.629 18.4059 303.432C19.2272 304.216 19.6379 305.429 19.6379 307.072V314.212C19.6379 315.425 19.4512 316.415 19.0779 317.18C18.7046 317.927 18.1912 318.477 17.5379 318.832C16.8846 319.168 16.1472 319.336 15.3259 319.336ZM15.3539 318.244C16.0819 318.244 16.6792 317.955 17.1459 317.376C17.6312 316.797 17.8739 315.976 17.8739 314.912V306.68C17.8739 305.616 17.6312 304.795 17.1459 304.216C16.6606 303.637 16.0632 303.348 15.3539 303.348C14.6259 303.348 14.0192 303.637 13.5339 304.216C13.0486 304.795 12.8059 305.616 12.8059 306.68V314.912C12.8059 315.976 13.0486 316.797 13.5339 317.376C14.0192 317.955 14.6259 318.244 15.3539 318.244ZM30.2805 301.9C31.4471 301.9 32.3638 302.392 33.0305 303.375C33.6971 304.392 34.0305 305.708 34.0305 307.325C34.0305 308.975 33.7055 310.258 33.0555 311.175C32.3888 312.058 31.4721 312.5 30.3055 312.5C29.0721 312.5 28.1305 312.033 27.4805 311.1C26.8638 310.2 26.5555 308.95 26.5555 307.35C26.5555 305.717 26.8721 304.425 27.5055 303.475C28.1388 302.425 29.0638 301.9 30.2805 301.9ZM41.3305 302.175L31.4055 319H29.6055L39.5055 302.175H41.3305ZM30.2805 303.225C29.5805 303.225 29.0555 303.517 28.7055 304.1C28.2888 304.783 28.0805 305.867 28.0805 307.35C28.0805 308.433 28.1971 309.275 28.4305 309.875C28.7805 310.742 29.3971 311.175 30.2805 311.175C31.1138 311.175 31.7221 310.767 32.1055 309.95C32.3888 309.3 32.5305 308.433 32.5305 307.35C32.5305 305.833 32.2888 304.725 31.8055 304.025C31.4388 303.492 30.9305 303.225 30.2805 303.225ZM40.4055 308.625C41.5721 308.625 42.4888 309.117 43.1555 310.1C43.8221 311.117 44.1555 312.433 44.1555 314.05C44.1555 315.683 43.8305 316.967 43.1805 317.9C42.5138 318.783 41.5971 319.225 40.4305 319.225C39.1971 319.225 38.2555 318.758 37.6055 317.825C36.9888 316.925 36.6805 315.675 36.6805 314.075C36.6805 312.425 36.9971 311.125 37.6305 310.175C38.2638 309.142 39.1888 308.625 40.4055 308.625ZM40.4055 309.95C39.7055 309.95 39.1805 310.242 38.8305 310.825C38.4138 311.508 38.2055 312.592 38.2055 314.075C38.2055 315.158 38.3305 316 38.5805 316.6C38.9138 317.467 39.5221 317.9 40.4055 317.9C41.2388 317.9 41.8471 317.492 42.2305 316.675C42.5138 316.025 42.6555 315.158 42.6555 314.075C42.6555 312.558 42.4138 311.45 41.9305 310.75C41.5638 310.217 41.0555 309.95 40.4055 309.95Z" fill="white"/>
<path id="20 %" d="M2.176 270C2.176 269.477 2.176 268.955 2.176 268.432C2.176 267.909 2.176 267.377 2.176 266.836C2.176 265.903 2.30667 265.165 2.568 264.624C2.848 264.064 3.24933 263.607 3.772 263.252C4.29467 262.897 4.92933 262.533 5.676 262.16C6.32933 261.861 6.87067 261.516 7.3 261.124C7.748 260.732 8.09333 260.256 8.336 259.696C8.59733 259.117 8.728 258.427 8.728 257.624C8.74667 256.672 8.56 255.944 8.168 255.44C7.79467 254.936 7.17867 254.684 6.32 254.684C5.55467 254.684 4.95733 254.927 4.528 255.412C4.11733 255.897 3.912 256.644 3.912 257.652V259.024H2.148V257.288C2.148 255.963 2.512 254.983 3.24 254.348C3.968 253.695 5.004 253.368 6.348 253.368C7.39333 253.368 8.224 253.527 8.84 253.844C9.456 254.161 9.89467 254.647 10.156 255.3C10.436 255.935 10.576 256.747 10.576 257.736C10.576 258.968 10.3147 260.023 9.792 260.9C9.288 261.759 8.52267 262.459 7.496 263C6.936 263.261 6.41333 263.532 5.928 263.812C5.46133 264.092 5.06 264.437 4.724 264.848C4.40667 265.24 4.22 265.753 4.164 266.388C4.108 266.705 4.06133 267.041 4.024 267.396C4.00533 267.751 3.996 268.124 3.996 268.516H10.716V270H2.176ZM17.0993 270.336C16.3153 270.336 15.5967 270.159 14.9433 269.804C14.29 269.449 13.7673 268.899 13.3753 268.152C13.002 267.387 12.8153 266.407 12.8153 265.212V258.072C12.8153 256.411 13.2353 255.188 14.0753 254.404C14.9153 253.62 15.942 253.228 17.1553 253.228C18.3687 253.228 19.3767 253.629 20.1793 254.432C21.0007 255.216 21.4113 256.429 21.4113 258.072V265.212C21.4113 266.425 21.2247 267.415 20.8513 268.18C20.478 268.927 19.9647 269.477 19.3113 269.832C18.658 270.168 17.9207 270.336 17.0993 270.336ZM17.1273 269.244C17.8553 269.244 18.4527 268.955 18.9193 268.376C19.4047 267.797 19.6473 266.976 19.6473 265.912V257.68C19.6473 256.616 19.4047 255.795 18.9193 255.216C18.434 254.637 17.8367 254.348 17.1273 254.348C16.3993 254.348 15.7927 254.637 15.3073 255.216C14.822 255.795 14.5793 256.616 14.5793 257.68V265.912C14.5793 266.976 14.822 267.797 15.3073 268.376C15.7927 268.955 16.3993 269.244 17.1273 269.244ZM32.0539 252.9C33.2206 252.9 34.1372 253.392 34.8039 254.375C35.4706 255.392 35.8039 256.708 35.8039 258.325C35.8039 259.975 35.4789 261.258 34.8289 262.175C34.1622 263.058 33.2456 263.5 32.0789 263.5C30.8456 263.5 29.9039 263.033 29.2539 262.1C28.6372 261.2 28.3289 259.95 28.3289 258.35C28.3289 256.717 28.6456 255.425 29.2789 254.475C29.9122 253.425 30.8372 252.9 32.0539 252.9ZM43.1039 253.175L33.1789 270H31.3789L41.2789 253.175H43.1039ZM32.0539 254.225C31.3539 254.225 30.8289 254.517 30.4789 255.1C30.0622 255.783 29.8539 256.867 29.8539 258.35C29.8539 259.433 29.9706 260.275 30.2039 260.875C30.5539 261.742 31.1706 262.175 32.0539 262.175C32.8872 262.175 33.4956 261.767 33.8789 260.95C34.1622 260.3 34.3039 259.433 34.3039 258.35C34.3039 256.833 34.0622 255.725 33.5789 255.025C33.2122 254.492 32.7039 254.225 32.0539 254.225ZM42.1789 259.625C43.3456 259.625 44.2622 260.117 44.9289 261.1C45.5956 262.117 45.9289 263.433 45.9289 265.05C45.9289 266.683 45.6039 267.967 44.9539 268.9C44.2872 269.783 43.3706 270.225 42.2039 270.225C40.9706 270.225 40.0289 269.758 39.3789 268.825C38.7622 267.925 38.4539 266.675 38.4539 265.075C38.4539 263.425 38.7706 262.125 39.4039 261.175C40.0372 260.142 40.9622 259.625 42.1789 259.625ZM42.1789 260.95C41.4789 260.95 40.9539 261.242 40.6039 261.825C40.1872 262.508 39.9789 263.592 39.9789 265.075C39.9789 266.158 40.1039 267 40.3539 267.6C40.6872 268.467 41.2956 268.9 42.1789 268.9C43.0122 268.9 43.6206 268.492 44.0039 267.675C44.2872 267.025 44.4289 266.158 44.4289 265.075C44.4289 263.558 44.1872 262.45 43.7039 261.75C43.3372 261.217 42.8289 260.95 42.1789 260.95Z" fill="white"/>
<path id="30 %" d="M6.348 221.196C5.32133 221.196 4.49067 221.028 3.856 220.692C3.22133 220.337 2.75467 219.852 2.456 219.236C2.15733 218.601 2.008 217.892 2.008 217.108V215.428H3.828V216.856C3.828 217.808 4.03333 218.555 4.444 219.096C4.87333 219.619 5.508 219.889 6.348 219.908C7.11333 219.908 7.72 219.656 8.168 219.152C8.63467 218.648 8.868 217.967 8.868 217.108V215.568C8.868 214.728 8.59733 214.093 8.056 213.664C7.53333 213.235 6.80533 213.001 5.872 212.964H4.248V211.844H5.9C6.32933 211.844 6.74 211.769 7.132 211.62C7.524 211.452 7.84133 211.219 8.084 210.92C8.32667 210.677 8.49467 210.416 8.588 210.136C8.68133 209.837 8.728 209.52 8.728 209.184V208.204C8.728 207.495 8.54133 206.897 8.168 206.412C7.79467 205.908 7.188 205.656 6.348 205.656C5.48933 205.656 4.87333 205.917 4.5 206.44C4.12667 206.963 3.94 207.635 3.94 208.456V209.436H2.12V208.204C2.12 206.991 2.456 206.048 3.128 205.376C3.81867 204.704 4.892 204.368 6.348 204.368C7.86 204.368 8.94267 204.695 9.596 205.348C10.268 205.983 10.604 206.897 10.604 208.092V208.932C10.604 209.903 10.3613 210.687 9.876 211.284C9.39067 211.863 8.756 212.255 7.972 212.46C8.868 212.609 9.54933 213.001 10.016 213.636C10.4827 214.252 10.716 215.036 10.716 215.988V217.108C10.716 217.929 10.576 218.648 10.296 219.264C10.016 219.88 9.55867 220.356 8.924 220.692C8.28933 221.028 7.43067 221.196 6.348 221.196ZM17.4275 221.336C16.6435 221.336 15.9248 221.159 15.2715 220.804C14.6181 220.449 14.0955 219.899 13.7035 219.152C13.3301 218.387 13.1435 217.407 13.1435 216.212V209.072C13.1435 207.411 13.5635 206.188 14.4035 205.404C15.2435 204.62 16.2701 204.228 17.4835 204.228C18.6968 204.228 19.7048 204.629 20.5075 205.432C21.3288 206.216 21.7395 207.429 21.7395 209.072V216.212C21.7395 217.425 21.5528 218.415 21.1795 219.18C20.8061 219.927 20.2928 220.477 19.6395 220.832C18.9861 221.168 18.2488 221.336 17.4275 221.336ZM17.4555 220.244C18.1835 220.244 18.7808 219.955 19.2475 219.376C19.7328 218.797 19.9755 217.976 19.9755 216.912V208.68C19.9755 207.616 19.7328 206.795 19.2475 206.216C18.7621 205.637 18.1648 205.348 17.4555 205.348C16.7275 205.348 16.1208 205.637 15.6355 206.216C15.1501 206.795 14.9075 207.616 14.9075 208.68V216.912C14.9075 217.976 15.1501 218.797 15.6355 219.376C16.1208 219.955 16.7275 220.244 17.4555 220.244ZM32.382 203.9C33.5487 203.9 34.4654 204.392 35.132 205.375C35.7987 206.392 36.132 207.708 36.132 209.325C36.132 210.975 35.807 212.258 35.157 213.175C34.4904 214.058 33.5737 214.5 32.407 214.5C31.1737 214.5 30.232 214.033 29.582 213.1C28.9654 212.2 28.657 210.95 28.657 209.35C28.657 207.717 28.9737 206.425 29.607 205.475C30.2404 204.425 31.1654 203.9 32.382 203.9ZM43.432 204.175L33.507 221H31.707L41.607 204.175H43.432ZM32.382 205.225C31.682 205.225 31.157 205.517 30.807 206.1C30.3904 206.783 30.182 207.867 30.182 209.35C30.182 210.433 30.2987 211.275 30.532 211.875C30.882 212.742 31.4987 213.175 32.382 213.175C33.2154 213.175 33.8237 212.767 34.207 211.95C34.4904 211.3 34.632 210.433 34.632 209.35C34.632 207.833 34.3904 206.725 33.907 206.025C33.5404 205.492 33.032 205.225 32.382 205.225ZM42.507 210.625C43.6737 210.625 44.5904 211.117 45.257 212.1C45.9237 213.117 46.257 214.433 46.257 216.05C46.257 217.683 45.932 218.967 45.282 219.9C44.6154 220.783 43.6987 221.225 42.532 221.225C41.2987 221.225 40.357 220.758 39.707 219.825C39.0904 218.925 38.782 217.675 38.782 216.075C38.782 214.425 39.0987 213.125 39.732 212.175C40.3654 211.142 41.2904 210.625 42.507 210.625ZM42.507 211.95C41.807 211.95 41.282 212.242 40.932 212.825C40.5154 213.508 40.307 214.592 40.307 216.075C40.307 217.158 40.432 218 40.682 218.6C41.0154 219.467 41.6237 219.9 42.507 219.9C43.3404 219.9 43.9487 219.492 44.332 218.675C44.6154 218.025 44.757 217.158 44.757 216.075C44.757 214.558 44.5154 213.45 44.032 212.75C43.6654 212.217 43.157 211.95 42.507 211.95Z" fill="white"/>
<path id="40 %" d="M7.216 172V168.668H1.42V167.268L7.412 155.452H8.98V167.436H10.632V168.668H8.98V172H7.216ZM2.932 167.436H7.216V158.924L2.932 167.436ZM16.6892 172.336C15.9052 172.336 15.1865 172.159 14.5332 171.804C13.8799 171.449 13.3572 170.899 12.9652 170.152C12.5919 169.387 12.4052 168.407 12.4052 167.212V160.072C12.4052 158.411 12.8252 157.188 13.6652 156.404C14.5052 155.62 15.5319 155.228 16.7452 155.228C17.9585 155.228 18.9665 155.629 19.7692 156.432C20.5905 157.216 21.0012 158.429 21.0012 160.072V167.212C21.0012 168.425 20.8145 169.415 20.4412 170.18C20.0679 170.927 19.5545 171.477 18.9012 171.832C18.2479 172.168 17.5105 172.336 16.6892 172.336ZM16.7172 171.244C17.4452 171.244 18.0425 170.955 18.5092 170.376C18.9945 169.797 19.2372 168.976 19.2372 167.912V159.68C19.2372 158.616 18.9945 157.795 18.5092 157.216C18.0239 156.637 17.4265 156.348 16.7172 156.348C15.9892 156.348 15.3825 156.637 14.8972 157.216C14.4119 157.795 14.1692 158.616 14.1692 159.68V167.912C14.1692 168.976 14.4119 169.797 14.8972 170.376C15.3825 170.955 15.9892 171.244 16.7172 171.244ZM31.6438 154.9C32.8104 154.9 33.7271 155.392 34.3938 156.375C35.0604 157.392 35.3938 158.708 35.3938 160.325C35.3938 161.975 35.0688 163.258 34.4188 164.175C33.7521 165.058 32.8354 165.5 31.6688 165.5C30.4354 165.5 29.4938 165.033 28.8438 164.1C28.2271 163.2 27.9188 161.95 27.9188 160.35C27.9188 158.717 28.2354 157.425 28.8688 156.475C29.5021 155.425 30.4271 154.9 31.6438 154.9ZM42.6938 155.175L32.7688 172H30.9688L40.8688 155.175H42.6938ZM31.6438 156.225C30.9438 156.225 30.4188 156.517 30.0688 157.1C29.6521 157.783 29.4438 158.867 29.4438 160.35C29.4438 161.433 29.5604 162.275 29.7938 162.875C30.1438 163.742 30.7604 164.175 31.6438 164.175C32.4771 164.175 33.0854 163.767 33.4688 162.95C33.7521 162.3 33.8937 161.433 33.8937 160.35C33.8937 158.833 33.6521 157.725 33.1688 157.025C32.8021 156.492 32.2938 156.225 31.6438 156.225ZM41.7688 161.625C42.9354 161.625 43.8521 162.117 44.5188 163.1C45.1854 164.117 45.5188 165.433 45.5188 167.05C45.5188 168.683 45.1938 169.967 44.5438 170.9C43.8771 171.783 42.9604 172.225 41.7938 172.225C40.5604 172.225 39.6188 171.758 38.9688 170.825C38.3521 169.925 38.0438 168.675 38.0438 167.075C38.0438 165.425 38.3604 164.125 38.9938 163.175C39.6271 162.142 40.5521 161.625 41.7688 161.625ZM41.7688 162.95C41.0688 162.95 40.5438 163.242 40.1938 163.825C39.7771 164.508 39.5688 165.592 39.5688 167.075C39.5688 168.158 39.6938 169 39.9438 169.6C40.2771 170.467 40.8854 170.9 41.7688 170.9C42.6021 170.9 43.2104 170.492 43.5938 169.675C43.8771 169.025 44.0188 168.158 44.0188 167.075C44.0188 165.558 43.7771 164.45 43.2938 163.75C42.9271 163.217 42.4188 162.95 41.7688 162.95Z" fill="white"/>
<path id="50 %" d="M6.544 123.224C5.55467 123.224 4.73333 123.103 4.08 122.86C3.44533 122.617 2.96 122.179 2.624 121.544C2.30667 120.891 2.148 119.967 2.148 118.772V117.82H3.94V118.604C3.94 119.799 4.136 120.648 4.528 121.152C4.93867 121.637 5.62 121.88 6.572 121.88C7.468 121.88 8.09333 121.6 8.448 121.04C8.82133 120.461 9.008 119.612 9.008 118.492V116.112C9.008 115.552 8.94267 115.039 8.812 114.572C8.68133 114.105 8.42933 113.732 8.056 113.452C7.70133 113.172 7.17867 113.032 6.488 113.032C5.83467 113.032 5.284 113.209 4.836 113.564C4.388 113.919 4.09867 114.385 3.968 114.964H2.232V106.452H10.352V107.796H3.996V113.256C4.276 112.808 4.668 112.453 5.172 112.192C5.676 111.931 6.30133 111.8 7.048 111.8C8.28 111.8 9.21333 112.089 9.848 112.668C10.5013 113.228 10.828 114.255 10.828 115.748V118.604C10.828 119.873 10.6413 120.844 10.268 121.516C9.91333 122.169 9.40933 122.617 8.756 122.86C8.10267 123.103 7.36533 123.224 6.544 123.224ZM17.5368 123.336C16.7528 123.336 16.0342 123.159 15.3808 122.804C14.7275 122.449 14.2048 121.899 13.8128 121.152C13.4395 120.387 13.2528 119.407 13.2528 118.212V111.072C13.2528 109.411 13.6728 108.188 14.5128 107.404C15.3528 106.62 16.3795 106.228 17.5928 106.228C18.8062 106.228 19.8142 106.629 20.6168 107.432C21.4382 108.216 21.8488 109.429 21.8488 111.072V118.212C21.8488 119.425 21.6622 120.415 21.2888 121.18C20.9155 121.927 20.4022 122.477 19.7488 122.832C19.0955 123.168 18.3582 123.336 17.5368 123.336ZM17.5648 122.244C18.2928 122.244 18.8902 121.955 19.3568 121.376C19.8422 120.797 20.0848 119.976 20.0848 118.912V110.68C20.0848 109.616 19.8422 108.795 19.3568 108.216C18.8715 107.637 18.2742 107.348 17.5648 107.348C16.8368 107.348 16.2302 107.637 15.7448 108.216C15.2595 108.795 15.0168 109.616 15.0168 110.68V118.912C15.0168 119.976 15.2595 120.797 15.7448 121.376C16.2302 121.955 16.8368 122.244 17.5648 122.244ZM32.4914 105.9C33.6581 105.9 34.5747 106.392 35.2414 107.375C35.9081 108.392 36.2414 109.708 36.2414 111.325C36.2414 112.975 35.9164 114.258 35.2664 115.175C34.5997 116.058 33.6831 116.5 32.5164 116.5C31.2831 116.5 30.3414 116.033 29.6914 115.1C29.0747 114.2 28.7664 112.95 28.7664 111.35C28.7664 109.717 29.0831 108.425 29.7164 107.475C30.3497 106.425 31.2747 105.9 32.4914 105.9ZM43.5414 106.175L33.6164 123H31.8164L41.7164 106.175H43.5414ZM32.4914 107.225C31.7914 107.225 31.2664 107.517 30.9164 108.1C30.4997 108.783 30.2914 109.867 30.2914 111.35C30.2914 112.433 30.4081 113.275 30.6414 113.875C30.9914 114.742 31.6081 115.175 32.4914 115.175C33.3247 115.175 33.9331 114.767 34.3164 113.95C34.5997 113.3 34.7414 112.433 34.7414 111.35C34.7414 109.833 34.4997 108.725 34.0164 108.025C33.6497 107.492 33.1414 107.225 32.4914 107.225ZM42.6164 112.625C43.7831 112.625 44.6997 113.117 45.3664 114.1C46.0331 115.117 46.3664 116.433 46.3664 118.05C46.3664 119.683 46.0414 120.967 45.3914 121.9C44.7247 122.783 43.8081 123.225 42.6414 123.225C41.4081 123.225 40.4664 122.758 39.8164 121.825C39.1997 120.925 38.8914 119.675 38.8914 118.075C38.8914 116.425 39.2081 115.125 39.8414 114.175C40.4747 113.142 41.3997 112.625 42.6164 112.625ZM42.6164 113.95C41.9164 113.95 41.3914 114.242 41.0414 114.825C40.6247 115.508 40.4164 116.592 40.4164 118.075C40.4164 119.158 40.5414 120 40.7914 120.6C41.1247 121.467 41.7331 121.9 42.6164 121.9C43.4497 121.9 44.0581 121.492 44.4414 120.675C44.7247 120.025 44.8664 119.158 44.8664 118.075C44.8664 116.558 44.6247 115.45 44.1414 114.75C43.7747 114.217 43.2664 113.95 42.6164 113.95Z" fill="white"/>
<path id="60 %" d="M5.572 74.252C4.564 74.252 3.74267 74.0747 3.108 73.72C2.47333 73.3653 2.00667 72.8613 1.708 72.208C1.428 71.5547 1.288 70.7987 1.288 69.94V61.4C1.288 60.0933 1.68 59.0947 2.464 58.404C3.26667 57.7133 4.32133 57.368 5.628 57.368C6.93467 57.368 7.94267 57.6853 8.652 58.32C9.38 58.9547 9.744 59.944 9.744 61.288V62.352H8.008V61.064C8.008 60.1867 7.80267 59.552 7.392 59.16C6.98133 58.7493 6.39333 58.544 5.628 58.544C4.844 58.544 4.21867 58.796 3.752 59.3C3.304 59.7853 3.08 60.4013 3.08 61.148V65.264C3.416 64.7787 3.85467 64.4053 4.396 64.144C4.956 63.864 5.572 63.724 6.244 63.724C7.27067 63.724 8.13867 64.0413 8.848 64.676C9.55733 65.292 9.912 66.1507 9.912 67.252V70.108C9.912 70.892 9.75333 71.6013 9.436 72.236C9.13733 72.8707 8.67067 73.3653 8.036 73.72C7.42 74.0747 6.59867 74.252 5.572 74.252ZM5.6 73.132C6.34667 73.132 6.95333 72.908 7.42 72.46C7.90533 71.9933 8.148 71.284 8.148 70.332V67.476C8.148 66.6173 7.896 65.9827 7.392 65.572C6.90667 65.1613 6.3 64.9467 5.572 64.928C4.88133 64.928 4.29333 65.1333 3.808 65.544C3.34133 65.9547 3.09867 66.524 3.08 67.252V70.332C3.08 71.2467 3.304 71.9373 3.752 72.404C4.2 72.8707 4.816 73.1133 5.6 73.132ZM16.7283 74.336C15.9443 74.336 15.2256 74.1587 14.5723 73.804C13.9189 73.4493 13.3963 72.8987 13.0042 72.152C12.6309 71.3867 12.4443 70.4067 12.4443 69.212V62.072C12.4443 60.4107 12.8643 59.188 13.7043 58.404C14.5443 57.62 15.5709 57.228 16.7843 57.228C17.9976 57.228 19.0056 57.6293 19.8083 58.432C20.6296 59.216 21.0403 60.4293 21.0403 62.072V69.212C21.0403 70.4253 20.8536 71.4147 20.4803 72.18C20.1069 72.9267 19.5936 73.4773 18.9403 73.832C18.2869 74.168 17.5496 74.336 16.7283 74.336ZM16.7563 73.244C17.4843 73.244 18.0816 72.9547 18.5482 72.376C19.0336 71.7973 19.2763 70.976 19.2763 69.912V61.68C19.2763 60.616 19.0336 59.7947 18.5482 59.216C18.0629 58.6373 17.4656 58.348 16.7563 58.348C16.0283 58.348 15.4216 58.6373 14.9363 59.216C14.4509 59.7947 14.2083 60.616 14.2083 61.68V69.912C14.2083 70.976 14.4509 71.7973 14.9363 72.376C15.4216 72.9547 16.0283 73.244 16.7563 73.244ZM31.6828 56.9C32.8495 56.9 33.7661 57.3917 34.4328 58.375C35.0995 59.3917 35.4328 60.7083 35.4328 62.325C35.4328 63.975 35.1078 65.2583 34.4578 66.175C33.7911 67.0583 32.8745 67.5 31.7078 67.5C30.4745 67.5 29.5328 67.0333 28.8828 66.1C28.2661 65.2 27.9578 63.95 27.9578 62.35C27.9578 60.7167 28.2745 59.425 28.9078 58.475C29.5411 57.425 30.4661 56.9 31.6828 56.9ZM42.7328 57.175L32.8078 74H31.0078L40.9078 57.175H42.7328ZM31.6828 58.225C30.9828 58.225 30.4578 58.5167 30.1078 59.1C29.6911 59.7833 29.4828 60.8667 29.4828 62.35C29.4828 63.4333 29.5995 64.275 29.8328 64.875C30.1828 65.7417 30.7995 66.175 31.6828 66.175C32.5161 66.175 33.1245 65.7667 33.5078 64.95C33.7911 64.3 33.9328 63.4333 33.9328 62.35C33.9328 60.8333 33.6911 59.725 33.2078 59.025C32.8411 58.4917 32.3328 58.225 31.6828 58.225ZM41.8078 63.625C42.9745 63.625 43.8911 64.1167 44.5578 65.1C45.2245 66.1167 45.5578 67.4333 45.5578 69.05C45.5578 70.6833 45.2328 71.9667 44.5828 72.9C43.9161 73.7833 42.9995 74.225 41.8328 74.225C40.5995 74.225 39.6578 73.7583 39.0078 72.825C38.3911 71.925 38.0828 70.675 38.0828 69.075C38.0828 67.425 38.3995 66.125 39.0328 65.175C39.6661 64.1417 40.5911 63.625 41.8078 63.625ZM41.8078 64.95C41.1078 64.95 40.5828 65.2417 40.2328 65.825C39.8161 66.5083 39.6078 67.5917 39.6078 69.075C39.6078 70.1583 39.7328 71 39.9828 71.6C40.3161 72.4667 40.9245 72.9 41.8078 72.9C42.6411 72.9 43.2495 72.4917 43.6328 71.675C43.9161 71.025 44.0578 70.1583 44.0578 69.075C44.0578 67.5583 43.8161 66.45 43.3328 65.75C42.9661 65.2167 42.4578 64.95 41.8078 64.95Z" fill="white"/>
<path id="70 %" d="M3.372 25L7.964 9.768H2.364L2.336 8.452H9.7V9.824L5.136 25H3.372ZM15.9392 25.336C15.1552 25.336 14.4365 25.1587 13.7832 24.804C13.1299 24.4493 12.6072 23.8987 12.2152 23.152C11.8419 22.3867 11.6552 21.4067 11.6552 20.212V13.072C11.6552 11.4107 12.0752 10.188 12.9152 9.404C13.7552 8.62 14.7819 8.228 15.9952 8.228C17.2085 8.228 18.2165 8.62933 19.0192 9.432C19.8405 10.216 20.2512 11.4293 20.2512 13.072V20.212C20.2512 21.4253 20.0645 22.4147 19.6912 23.18C19.3179 23.9267 18.8045 24.4773 18.1512 24.832C17.4979 25.168 16.7605 25.336 15.9392 25.336ZM15.9672 24.244C16.6952 24.244 17.2925 23.9547 17.7592 23.376C18.2445 22.7973 18.4872 21.976 18.4872 20.912V12.68C18.4872 11.616 18.2445 10.7947 17.7592 10.216C17.2739 9.63733 16.6765 9.348 15.9672 9.348C15.2392 9.348 14.6325 9.63733 14.1472 10.216C13.6619 10.7947 13.4192 11.616 13.4192 12.68V20.912C13.4192 21.976 13.6619 22.7973 14.1472 23.376C14.6325 23.9547 15.2392 24.244 15.9672 24.244ZM30.8938 7.9C32.0604 7.9 32.9771 8.39167 33.6438 9.375C34.3104 10.3917 34.6438 11.7083 34.6438 13.325C34.6438 14.975 34.3188 16.2583 33.6688 17.175C33.0021 18.0583 32.0854 18.5 30.9188 18.5C29.6854 18.5 28.7438 18.0333 28.0938 17.1C27.4771 16.2 27.1688 14.95 27.1688 13.35C27.1688 11.7167 27.4854 10.425 28.1188 9.475C28.7521 8.425 29.6771 7.9 30.8938 7.9ZM41.9438 8.175L32.0188 25H30.2188L40.1188 8.175H41.9438ZM30.8938 9.225C30.1938 9.225 29.6688 9.51667 29.3188 10.1C28.9021 10.7833 28.6938 11.8667 28.6938 13.35C28.6938 14.4333 28.8104 15.275 29.0438 15.875C29.3938 16.7417 30.0104 17.175 30.8938 17.175C31.7271 17.175 32.3354 16.7667 32.7188 15.95C33.0021 15.3 33.1437 14.4333 33.1437 13.35C33.1437 11.8333 32.9021 10.725 32.4188 10.025C32.0521 9.49167 31.5438 9.225 30.8938 9.225ZM41.0188 14.625C42.1854 14.625 43.1021 15.1167 43.7688 16.1C44.4354 17.1167 44.7688 18.4333 44.7688 20.05C44.7688 21.6833 44.4438 22.9667 43.7938 23.9C43.1271 24.7833 42.2104 25.225 41.0438 25.225C39.8104 25.225 38.8688 24.7583 38.2188 23.825C37.6021 22.925 37.2938 21.675 37.2938 20.075C37.2938 18.425 37.6104 17.125 38.2438 16.175C38.8771 15.1417 39.8021 14.625 41.0188 14.625ZM41.0188 15.95C40.3188 15.95 39.7938 16.2417 39.4438 16.825C39.0271 17.5083 38.8188 18.5917 38.8188 20.075C38.8188 21.1583 38.9438 22 39.1938 22.6C39.5271 23.4667 40.1354 23.9 41.0188 23.9C41.8521 23.9 42.4604 23.4917 42.8438 22.675C43.1271 22.025 43.2688 21.1583 43.2688 20.075C43.2688 18.5583 43.0271 17.45 42.5438 16.75C42.1771 16.2167 41.6688 15.95 41.0188 15.95Z" fill="white"/>
<path id="2000" d="M137.176 403C137.176 402.477 137.176 401.955 137.176 401.432C137.176 400.909 137.176 400.377 137.176 399.836C137.176 398.903 137.307 398.165 137.568 397.624C137.848 397.064 138.249 396.607 138.772 396.252C139.295 395.897 139.929 395.533 140.676 395.16C141.329 394.861 141.871 394.516 142.3 394.124C142.748 393.732 143.093 393.256 143.336 392.696C143.597 392.117 143.728 391.427 143.728 390.624C143.747 389.672 143.56 388.944 143.168 388.44C142.795 387.936 142.179 387.684 141.32 387.684C140.555 387.684 139.957 387.927 139.528 388.412C139.117 388.897 138.912 389.644 138.912 390.652V392.024H137.148V390.288C137.148 388.963 137.512 387.983 138.24 387.348C138.968 386.695 140.004 386.368 141.348 386.368C142.393 386.368 143.224 386.527 143.84 386.844C144.456 387.161 144.895 387.647 145.156 388.3C145.436 388.935 145.576 389.747 145.576 390.736C145.576 391.968 145.315 393.023 144.792 393.9C144.288 394.759 143.523 395.459 142.496 396C141.936 396.261 141.413 396.532 140.928 396.812C140.461 397.092 140.06 397.437 139.724 397.848C139.407 398.24 139.22 398.753 139.164 399.388C139.108 399.705 139.061 400.041 139.024 400.396C139.005 400.751 138.996 401.124 138.996 401.516H145.716V403H137.176ZM152.099 403.336C151.315 403.336 150.597 403.159 149.943 402.804C149.29 402.449 148.767 401.899 148.375 401.152C148.002 400.387 147.815 399.407 147.815 398.212V391.072C147.815 389.411 148.235 388.188 149.075 387.404C149.915 386.62 150.942 386.228 152.155 386.228C153.369 386.228 154.377 386.629 155.179 387.432C156.001 388.216 156.411 389.429 156.411 391.072V398.212C156.411 399.425 156.225 400.415 155.851 401.18C155.478 401.927 154.965 402.477 154.311 402.832C153.658 403.168 152.921 403.336 152.099 403.336ZM152.127 402.244C152.855 402.244 153.453 401.955 153.919 401.376C154.405 400.797 154.647 399.976 154.647 398.912V390.68C154.647 389.616 154.405 388.795 153.919 388.216C153.434 387.637 152.837 387.348 152.127 387.348C151.399 387.348 150.793 387.637 150.307 388.216C149.822 388.795 149.579 389.616 149.579 390.68V398.912C149.579 399.976 149.822 400.797 150.307 401.376C150.793 401.955 151.399 402.244 152.127 402.244ZM163.283 403.336C162.499 403.336 161.78 403.159 161.127 402.804C160.474 402.449 159.951 401.899 159.559 401.152C159.186 400.387 158.999 399.407 158.999 398.212V391.072C158.999 389.411 159.419 388.188 160.259 387.404C161.099 386.62 162.126 386.228 163.339 386.228C164.552 386.228 165.56 386.629 166.363 387.432C167.184 388.216 167.595 389.429 167.595 391.072V398.212C167.595 399.425 167.408 400.415 167.035 401.18C166.662 401.927 166.148 402.477 165.495 402.832C164.842 403.168 164.104 403.336 163.283 403.336ZM163.311 402.244C164.039 402.244 164.636 401.955 165.103 401.376C165.588 400.797 165.831 399.976 165.831 398.912V390.68C165.831 389.616 165.588 388.795 165.103 388.216C164.618 387.637 164.02 387.348 163.311 387.348C162.583 387.348 161.976 387.637 161.491 388.216C161.006 388.795 160.763 389.616 160.763 390.68V398.912C160.763 399.976 161.006 400.797 161.491 401.376C161.976 401.955 162.583 402.244 163.311 402.244ZM174.467 403.336C173.683 403.336 172.964 403.159 172.311 402.804C171.657 402.449 171.135 401.899 170.743 401.152C170.369 400.387 170.183 399.407 170.183 398.212V391.072C170.183 389.411 170.603 388.188 171.443 387.404C172.283 386.62 173.309 386.228 174.523 386.228C175.736 386.228 176.744 386.629 177.547 387.432C178.368 388.216 178.779 389.429 178.779 391.072V398.212C178.779 399.425 178.592 400.415 178.219 401.18C177.845 401.927 177.332 402.477 176.679 402.832C176.025 403.168 175.288 403.336 174.467 403.336ZM174.495 402.244C175.223 402.244 175.82 401.955 176.287 401.376C176.772 400.797 177.015 399.976 177.015 398.912V390.68C177.015 389.616 176.772 388.795 176.287 388.216C175.801 387.637 175.204 387.348 174.495 387.348C173.767 387.348 173.16 387.637 172.675 388.216C172.189 388.795 171.947 389.616 171.947 390.68V398.912C171.947 399.976 172.189 400.797 172.675 401.376C173.16 401.955 173.767 402.244 174.495 402.244Z" fill="white"/>
<path id="2007" d="M234.176 403C234.176 402.477 234.176 401.955 234.176 401.432C234.176 400.909 234.176 400.377 234.176 399.836C234.176 398.903 234.307 398.165 234.568 397.624C234.848 397.064 235.249 396.607 235.772 396.252C236.295 395.897 236.929 395.533 237.676 395.16C238.329 394.861 238.871 394.516 239.3 394.124C239.748 393.732 240.093 393.256 240.336 392.696C240.597 392.117 240.728 391.427 240.728 390.624C240.747 389.672 240.56 388.944 240.168 388.44C239.795 387.936 239.179 387.684 238.32 387.684C237.555 387.684 236.957 387.927 236.528 388.412C236.117 388.897 235.912 389.644 235.912 390.652V392.024H234.148V390.288C234.148 388.963 234.512 387.983 235.24 387.348C235.968 386.695 237.004 386.368 238.348 386.368C239.393 386.368 240.224 386.527 240.84 386.844C241.456 387.161 241.895 387.647 242.156 388.3C242.436 388.935 242.576 389.747 242.576 390.736C242.576 391.968 242.315 393.023 241.792 393.9C241.288 394.759 240.523 395.459 239.496 396C238.936 396.261 238.413 396.532 237.928 396.812C237.461 397.092 237.06 397.437 236.724 397.848C236.407 398.24 236.22 398.753 236.164 399.388C236.108 399.705 236.061 400.041 236.024 400.396C236.005 400.751 235.996 401.124 235.996 401.516H242.716V403H234.176ZM249.099 403.336C248.315 403.336 247.597 403.159 246.943 402.804C246.29 402.449 245.767 401.899 245.375 401.152C245.002 400.387 244.815 399.407 244.815 398.212V391.072C244.815 389.411 245.235 388.188 246.075 387.404C246.915 386.62 247.942 386.228 249.155 386.228C250.369 386.228 251.377 386.629 252.179 387.432C253.001 388.216 253.411 389.429 253.411 391.072V398.212C253.411 399.425 253.225 400.415 252.851 401.18C252.478 401.927 251.965 402.477 251.311 402.832C250.658 403.168 249.921 403.336 249.099 403.336ZM249.127 402.244C249.855 402.244 250.453 401.955 250.919 401.376C251.405 400.797 251.647 399.976 251.647 398.912V390.68C251.647 389.616 251.405 388.795 250.919 388.216C250.434 387.637 249.837 387.348 249.127 387.348C248.399 387.348 247.793 387.637 247.307 388.216C246.822 388.795 246.579 389.616 246.579 390.68V398.912C246.579 399.976 246.822 400.797 247.307 401.376C247.793 401.955 248.399 402.244 249.127 402.244ZM260.283 403.336C259.499 403.336 258.78 403.159 258.127 402.804C257.474 402.449 256.951 401.899 256.559 401.152C256.186 400.387 255.999 399.407 255.999 398.212V391.072C255.999 389.411 256.419 388.188 257.259 387.404C258.099 386.62 259.126 386.228 260.339 386.228C261.552 386.228 262.56 386.629 263.363 387.432C264.184 388.216 264.595 389.429 264.595 391.072V398.212C264.595 399.425 264.408 400.415 264.035 401.18C263.662 401.927 263.148 402.477 262.495 402.832C261.842 403.168 261.104 403.336 260.283 403.336ZM260.311 402.244C261.039 402.244 261.636 401.955 262.103 401.376C262.588 400.797 262.831 399.976 262.831 398.912V390.68C262.831 389.616 262.588 388.795 262.103 388.216C261.618 387.637 261.02 387.348 260.311 387.348C259.583 387.348 258.976 387.637 258.491 388.216C258.006 388.795 257.763 389.616 257.763 390.68V398.912C257.763 399.976 258.006 400.797 258.491 401.376C258.976 401.955 259.583 402.244 260.311 402.244ZM267.267 403L271.859 387.768H266.259L266.231 386.452H273.595V387.824L269.031 403H267.267Z" fill="white"/>
<path id="2014" d="M328.176 403C328.176 402.477 328.176 401.955 328.176 401.432C328.176 400.909 328.176 400.377 328.176 399.836C328.176 398.903 328.307 398.165 328.568 397.624C328.848 397.064 329.249 396.607 329.772 396.252C330.295 395.897 330.929 395.533 331.676 395.16C332.329 394.861 332.871 394.516 333.3 394.124C333.748 393.732 334.093 393.256 334.336 392.696C334.597 392.117 334.728 391.427 334.728 390.624C334.747 389.672 334.56 388.944 334.168 388.44C333.795 387.936 333.179 387.684 332.32 387.684C331.555 387.684 330.957 387.927 330.528 388.412C330.117 388.897 329.912 389.644 329.912 390.652V392.024H328.148V390.288C328.148 388.963 328.512 387.983 329.24 387.348C329.968 386.695 331.004 386.368 332.348 386.368C333.393 386.368 334.224 386.527 334.84 386.844C335.456 387.161 335.895 387.647 336.156 388.3C336.436 388.935 336.576 389.747 336.576 390.736C336.576 391.968 336.315 393.023 335.792 393.9C335.288 394.759 334.523 395.459 333.496 396C332.936 396.261 332.413 396.532 331.928 396.812C331.461 397.092 331.06 397.437 330.724 397.848C330.407 398.24 330.22 398.753 330.164 399.388C330.108 399.705 330.061 400.041 330.024 400.396C330.005 400.751 329.996 401.124 329.996 401.516H336.716V403H328.176ZM343.099 403.336C342.315 403.336 341.597 403.159 340.943 402.804C340.29 402.449 339.767 401.899 339.375 401.152C339.002 400.387 338.815 399.407 338.815 398.212V391.072C338.815 389.411 339.235 388.188 340.075 387.404C340.915 386.62 341.942 386.228 343.155 386.228C344.369 386.228 345.377 386.629 346.179 387.432C347.001 388.216 347.411 389.429 347.411 391.072V398.212C347.411 399.425 347.225 400.415 346.851 401.18C346.478 401.927 345.965 402.477 345.311 402.832C344.658 403.168 343.921 403.336 343.099 403.336ZM343.127 402.244C343.855 402.244 344.453 401.955 344.919 401.376C345.405 400.797 345.647 399.976 345.647 398.912V390.68C345.647 389.616 345.405 388.795 344.919 388.216C344.434 387.637 343.837 387.348 343.127 387.348C342.399 387.348 341.793 387.637 341.307 388.216C340.822 388.795 340.579 389.616 340.579 390.68V398.912C340.579 399.976 340.822 400.797 341.307 401.376C341.793 401.955 342.399 402.244 343.127 402.244ZM351.931 403V388.944H349.271V387.936L350.671 387.908C351.138 387.889 351.474 387.777 351.679 387.572C351.903 387.367 352.08 386.993 352.211 386.452H353.695V403H351.931ZM361.681 403V399.668H355.885V398.268L361.877 386.452H363.445V398.436H365.097V399.668H363.445V403H361.681ZM357.397 398.436H361.681V389.924L357.397 398.436Z" fill="white"/>
<path id="2022" d="M419.176 403C419.176 402.477 419.176 401.955 419.176 401.432C419.176 400.909 419.176 400.377 419.176 399.836C419.176 398.903 419.307 398.165 419.568 397.624C419.848 397.064 420.249 396.607 420.772 396.252C421.295 395.897 421.929 395.533 422.676 395.16C423.329 394.861 423.871 394.516 424.3 394.124C424.748 393.732 425.093 393.256 425.336 392.696C425.597 392.117 425.728 391.427 425.728 390.624C425.747 389.672 425.56 388.944 425.168 388.44C424.795 387.936 424.179 387.684 423.32 387.684C422.555 387.684 421.957 387.927 421.528 388.412C421.117 388.897 420.912 389.644 420.912 390.652V392.024H419.148V390.288C419.148 388.963 419.512 387.983 420.24 387.348C420.968 386.695 422.004 386.368 423.348 386.368C424.393 386.368 425.224 386.527 425.84 386.844C426.456 387.161 426.895 387.647 427.156 388.3C427.436 388.935 427.576 389.747 427.576 390.736C427.576 391.968 427.315 393.023 426.792 393.9C426.288 394.759 425.523 395.459 424.496 396C423.936 396.261 423.413 396.532 422.928 396.812C422.461 397.092 422.06 397.437 421.724 397.848C421.407 398.24 421.22 398.753 421.164 399.388C421.108 399.705 421.061 400.041 421.024 400.396C421.005 400.751 420.996 401.124 420.996 401.516H427.716V403H419.176ZM434.099 403.336C433.315 403.336 432.597 403.159 431.943 402.804C431.29 402.449 430.767 401.899 430.375 401.152C430.002 400.387 429.815 399.407 429.815 398.212V391.072C429.815 389.411 430.235 388.188 431.075 387.404C431.915 386.62 432.942 386.228 434.155 386.228C435.369 386.228 436.377 386.629 437.179 387.432C438.001 388.216 438.411 389.429 438.411 391.072V398.212C438.411 399.425 438.225 400.415 437.851 401.18C437.478 401.927 436.965 402.477 436.311 402.832C435.658 403.168 434.921 403.336 434.099 403.336ZM434.127 402.244C434.855 402.244 435.453 401.955 435.919 401.376C436.405 400.797 436.647 399.976 436.647 398.912V390.68C436.647 389.616 436.405 388.795 435.919 388.216C435.434 387.637 434.837 387.348 434.127 387.348C433.399 387.348 432.793 387.637 432.307 388.216C431.822 388.795 431.579 389.616 431.579 390.68V398.912C431.579 399.976 431.822 400.797 432.307 401.376C432.793 401.955 433.399 402.244 434.127 402.244ZM440.887 403C440.887 402.477 440.887 401.955 440.887 401.432C440.887 400.909 440.887 400.377 440.887 399.836C440.887 398.903 441.018 398.165 441.279 397.624C441.559 397.064 441.96 396.607 442.483 396.252C443.006 395.897 443.64 395.533 444.387 395.16C445.04 394.861 445.582 394.516 446.011 394.124C446.459 393.732 446.804 393.256 447.047 392.696C447.308 392.117 447.439 391.427 447.439 390.624C447.458 389.672 447.271 388.944 446.879 388.44C446.506 387.936 445.89 387.684 445.031 387.684C444.266 387.684 443.668 387.927 443.239 388.412C442.828 388.897 442.623 389.644 442.623 390.652V392.024H440.859V390.288C440.859 388.963 441.223 387.983 441.951 387.348C442.679 386.695 443.715 386.368 445.059 386.368C446.104 386.368 446.935 386.527 447.551 386.844C448.167 387.161 448.606 387.647 448.867 388.3C449.147 388.935 449.287 389.747 449.287 390.736C449.287 391.968 449.026 393.023 448.503 393.9C447.999 394.759 447.234 395.459 446.207 396C445.647 396.261 445.124 396.532 444.639 396.812C444.172 397.092 443.771 397.437 443.435 397.848C443.118 398.24 442.931 398.753 442.875 399.388C442.819 399.705 442.772 400.041 442.735 400.396C442.716 400.751 442.707 401.124 442.707 401.516H449.427V403H440.887ZM451.414 403C451.414 402.477 451.414 401.955 451.414 401.432C451.414 400.909 451.414 400.377 451.414 399.836C451.414 398.903 451.545 398.165 451.806 397.624C452.086 397.064 452.488 396.607 453.01 396.252C453.533 395.897 454.168 395.533 454.914 395.16C455.568 394.861 456.109 394.516 456.538 394.124C456.986 393.732 457.332 393.256 457.574 392.696C457.836 392.117 457.966 391.427 457.966 390.624C457.985 389.672 457.798 388.944 457.406 388.44C457.033 387.936 456.417 387.684 455.558 387.684C454.793 387.684 454.196 387.927 453.766 388.412C453.356 388.897 453.15 389.644 453.15 390.652V392.024H451.386V390.288C451.386 388.963 451.75 387.983 452.478 387.348C453.206 386.695 454.242 386.368 455.586 386.368C456.632 386.368 457.462 386.527 458.078 386.844C458.694 387.161 459.133 387.647 459.394 388.3C459.674 388.935 459.814 389.747 459.814 390.736C459.814 391.968 459.553 393.023 459.03 393.9C458.526 394.759 457.761 395.459 456.734 396C456.174 396.261 455.652 396.532 455.166 396.812C454.7 397.092 454.298 397.437 453.962 397.848C453.645 398.24 453.458 398.753 453.402 399.388C453.346 399.705 453.3 400.041 453.262 400.396C453.244 400.751 453.234 401.124 453.234 401.516H459.954V403H451.414Z" fill="white"/>
<path id="Vector 1" d="M63.5 310.5L158 321.5L252 298L346 310.5L446.5 124" stroke="url(#paint0_linear_148_161)" stroke-width="3" stroke-linecap="round"/>
<path id="Vector 2" d="M63.5 256H158L252.5 249L347 219L406.5 106.5L446 27.5" stroke="url(#paint1_linear_148_161)" stroke-width="3" stroke-linecap="round"/>
<circle id="Ellipse 6" cx="64" cy="311" r="6" fill="#8FC9FF"/>
<circle id="Ellipse 11" cx="64" cy="256" r="6" fill="#CDA7D7"/>
<circle id="Ellipse 12" cx="158" cy="256" r="6" fill="#CDA7D7"/>
<circle id="Ellipse 13" cx="252" cy="248" r="6" fill="#CDA7D7"/>
<circle id="Ellipse 14" cx="346" cy="219" r="6" fill="#CDA7D7"/>
<circle id="Ellipse 24" cx="446" cy="28" r="6" fill="#CDA7D7"/>
<circle id="Ellipse 7" cx="158" cy="322" r="6" fill="#8FC9FF"/>
<circle id="Ellipse 8" cx="252" cy="298" r="6" fill="#8FC9FF"/>
<circle id="Ellipse 9" cx="346" cy="310" r="6" fill="#8FC9FF"/>
<circle id="Ellipse 23" cx="446" cy="123" r="6" fill="#8FC9FF"/>
<path id="Vector 4" d="M507 243.314L541.047 224L575.094 263L601 243.314" stroke="url(#paint2_linear_148_161)" stroke-width="3" stroke-linecap="round"/>
<circle id="Ellipse 19" cx="505.5" cy="243.5" r="2.5" fill="#8FC9FF"/>
<circle id="Ellipse 20" cx="540.5" cy="224.5" r="2.5" fill="#8FC9FF"/>
<circle id="Ellipse 21" cx="574.5" cy="263.5" r="2.5" fill="#8FC9FF"/>
<circle id="Ellipse 22" cx="600.5" cy="243.5" r="2.5" fill="#8FC9FF"/>
<path id="Hommes" d="M527.512 303V288.816H529.024V295.008H533.176V288.816H534.664V303H533.176V296.16H529.024V303H527.512ZM540.42 303.168C539.684 303.168 539.068 303.072 538.572 302.88C538.092 302.672 537.732 302.312 537.492 301.8C537.268 301.288 537.156 300.584 537.156 299.688V294.144C537.156 292.992 537.404 292.168 537.9 291.672C538.412 291.176 539.252 290.928 540.42 290.928C541.588 290.928 542.42 291.168 542.916 291.648C543.428 292.128 543.684 292.96 543.684 294.144V299.688C543.684 300.584 543.572 301.288 543.348 301.8C543.124 302.296 542.772 302.648 542.292 302.856C541.812 303.064 541.188 303.168 540.42 303.168ZM540.42 302.232C541.06 302.232 541.516 302.072 541.788 301.752C542.06 301.432 542.196 300.848 542.196 300V294.072C542.196 293.288 542.068 292.728 541.812 292.392C541.556 292.04 541.092 291.864 540.42 291.864C539.796 291.864 539.34 292.032 539.052 292.368C538.78 292.688 538.644 293.256 538.644 294.072V300C538.644 300.832 538.78 301.416 539.052 301.752C539.34 302.072 539.796 302.232 540.42 302.232ZM545.905 303V291.12H547.153L547.321 292.44C547.497 291.976 547.785 291.608 548.185 291.336C548.601 291.064 549.105 290.928 549.697 290.928C550.625 290.928 551.273 291.12 551.641 291.504C552.025 291.888 552.225 292.448 552.241 293.184L551.977 293.208C552.137 292.52 552.441 291.968 552.889 291.552C553.353 291.136 553.945 290.928 554.665 290.928C555.657 290.928 556.329 291.16 556.681 291.624C557.049 292.088 557.233 292.8 557.233 293.76V303H555.745V294.024C555.745 293.256 555.625 292.736 555.385 292.464C555.161 292.176 554.769 292.032 554.209 292.032C553.681 292.032 553.241 292.192 552.889 292.512C552.537 292.816 552.345 293.2 552.313 293.664V303H550.825V293.832C550.825 293.176 550.705 292.712 550.465 292.44C550.241 292.168 549.833 292.032 549.241 292.032C548.697 292.032 548.281 292.16 547.993 292.416C547.721 292.672 547.521 292.976 547.393 293.328V303H545.905ZM559.592 303V291.12H560.84L561.008 292.44C561.184 291.976 561.472 291.608 561.872 291.336C562.288 291.064 562.792 290.928 563.384 290.928C564.312 290.928 564.96 291.12 565.328 291.504C565.712 291.888 565.912 292.448 565.928 293.184L565.664 293.208C565.824 292.52 566.128 291.968 566.576 291.552C567.04 291.136 567.632 290.928 568.352 290.928C569.344 290.928 570.016 291.16 570.368 291.624C570.736 292.088 570.92 292.8 570.92 293.76V303H569.432V294.024C569.432 293.256 569.312 292.736 569.072 292.464C568.848 292.176 568.456 292.032 567.896 292.032C567.368 292.032 566.928 292.192 566.576 292.512C566.224 292.816 566.032 293.2 566 293.664V303H564.512V293.832C564.512 293.176 564.392 292.712 564.152 292.44C563.928 292.168 563.52 292.032 562.928 292.032C562.384 292.032 561.968 292.16 561.68 292.416C561.408 292.672 561.208 292.976 561.08 293.328V303H559.592ZM576.352 303.216C575.552 303.216 574.904 303.128 574.408 302.952C573.912 302.76 573.552 302.416 573.328 301.92C573.104 301.424 572.992 300.704 572.992 299.76V293.832C572.992 292.712 573.24 291.944 573.736 291.528C574.248 291.112 575.088 290.904 576.256 290.904C577.392 290.904 578.208 291.112 578.704 291.528C579.216 291.944 579.472 292.712 579.472 293.832V296.904H574.48V300.264C574.48 301.032 574.6 301.568 574.84 301.872C575.08 302.16 575.568 302.304 576.304 302.304C576.976 302.304 577.424 302.16 577.648 301.872C577.872 301.584 577.984 301.048 577.984 300.264V298.728H579.472V299.736C579.472 300.664 579.36 301.384 579.136 301.896C578.912 302.392 578.568 302.736 578.104 302.928C577.656 303.12 577.072 303.216 576.352 303.216ZM574.48 296.136H577.984V293.784C577.984 293.112 577.872 292.624 577.648 292.32C577.424 292.016 576.96 291.864 576.256 291.864C575.552 291.864 575.08 292.016 574.84 292.32C574.6 292.624 574.48 293.112 574.48 293.784V296.136ZM584.48 303.168C583.616 303.168 582.944 303.064 582.464 302.856C581.984 302.632 581.648 302.288 581.456 301.824C581.264 301.344 581.168 300.712 581.168 299.928V298.896H582.68V300.264C582.68 301.016 582.808 301.536 583.064 301.824C583.32 302.112 583.784 302.256 584.456 302.256C585.048 302.256 585.48 302.112 585.752 301.824C586.04 301.536 586.184 301.048 586.184 300.36V299.688C586.184 299.32 586.128 299.008 586.016 298.752C585.904 298.48 585.688 298.232 585.368 298.008C585.064 297.784 584.632 297.56 584.072 297.336C583.544 297.128 583.08 296.904 582.68 296.664C582.28 296.424 581.96 296.12 581.72 295.752C581.496 295.384 581.384 294.912 581.384 294.336V293.616C581.384 292.768 581.624 292.112 582.104 291.648C582.6 291.168 583.432 290.928 584.6 290.928C585.368 290.928 585.976 291.032 586.424 291.24C586.888 291.448 587.224 291.784 587.432 292.248C587.656 292.712 587.768 293.312 587.768 294.048V295.056H586.304V293.904C586.304 293.104 586.168 292.56 585.896 292.272C585.624 291.968 585.192 291.816 584.6 291.816C583.928 291.816 583.472 291.976 583.232 292.296C583.008 292.616 582.896 293.016 582.896 293.496V294.144C582.896 294.592 582.992 294.96 583.184 295.248C583.392 295.536 583.68 295.776 584.048 295.968C584.416 296.16 584.856 296.36 585.368 296.568C585.832 296.76 586.24 296.968 586.592 297.192C586.96 297.4 587.248 297.688 587.456 298.056C587.664 298.424 587.768 298.928 587.768 299.568V300.12C587.768 300.76 587.664 301.312 587.456 301.776C587.264 302.224 586.928 302.568 586.448 302.808C585.968 303.048 585.312 303.168 584.48 303.168Z" fill="white"/>
<path id="Vector 3" d="M511 106.078L548.846 90L584.76 130L606 109.608" stroke="url(#paint3_linear_148_161)" stroke-width="3" stroke-linecap="round"/>
<path id="Femmes" d="M528.512 165V150.816H534.632V151.896H530.072V156.984H533.72V158.184H530.072V165H528.512ZM538.68 165.216C537.88 165.216 537.232 165.128 536.736 164.952C536.24 164.76 535.88 164.416 535.656 163.92C535.432 163.424 535.32 162.704 535.32 161.76V155.832C535.32 154.712 535.568 153.944 536.064 153.528C536.576 153.112 537.416 152.904 538.584 152.904C539.72 152.904 540.536 153.112 541.032 153.528C541.544 153.944 541.8 154.712 541.8 155.832V158.904H536.808V162.264C536.808 163.032 536.928 163.568 537.168 163.872C537.408 164.16 537.896 164.304 538.632 164.304C539.304 164.304 539.752 164.16 539.976 163.872C540.2 163.584 540.312 163.048 540.312 162.264V160.728H541.8V161.736C541.8 162.664 541.688 163.384 541.464 163.896C541.24 164.392 540.896 164.736 540.432 164.928C539.984 165.12 539.4 165.216 538.68 165.216ZM536.808 158.136H540.312V155.784C540.312 155.112 540.2 154.624 539.976 154.32C539.752 154.016 539.288 153.864 538.584 153.864C537.88 153.864 537.408 154.016 537.168 154.32C536.928 154.624 536.808 155.112 536.808 155.784V158.136ZM543.928 165V153.12H545.176L545.344 154.44C545.52 153.976 545.808 153.608 546.208 153.336C546.624 153.064 547.128 152.928 547.72 152.928C548.648 152.928 549.296 153.12 549.664 153.504C550.048 153.888 550.248 154.448 550.264 155.184L550 155.208C550.16 154.52 550.464 153.968 550.912 153.552C551.376 153.136 551.968 152.928 552.688 152.928C553.68 152.928 554.352 153.16 554.704 153.624C555.072 154.088 555.256 154.8 555.256 155.76V165H553.768V156.024C553.768 155.256 553.648 154.736 553.408 154.464C553.184 154.176 552.792 154.032 552.232 154.032C551.704 154.032 551.264 154.192 550.912 154.512C550.56 154.816 550.368 155.2 550.336 155.664V165H548.848V155.832C548.848 155.176 548.728 154.712 548.488 154.44C548.264 154.168 547.856 154.032 547.264 154.032C546.72 154.032 546.304 154.16 546.016 154.416C545.744 154.672 545.544 154.976 545.416 155.328V165H543.928ZM557.616 165V153.12H558.864L559.032 154.44C559.208 153.976 559.496 153.608 559.896 153.336C560.312 153.064 560.816 152.928 561.408 152.928C562.336 152.928 562.984 153.12 563.352 153.504C563.736 153.888 563.936 154.448 563.952 155.184L563.688 155.208C563.848 154.52 564.152 153.968 564.6 153.552C565.064 153.136 565.656 152.928 566.376 152.928C567.368 152.928 568.04 153.16 568.392 153.624C568.76 154.088 568.944 154.8 568.944 155.76V165H567.456V156.024C567.456 155.256 567.336 154.736 567.096 154.464C566.872 154.176 566.48 154.032 565.92 154.032C565.392 154.032 564.952 154.192 564.6 154.512C564.248 154.816 564.056 155.2 564.024 155.664V165H562.536V155.832C562.536 155.176 562.416 154.712 562.176 154.44C561.952 154.168 561.544 154.032 560.952 154.032C560.408 154.032 559.992 154.16 559.704 154.416C559.432 154.672 559.232 154.976 559.104 155.328V165H557.616ZM574.375 165.216C573.575 165.216 572.927 165.128 572.431 164.952C571.935 164.76 571.575 164.416 571.351 163.92C571.127 163.424 571.015 162.704 571.015 161.76V155.832C571.015 154.712 571.263 153.944 571.759 153.528C572.271 153.112 573.111 152.904 574.279 152.904C575.415 152.904 576.231 153.112 576.727 153.528C577.239 153.944 577.495 154.712 577.495 155.832V158.904H572.503V162.264C572.503 163.032 572.623 163.568 572.863 163.872C573.103 164.16 573.591 164.304 574.327 164.304C574.999 164.304 575.447 164.16 575.671 163.872C575.895 163.584 576.007 163.048 576.007 162.264V160.728H577.495V161.736C577.495 162.664 577.383 163.384 577.159 163.896C576.935 164.392 576.591 164.736 576.127 164.928C575.679 165.12 575.095 165.216 574.375 165.216ZM572.503 158.136H576.007V155.784C576.007 155.112 575.895 154.624 575.671 154.32C575.447 154.016 574.983 153.864 574.279 153.864C573.575 153.864 573.103 154.016 572.863 154.32C572.623 154.624 572.503 155.112 572.503 155.784V158.136ZM582.504 165.168C581.64 165.168 580.968 165.064 580.488 164.856C580.008 164.632 579.672 164.288 579.48 163.824C579.288 163.344 579.192 162.712 579.192 161.928V160.896H580.704V162.264C580.704 163.016 580.832 163.536 581.088 163.824C581.344 164.112 581.808 164.256 582.48 164.256C583.072 164.256 583.504 164.112 583.776 163.824C584.064 163.536 584.208 163.048 584.208 162.36V161.688C584.208 161.32 584.152 161.008 584.04 160.752C583.928 160.48 583.712 160.232 583.392 160.008C583.088 159.784 582.656 159.56 582.096 159.336C581.568 159.128 581.104 158.904 580.704 158.664C580.304 158.424 579.984 158.12 579.744 157.752C579.52 157.384 579.408 156.912 579.408 156.336V155.616C579.408 154.768 579.648 154.112 580.128 153.648C580.624 153.168 581.456 152.928 582.624 152.928C583.392 152.928 584 153.032 584.448 153.24C584.912 153.448 585.248 153.784 585.456 154.248C585.68 154.712 585.792 155.312 585.792 156.048V157.056H584.328V155.904C584.328 155.104 584.192 154.56 583.92 154.272C583.648 153.968 583.216 153.816 582.624 153.816C581.952 153.816 581.496 153.976 581.256 154.296C581.032 154.616 580.92 155.016 580.92 155.496V156.144C580.92 156.592 581.016 156.96 581.208 157.248C581.416 157.536 581.704 157.776 582.072 157.968C582.44 158.16 582.88 158.36 583.392 158.568C583.856 158.76 584.264 158.968 584.616 159.192C584.984 159.4 585.272 159.688 585.48 160.056C585.688 160.424 585.792 160.928 585.792 161.568V162.12C585.792 162.76 585.688 163.312 585.48 163.776C585.288 164.224 584.952 164.568 584.472 164.808C583.992 165.048 583.336 165.168 582.504 165.168Z" fill="white"/>
<ellipse id="Ellipse 15" cx="510.5" cy="106" rx="2.5" ry="3" fill="#CDA7D7"/>
<circle id="Ellipse 16" cx="547.5" cy="90.5" r="2.5" fill="#CDA7D7"/>
<ellipse id="Ellipse 17" cx="584" cy="129.5" rx="3" ry="2.5" fill="#CDA7D7"/>
<ellipse id="Ellipse 18" cx="605.5" cy="110" rx="2.5" ry="3" fill="#CDA7D7"/>
</g>
<defs>
<linearGradient id="paint0_linear_148_161" x1="166.5" y1="322" x2="508.5" y2="322" gradientUnits="userSpaceOnUse">
<stop stop-color="#8FC9FF"/>
<stop offset="1" stop-color="#766AFF"/>
</linearGradient>
<linearGradient id="paint1_linear_148_161" x1="166.323" y1="256.787" x2="507.733" y2="256.787" gradientUnits="userSpaceOnUse">
<stop stop-color="#CDA7D7"/>
<stop offset="1" stop-color="#F99893"/>
</linearGradient>
<linearGradient id="paint2_linear_148_161" x1="523.679" y1="263.83" x2="579.059" y2="263.83" gradientUnits="userSpaceOnUse">
<stop stop-color="#8FC9FF"/>
<stop offset="1" stop-color="#766AFF"/>
</linearGradient>
<linearGradient id="paint3_linear_148_161" x1="527.856" y1="130.851" x2="583.825" y2="130.851" gradientUnits="userSpaceOnUse">
<stop stop-color="#CDA7D7"/>
<stop offset="1" stop-color="#FFC0BB"/>
</linearGradient>
</defs>
</svg>
