<svg width="857" height="542" viewBox="0 0 857 542" fill="none" xmlns="http://www.w3.org/2000/svg">
<g id="augmentation">
<path id="Vector" d="M60 66H828.806" stroke="#D9D9D9" stroke-width="0.5" stroke-linecap="round" stroke-linejoin="round"/>
<path id="Vector_2" d="M60 19H828.806" stroke="#D9D9D9" stroke-width="0.5" stroke-linecap="round" stroke-linejoin="round"/>
<path id="Vector_3" d="M60 115H828.806" stroke="#D9D9D9" stroke-width="0.5" stroke-linecap="round" stroke-linejoin="round"/>
<path id="Vector_4" d="M60 164H828.806" stroke="#D9D9D9" stroke-width="0.5" stroke-linecap="round" stroke-linejoin="round"/>
<path id="Vector_5" d="M60 213H828.806" stroke="#D9D9D9" stroke-width="0.5" stroke-linecap="round" stroke-linejoin="round"/>
<path id="Vector_6" d="M60 262H828.806" stroke="#D9D9D9" stroke-width="0.5" stroke-linecap="round" stroke-linejoin="round"/>
<path id="Vector_7" d="M60 311H828.806" stroke="#D9D9D9" stroke-width="0.5" stroke-linecap="round" stroke-linejoin="round"/>
<path id="Vector_8" d="M60 360H828.806" stroke="#D9D9D9" stroke-width="0.5" stroke-linecap="round" stroke-linejoin="round"/>
<path id="1993" d="M47.22 403V388.944H44.56V387.936L45.96 387.908C46.4267 387.889 46.7627 387.777 46.968 387.572C47.192 387.367 47.3693 386.993 47.5 386.452H48.984V403H47.22ZM56.2139 403.252C54.8886 403.252 53.8619 402.935 53.1339 402.3C52.4246 401.665 52.0699 400.676 52.0699 399.332V398.1H53.8339V399.556C53.8339 400.433 54.0392 401.077 54.4499 401.488C54.8792 401.88 55.4579 402.076 56.1859 402.076C56.9886 402.076 57.6139 401.833 58.0619 401.348C58.5286 400.844 58.7619 400.219 58.7619 399.472V395.244C58.4259 395.748 57.9779 396.14 57.4179 396.42C56.8766 396.681 56.2699 396.812 55.5979 396.812C54.9072 396.812 54.2819 396.663 53.7219 396.364C53.1619 396.065 52.7139 395.627 52.3779 395.048C52.0606 394.469 51.9019 393.751 51.9019 392.892V390.512C51.9019 389.709 52.0512 389 52.3499 388.384C52.6672 387.749 53.1432 387.255 53.7779 386.9C54.4312 386.545 55.2619 386.368 56.2699 386.368C57.2779 386.368 58.0899 386.545 58.7059 386.9C59.3406 387.255 59.7979 387.759 60.0779 388.412C60.3766 389.047 60.5259 389.803 60.5259 390.68V399.22C60.5259 400.527 60.1339 401.525 59.3499 402.216C58.5659 402.907 57.5206 403.252 56.2139 403.252ZM56.2419 395.636C56.9512 395.636 57.5392 395.421 58.0059 394.992C58.4912 394.563 58.7432 393.993 58.7619 393.284V390.288C58.7619 389.373 58.5379 388.683 58.0899 388.216C57.6419 387.749 57.0259 387.507 56.2419 387.488C55.4952 387.488 54.8792 387.721 54.3939 388.188C53.9086 388.636 53.6659 389.336 53.6659 390.288V393.06C53.6659 393.9 53.9179 394.535 54.4219 394.964C54.9259 395.375 55.5326 395.599 56.2419 395.636ZM67.3155 403.252C65.9901 403.252 64.9635 402.935 64.2355 402.3C63.5261 401.665 63.1715 400.676 63.1715 399.332V398.1H64.9355V399.556C64.9355 400.433 65.1408 401.077 65.5515 401.488C65.9808 401.88 66.5595 402.076 67.2875 402.076C68.0901 402.076 68.7155 401.833 69.1635 401.348C69.6301 400.844 69.8635 400.219 69.8635 399.472V395.244C69.5275 395.748 69.0795 396.14 68.5195 396.42C67.9781 396.681 67.3715 396.812 66.6995 396.812C66.0088 396.812 65.3835 396.663 64.8235 396.364C64.2635 396.065 63.8155 395.627 63.4795 395.048C63.1621 394.469 63.0035 393.751 63.0035 392.892V390.512C63.0035 389.709 63.1528 389 63.4515 388.384C63.7688 387.749 64.2448 387.255 64.8795 386.9C65.5328 386.545 66.3635 386.368 67.3715 386.368C68.3795 386.368 69.1915 386.545 69.8075 386.9C70.4421 387.255 70.8995 387.759 71.1795 388.412C71.4781 389.047 71.6275 389.803 71.6275 390.68V399.22C71.6275 400.527 71.2355 401.525 70.4515 402.216C69.6675 402.907 68.6221 403.252 67.3155 403.252ZM67.3435 395.636C68.0528 395.636 68.6408 395.421 69.1075 394.992C69.5928 394.563 69.8448 393.993 69.8635 393.284V390.288C69.8635 389.373 69.6395 388.683 69.1915 388.216C68.7435 387.749 68.1275 387.507 67.3435 387.488C66.5968 387.488 65.9808 387.721 65.4955 388.188C65.0101 388.636 64.7675 389.336 64.7675 390.288V393.06C64.7675 393.9 65.0195 394.535 65.5235 394.964C66.0275 395.375 66.6341 395.599 67.3435 395.636ZM78.305 403.196C77.2784 403.196 76.4477 403.028 75.813 402.692C75.1784 402.337 74.7117 401.852 74.413 401.236C74.1144 400.601 73.965 399.892 73.965 399.108V397.428H75.785V398.856C75.785 399.808 75.9904 400.555 76.401 401.096C76.8304 401.619 77.465 401.889 78.305 401.908C79.0704 401.908 79.677 401.656 80.125 401.152C80.5917 400.648 80.825 399.967 80.825 399.108V397.568C80.825 396.728 80.5544 396.093 80.013 395.664C79.4904 395.235 78.7624 395.001 77.829 394.964H76.205V393.844H77.857C78.2864 393.844 78.697 393.769 79.089 393.62C79.481 393.452 79.7984 393.219 80.041 392.92C80.2837 392.677 80.4517 392.416 80.545 392.136C80.6384 391.837 80.685 391.52 80.685 391.184V390.204C80.685 389.495 80.4984 388.897 80.125 388.412C79.7517 387.908 79.145 387.656 78.305 387.656C77.4464 387.656 76.8304 387.917 76.457 388.44C76.0837 388.963 75.897 389.635 75.897 390.456V391.436H74.077V390.204C74.077 388.991 74.413 388.048 75.085 387.376C75.7757 386.704 76.849 386.368 78.305 386.368C79.817 386.368 80.8997 386.695 81.553 387.348C82.225 387.983 82.561 388.897 82.561 390.092V390.932C82.561 391.903 82.3184 392.687 81.833 393.284C81.3477 393.863 80.713 394.255 79.929 394.46C80.825 394.609 81.5064 395.001 81.973 395.636C82.4397 396.252 82.673 397.036 82.673 397.988V399.108C82.673 399.929 82.533 400.648 82.253 401.264C81.973 401.88 81.5157 402.356 80.881 402.692C80.2464 403.028 79.3877 403.196 78.305 403.196Z" fill="white"/>
<path id="0 %" d="M11.572 368.336C10.788 368.336 10.0693 368.159 9.416 367.804C8.76267 367.449 8.24 366.899 7.848 366.152C7.47467 365.387 7.288 364.407 7.288 363.212V356.072C7.288 354.411 7.708 353.188 8.548 352.404C9.388 351.62 10.4147 351.228 11.628 351.228C12.8413 351.228 13.8493 351.629 14.652 352.432C15.4733 353.216 15.884 354.429 15.884 356.072V363.212C15.884 364.425 15.6973 365.415 15.324 366.18C14.9507 366.927 14.4373 367.477 13.784 367.832C13.1307 368.168 12.3933 368.336 11.572 368.336ZM11.6 367.244C12.328 367.244 12.9253 366.955 13.392 366.376C13.8773 365.797 14.12 364.976 14.12 363.912V355.68C14.12 354.616 13.8773 353.795 13.392 353.216C12.9067 352.637 12.3093 352.348 11.6 352.348C10.872 352.348 10.2653 352.637 9.78 353.216C9.29467 353.795 9.052 354.616 9.052 355.68V363.912C9.052 364.976 9.29467 365.797 9.78 366.376C10.2653 366.955 10.872 367.244 11.6 367.244ZM26.5266 350.9C27.6932 350.9 28.6099 351.392 29.2766 352.375C29.9432 353.392 30.2766 354.708 30.2766 356.325C30.2766 357.975 29.9516 359.258 29.3016 360.175C28.6349 361.058 27.7182 361.5 26.5516 361.5C25.3182 361.5 24.3766 361.033 23.7266 360.1C23.1099 359.2 22.8016 357.95 22.8016 356.35C22.8016 354.717 23.1182 353.425 23.7516 352.475C24.3849 351.425 25.3099 350.9 26.5266 350.9ZM37.5766 351.175L27.6516 368H25.8516L35.7516 351.175H37.5766ZM26.5266 352.225C25.8266 352.225 25.3016 352.517 24.9516 353.1C24.5349 353.783 24.3266 354.867 24.3266 356.35C24.3266 357.433 24.4432 358.275 24.6766 358.875C25.0266 359.742 25.6432 360.175 26.5266 360.175C27.3599 360.175 27.9682 359.767 28.3516 358.95C28.6349 358.3 28.7766 357.433 28.7766 356.35C28.7766 354.833 28.5349 353.725 28.0516 353.025C27.6849 352.492 27.1766 352.225 26.5266 352.225ZM36.6516 357.625C37.8182 357.625 38.7349 358.117 39.4016 359.1C40.0682 360.117 40.4016 361.433 40.4016 363.05C40.4016 364.683 40.0766 365.967 39.4266 366.9C38.7599 367.783 37.8432 368.225 36.6766 368.225C35.4432 368.225 34.5016 367.758 33.8516 366.825C33.2349 365.925 32.9266 364.675 32.9266 363.075C32.9266 361.425 33.2432 360.125 33.8766 359.175C34.5099 358.142 35.4349 357.625 36.6516 357.625ZM36.6516 358.95C35.9516 358.95 35.4266 359.242 35.0766 359.825C34.6599 360.508 34.4516 361.592 34.4516 363.075C34.4516 364.158 34.5766 365 34.8266 365.6C35.1599 366.467 35.7682 366.9 36.6516 366.9C37.4849 366.9 38.0932 366.492 38.4766 365.675C38.7599 365.025 38.9016 364.158 38.9016 363.075C38.9016 361.558 38.6599 360.45 38.1766 359.75C37.8099 359.217 37.3016 358.95 36.6516 358.95Z" fill="white"/>
<path id="10 %" d="M6.22 319V304.944H3.56V303.936L4.96 303.908C5.42667 303.889 5.76267 303.777 5.968 303.572C6.192 303.367 6.36933 302.993 6.5 302.452H7.984V319H6.22ZM15.3259 319.336C14.5419 319.336 13.8232 319.159 13.1699 318.804C12.5166 318.449 11.9939 317.899 11.6019 317.152C11.2286 316.387 11.0419 315.407 11.0419 314.212V307.072C11.0419 305.411 11.4619 304.188 12.3019 303.404C13.1419 302.62 14.1686 302.228 15.3819 302.228C16.5952 302.228 17.6032 302.629 18.4059 303.432C19.2272 304.216 19.6379 305.429 19.6379 307.072V314.212C19.6379 315.425 19.4512 316.415 19.0779 317.18C18.7046 317.927 18.1912 318.477 17.5379 318.832C16.8846 319.168 16.1472 319.336 15.3259 319.336ZM15.3539 318.244C16.0819 318.244 16.6792 317.955 17.1459 317.376C17.6312 316.797 17.8739 315.976 17.8739 314.912V306.68C17.8739 305.616 17.6312 304.795 17.1459 304.216C16.6606 303.637 16.0632 303.348 15.3539 303.348C14.6259 303.348 14.0192 303.637 13.5339 304.216C13.0486 304.795 12.8059 305.616 12.8059 306.68V314.912C12.8059 315.976 13.0486 316.797 13.5339 317.376C14.0192 317.955 14.6259 318.244 15.3539 318.244ZM30.2805 301.9C31.4471 301.9 32.3638 302.392 33.0305 303.375C33.6971 304.392 34.0305 305.708 34.0305 307.325C34.0305 308.975 33.7055 310.258 33.0555 311.175C32.3888 312.058 31.4721 312.5 30.3055 312.5C29.0721 312.5 28.1305 312.033 27.4805 311.1C26.8638 310.2 26.5555 308.95 26.5555 307.35C26.5555 305.717 26.8721 304.425 27.5055 303.475C28.1388 302.425 29.0638 301.9 30.2805 301.9ZM41.3305 302.175L31.4055 319H29.6055L39.5055 302.175H41.3305ZM30.2805 303.225C29.5805 303.225 29.0555 303.517 28.7055 304.1C28.2888 304.783 28.0805 305.867 28.0805 307.35C28.0805 308.433 28.1971 309.275 28.4305 309.875C28.7805 310.742 29.3971 311.175 30.2805 311.175C31.1138 311.175 31.7221 310.767 32.1055 309.95C32.3888 309.3 32.5305 308.433 32.5305 307.35C32.5305 305.833 32.2888 304.725 31.8055 304.025C31.4388 303.492 30.9305 303.225 30.2805 303.225ZM40.4055 308.625C41.5721 308.625 42.4888 309.117 43.1555 310.1C43.8221 311.117 44.1555 312.433 44.1555 314.05C44.1555 315.683 43.8305 316.967 43.1805 317.9C42.5138 318.783 41.5971 319.225 40.4305 319.225C39.1971 319.225 38.2555 318.758 37.6055 317.825C36.9888 316.925 36.6805 315.675 36.6805 314.075C36.6805 312.425 36.9971 311.125 37.6305 310.175C38.2638 309.142 39.1888 308.625 40.4055 308.625ZM40.4055 309.95C39.7055 309.95 39.1805 310.242 38.8305 310.825C38.4138 311.508 38.2055 312.592 38.2055 314.075C38.2055 315.158 38.3305 316 38.5805 316.6C38.9138 317.467 39.5221 317.9 40.4055 317.9C41.2388 317.9 41.8471 317.492 42.2305 316.675C42.5138 316.025 42.6555 315.158 42.6555 314.075C42.6555 312.558 42.4138 311.45 41.9305 310.75C41.5638 310.217 41.0555 309.95 40.4055 309.95Z" fill="white"/>
<path id="20 %" d="M2.176 270C2.176 269.477 2.176 268.955 2.176 268.432C2.176 267.909 2.176 267.377 2.176 266.836C2.176 265.903 2.30667 265.165 2.568 264.624C2.848 264.064 3.24933 263.607 3.772 263.252C4.29467 262.897 4.92933 262.533 5.676 262.16C6.32933 261.861 6.87067 261.516 7.3 261.124C7.748 260.732 8.09333 260.256 8.336 259.696C8.59733 259.117 8.728 258.427 8.728 257.624C8.74667 256.672 8.56 255.944 8.168 255.44C7.79467 254.936 7.17867 254.684 6.32 254.684C5.55467 254.684 4.95733 254.927 4.528 255.412C4.11733 255.897 3.912 256.644 3.912 257.652V259.024H2.148V257.288C2.148 255.963 2.512 254.983 3.24 254.348C3.968 253.695 5.004 253.368 6.348 253.368C7.39333 253.368 8.224 253.527 8.84 253.844C9.456 254.161 9.89467 254.647 10.156 255.3C10.436 255.935 10.576 256.747 10.576 257.736C10.576 258.968 10.3147 260.023 9.792 260.9C9.288 261.759 8.52267 262.459 7.496 263C6.936 263.261 6.41333 263.532 5.928 263.812C5.46133 264.092 5.06 264.437 4.724 264.848C4.40667 265.24 4.22 265.753 4.164 266.388C4.108 266.705 4.06133 267.041 4.024 267.396C4.00533 267.751 3.996 268.124 3.996 268.516H10.716V270H2.176ZM17.0993 270.336C16.3153 270.336 15.5967 270.159 14.9433 269.804C14.29 269.449 13.7673 268.899 13.3753 268.152C13.002 267.387 12.8153 266.407 12.8153 265.212V258.072C12.8153 256.411 13.2353 255.188 14.0753 254.404C14.9153 253.62 15.942 253.228 17.1553 253.228C18.3687 253.228 19.3767 253.629 20.1793 254.432C21.0007 255.216 21.4113 256.429 21.4113 258.072V265.212C21.4113 266.425 21.2247 267.415 20.8513 268.18C20.478 268.927 19.9647 269.477 19.3113 269.832C18.658 270.168 17.9207 270.336 17.0993 270.336ZM17.1273 269.244C17.8553 269.244 18.4527 268.955 18.9193 268.376C19.4047 267.797 19.6473 266.976 19.6473 265.912V257.68C19.6473 256.616 19.4047 255.795 18.9193 255.216C18.434 254.637 17.8367 254.348 17.1273 254.348C16.3993 254.348 15.7927 254.637 15.3073 255.216C14.822 255.795 14.5793 256.616 14.5793 257.68V265.912C14.5793 266.976 14.822 267.797 15.3073 268.376C15.7927 268.955 16.3993 269.244 17.1273 269.244ZM32.0539 252.9C33.2206 252.9 34.1372 253.392 34.8039 254.375C35.4706 255.392 35.8039 256.708 35.8039 258.325C35.8039 259.975 35.4789 261.258 34.8289 262.175C34.1622 263.058 33.2456 263.5 32.0789 263.5C30.8456 263.5 29.9039 263.033 29.2539 262.1C28.6372 261.2 28.3289 259.95 28.3289 258.35C28.3289 256.717 28.6456 255.425 29.2789 254.475C29.9122 253.425 30.8372 252.9 32.0539 252.9ZM43.1039 253.175L33.1789 270H31.3789L41.2789 253.175H43.1039ZM32.0539 254.225C31.3539 254.225 30.8289 254.517 30.4789 255.1C30.0622 255.783 29.8539 256.867 29.8539 258.35C29.8539 259.433 29.9706 260.275 30.2039 260.875C30.5539 261.742 31.1706 262.175 32.0539 262.175C32.8872 262.175 33.4956 261.767 33.8789 260.95C34.1622 260.3 34.3039 259.433 34.3039 258.35C34.3039 256.833 34.0622 255.725 33.5789 255.025C33.2122 254.492 32.7039 254.225 32.0539 254.225ZM42.1789 259.625C43.3456 259.625 44.2622 260.117 44.9289 261.1C45.5956 262.117 45.9289 263.433 45.9289 265.05C45.9289 266.683 45.6039 267.967 44.9539 268.9C44.2872 269.783 43.3706 270.225 42.2039 270.225C40.9706 270.225 40.0289 269.758 39.3789 268.825C38.7622 267.925 38.4539 266.675 38.4539 265.075C38.4539 263.425 38.7706 262.125 39.4039 261.175C40.0372 260.142 40.9622 259.625 42.1789 259.625ZM42.1789 260.95C41.4789 260.95 40.9539 261.242 40.6039 261.825C40.1872 262.508 39.9789 263.592 39.9789 265.075C39.9789 266.158 40.1039 267 40.3539 267.6C40.6872 268.467 41.2956 268.9 42.1789 268.9C43.0122 268.9 43.6206 268.492 44.0039 267.675C44.2872 267.025 44.4289 266.158 44.4289 265.075C44.4289 263.558 44.1872 262.45 43.7039 261.75C43.3372 261.217 42.8289 260.95 42.1789 260.95Z" fill="white"/>
<path id="30 %" d="M6.348 221.196C5.32133 221.196 4.49067 221.028 3.856 220.692C3.22133 220.337 2.75467 219.852 2.456 219.236C2.15733 218.601 2.008 217.892 2.008 217.108V215.428H3.828V216.856C3.828 217.808 4.03333 218.555 4.444 219.096C4.87333 219.619 5.508 219.889 6.348 219.908C7.11333 219.908 7.72 219.656 8.168 219.152C8.63467 218.648 8.868 217.967 8.868 217.108V215.568C8.868 214.728 8.59733 214.093 8.056 213.664C7.53333 213.235 6.80533 213.001 5.872 212.964H4.248V211.844H5.9C6.32933 211.844 6.74 211.769 7.132 211.62C7.524 211.452 7.84133 211.219 8.084 210.92C8.32667 210.677 8.49467 210.416 8.588 210.136C8.68133 209.837 8.728 209.52 8.728 209.184V208.204C8.728 207.495 8.54133 206.897 8.168 206.412C7.79467 205.908 7.188 205.656 6.348 205.656C5.48933 205.656 4.87333 205.917 4.5 206.44C4.12667 206.963 3.94 207.635 3.94 208.456V209.436H2.12V208.204C2.12 206.991 2.456 206.048 3.128 205.376C3.81867 204.704 4.892 204.368 6.348 204.368C7.86 204.368 8.94267 204.695 9.596 205.348C10.268 205.983 10.604 206.897 10.604 208.092V208.932C10.604 209.903 10.3613 210.687 9.876 211.284C9.39067 211.863 8.756 212.255 7.972 212.46C8.868 212.609 9.54933 213.001 10.016 213.636C10.4827 214.252 10.716 215.036 10.716 215.988V217.108C10.716 217.929 10.576 218.648 10.296 219.264C10.016 219.88 9.55867 220.356 8.924 220.692C8.28933 221.028 7.43067 221.196 6.348 221.196ZM17.4275 221.336C16.6435 221.336 15.9248 221.159 15.2715 220.804C14.6181 220.449 14.0955 219.899 13.7035 219.152C13.3301 218.387 13.1435 217.407 13.1435 216.212V209.072C13.1435 207.411 13.5635 206.188 14.4035 205.404C15.2435 204.62 16.2701 204.228 17.4835 204.228C18.6968 204.228 19.7048 204.629 20.5075 205.432C21.3288 206.216 21.7395 207.429 21.7395 209.072V216.212C21.7395 217.425 21.5528 218.415 21.1795 219.18C20.8061 219.927 20.2928 220.477 19.6395 220.832C18.9861 221.168 18.2488 221.336 17.4275 221.336ZM17.4555 220.244C18.1835 220.244 18.7808 219.955 19.2475 219.376C19.7328 218.797 19.9755 217.976 19.9755 216.912V208.68C19.9755 207.616 19.7328 206.795 19.2475 206.216C18.7621 205.637 18.1648 205.348 17.4555 205.348C16.7275 205.348 16.1208 205.637 15.6355 206.216C15.1501 206.795 14.9075 207.616 14.9075 208.68V216.912C14.9075 217.976 15.1501 218.797 15.6355 219.376C16.1208 219.955 16.7275 220.244 17.4555 220.244ZM32.382 203.9C33.5487 203.9 34.4654 204.392 35.132 205.375C35.7987 206.392 36.132 207.708 36.132 209.325C36.132 210.975 35.807 212.258 35.157 213.175C34.4904 214.058 33.5737 214.5 32.407 214.5C31.1737 214.5 30.232 214.033 29.582 213.1C28.9654 212.2 28.657 210.95 28.657 209.35C28.657 207.717 28.9737 206.425 29.607 205.475C30.2404 204.425 31.1654 203.9 32.382 203.9ZM43.432 204.175L33.507 221H31.707L41.607 204.175H43.432ZM32.382 205.225C31.682 205.225 31.157 205.517 30.807 206.1C30.3904 206.783 30.182 207.867 30.182 209.35C30.182 210.433 30.2987 211.275 30.532 211.875C30.882 212.742 31.4987 213.175 32.382 213.175C33.2154 213.175 33.8237 212.767 34.207 211.95C34.4904 211.3 34.632 210.433 34.632 209.35C34.632 207.833 34.3904 206.725 33.907 206.025C33.5404 205.492 33.032 205.225 32.382 205.225ZM42.507 210.625C43.6737 210.625 44.5904 211.117 45.257 212.1C45.9237 213.117 46.257 214.433 46.257 216.05C46.257 217.683 45.932 218.967 45.282 219.9C44.6154 220.783 43.6987 221.225 42.532 221.225C41.2987 221.225 40.357 220.758 39.707 219.825C39.0904 218.925 38.782 217.675 38.782 216.075C38.782 214.425 39.0987 213.125 39.732 212.175C40.3654 211.142 41.2904 210.625 42.507 210.625ZM42.507 211.95C41.807 211.95 41.282 212.242 40.932 212.825C40.5154 213.508 40.307 214.592 40.307 216.075C40.307 217.158 40.432 218 40.682 218.6C41.0154 219.467 41.6237 219.9 42.507 219.9C43.3404 219.9 43.9487 219.492 44.332 218.675C44.6154 218.025 44.757 217.158 44.757 216.075C44.757 214.558 44.5154 213.45 44.032 212.75C43.6654 212.217 43.157 211.95 42.507 211.95Z" fill="white"/>
<path id="40 %" d="M7.216 172V168.668H1.42V167.268L7.412 155.452H8.98V167.436H10.632V168.668H8.98V172H7.216ZM2.932 167.436H7.216V158.924L2.932 167.436ZM16.6892 172.336C15.9052 172.336 15.1865 172.159 14.5332 171.804C13.8799 171.449 13.3572 170.899 12.9652 170.152C12.5919 169.387 12.4052 168.407 12.4052 167.212V160.072C12.4052 158.411 12.8252 157.188 13.6652 156.404C14.5052 155.62 15.5319 155.228 16.7452 155.228C17.9585 155.228 18.9665 155.629 19.7692 156.432C20.5905 157.216 21.0012 158.429 21.0012 160.072V167.212C21.0012 168.425 20.8145 169.415 20.4412 170.18C20.0679 170.927 19.5545 171.477 18.9012 171.832C18.2479 172.168 17.5105 172.336 16.6892 172.336ZM16.7172 171.244C17.4452 171.244 18.0425 170.955 18.5092 170.376C18.9945 169.797 19.2372 168.976 19.2372 167.912V159.68C19.2372 158.616 18.9945 157.795 18.5092 157.216C18.0239 156.637 17.4265 156.348 16.7172 156.348C15.9892 156.348 15.3825 156.637 14.8972 157.216C14.4119 157.795 14.1692 158.616 14.1692 159.68V167.912C14.1692 168.976 14.4119 169.797 14.8972 170.376C15.3825 170.955 15.9892 171.244 16.7172 171.244ZM31.6438 154.9C32.8104 154.9 33.7271 155.392 34.3938 156.375C35.0604 157.392 35.3938 158.708 35.3938 160.325C35.3938 161.975 35.0688 163.258 34.4188 164.175C33.7521 165.058 32.8354 165.5 31.6688 165.5C30.4354 165.5 29.4938 165.033 28.8438 164.1C28.2271 163.2 27.9188 161.95 27.9188 160.35C27.9188 158.717 28.2354 157.425 28.8688 156.475C29.5021 155.425 30.4271 154.9 31.6438 154.9ZM42.6938 155.175L32.7688 172H30.9688L40.8688 155.175H42.6938ZM31.6438 156.225C30.9438 156.225 30.4188 156.517 30.0688 157.1C29.6521 157.783 29.4438 158.867 29.4438 160.35C29.4438 161.433 29.5604 162.275 29.7938 162.875C30.1438 163.742 30.7604 164.175 31.6438 164.175C32.4771 164.175 33.0854 163.767 33.4688 162.95C33.7521 162.3 33.8937 161.433 33.8937 160.35C33.8937 158.833 33.6521 157.725 33.1688 157.025C32.8021 156.492 32.2938 156.225 31.6438 156.225ZM41.7688 161.625C42.9354 161.625 43.8521 162.117 44.5188 163.1C45.1854 164.117 45.5188 165.433 45.5188 167.05C45.5188 168.683 45.1938 169.967 44.5438 170.9C43.8771 171.783 42.9604 172.225 41.7938 172.225C40.5604 172.225 39.6188 171.758 38.9688 170.825C38.3521 169.925 38.0438 168.675 38.0438 167.075C38.0438 165.425 38.3604 164.125 38.9938 163.175C39.6271 162.142 40.5521 161.625 41.7688 161.625ZM41.7688 162.95C41.0688 162.95 40.5438 163.242 40.1938 163.825C39.7771 164.508 39.5688 165.592 39.5688 167.075C39.5688 168.158 39.6938 169 39.9438 169.6C40.2771 170.467 40.8854 170.9 41.7688 170.9C42.6021 170.9 43.2104 170.492 43.5938 169.675C43.8771 169.025 44.0188 168.158 44.0188 167.075C44.0188 165.558 43.7771 164.45 43.2938 163.75C42.9271 163.217 42.4188 162.95 41.7688 162.95Z" fill="white"/>
<path id="50 %" d="M6.544 123.224C5.55467 123.224 4.73333 123.103 4.08 122.86C3.44533 122.617 2.96 122.179 2.624 121.544C2.30667 120.891 2.148 119.967 2.148 118.772V117.82H3.94V118.604C3.94 119.799 4.136 120.648 4.528 121.152C4.93867 121.637 5.62 121.88 6.572 121.88C7.468 121.88 8.09333 121.6 8.448 121.04C8.82133 120.461 9.008 119.612 9.008 118.492V116.112C9.008 115.552 8.94267 115.039 8.812 114.572C8.68133 114.105 8.42933 113.732 8.056 113.452C7.70133 113.172 7.17867 113.032 6.488 113.032C5.83467 113.032 5.284 113.209 4.836 113.564C4.388 113.919 4.09867 114.385 3.968 114.964H2.232V106.452H10.352V107.796H3.996V113.256C4.276 112.808 4.668 112.453 5.172 112.192C5.676 111.931 6.30133 111.8 7.048 111.8C8.28 111.8 9.21333 112.089 9.848 112.668C10.5013 113.228 10.828 114.255 10.828 115.748V118.604C10.828 119.873 10.6413 120.844 10.268 121.516C9.91333 122.169 9.40933 122.617 8.756 122.86C8.10267 123.103 7.36533 123.224 6.544 123.224ZM17.5368 123.336C16.7528 123.336 16.0342 123.159 15.3808 122.804C14.7275 122.449 14.2048 121.899 13.8128 121.152C13.4395 120.387 13.2528 119.407 13.2528 118.212V111.072C13.2528 109.411 13.6728 108.188 14.5128 107.404C15.3528 106.62 16.3795 106.228 17.5928 106.228C18.8062 106.228 19.8142 106.629 20.6168 107.432C21.4382 108.216 21.8488 109.429 21.8488 111.072V118.212C21.8488 119.425 21.6622 120.415 21.2888 121.18C20.9155 121.927 20.4022 122.477 19.7488 122.832C19.0955 123.168 18.3582 123.336 17.5368 123.336ZM17.5648 122.244C18.2928 122.244 18.8902 121.955 19.3568 121.376C19.8422 120.797 20.0848 119.976 20.0848 118.912V110.68C20.0848 109.616 19.8422 108.795 19.3568 108.216C18.8715 107.637 18.2742 107.348 17.5648 107.348C16.8368 107.348 16.2302 107.637 15.7448 108.216C15.2595 108.795 15.0168 109.616 15.0168 110.68V118.912C15.0168 119.976 15.2595 120.797 15.7448 121.376C16.2302 121.955 16.8368 122.244 17.5648 122.244ZM32.4914 105.9C33.6581 105.9 34.5747 106.392 35.2414 107.375C35.9081 108.392 36.2414 109.708 36.2414 111.325C36.2414 112.975 35.9164 114.258 35.2664 115.175C34.5997 116.058 33.6831 116.5 32.5164 116.5C31.2831 116.5 30.3414 116.033 29.6914 115.1C29.0747 114.2 28.7664 112.95 28.7664 111.35C28.7664 109.717 29.0831 108.425 29.7164 107.475C30.3497 106.425 31.2747 105.9 32.4914 105.9ZM43.5414 106.175L33.6164 123H31.8164L41.7164 106.175H43.5414ZM32.4914 107.225C31.7914 107.225 31.2664 107.517 30.9164 108.1C30.4997 108.783 30.2914 109.867 30.2914 111.35C30.2914 112.433 30.4081 113.275 30.6414 113.875C30.9914 114.742 31.6081 115.175 32.4914 115.175C33.3247 115.175 33.9331 114.767 34.3164 113.95C34.5997 113.3 34.7414 112.433 34.7414 111.35C34.7414 109.833 34.4997 108.725 34.0164 108.025C33.6497 107.492 33.1414 107.225 32.4914 107.225ZM42.6164 112.625C43.7831 112.625 44.6997 113.117 45.3664 114.1C46.0331 115.117 46.3664 116.433 46.3664 118.05C46.3664 119.683 46.0414 120.967 45.3914 121.9C44.7247 122.783 43.8081 123.225 42.6414 123.225C41.4081 123.225 40.4664 122.758 39.8164 121.825C39.1997 120.925 38.8914 119.675 38.8914 118.075C38.8914 116.425 39.2081 115.125 39.8414 114.175C40.4747 113.142 41.3997 112.625 42.6164 112.625ZM42.6164 113.95C41.9164 113.95 41.3914 114.242 41.0414 114.825C40.6247 115.508 40.4164 116.592 40.4164 118.075C40.4164 119.158 40.5414 120 40.7914 120.6C41.1247 121.467 41.7331 121.9 42.6164 121.9C43.4497 121.9 44.0581 121.492 44.4414 120.675C44.7247 120.025 44.8664 119.158 44.8664 118.075C44.8664 116.558 44.6247 115.45 44.1414 114.75C43.7747 114.217 43.2664 113.95 42.6164 113.95Z" fill="white"/>
<path id="60 %" d="M5.572 74.252C4.564 74.252 3.74267 74.0747 3.108 73.72C2.47333 73.3653 2.00667 72.8613 1.708 72.208C1.428 71.5547 1.288 70.7987 1.288 69.94V61.4C1.288 60.0933 1.68 59.0947 2.464 58.404C3.26667 57.7133 4.32133 57.368 5.628 57.368C6.93467 57.368 7.94267 57.6853 8.652 58.32C9.38 58.9547 9.744 59.944 9.744 61.288V62.352H8.008V61.064C8.008 60.1867 7.80267 59.552 7.392 59.16C6.98133 58.7493 6.39333 58.544 5.628 58.544C4.844 58.544 4.21867 58.796 3.752 59.3C3.304 59.7853 3.08 60.4013 3.08 61.148V65.264C3.416 64.7787 3.85467 64.4053 4.396 64.144C4.956 63.864 5.572 63.724 6.244 63.724C7.27067 63.724 8.13867 64.0413 8.848 64.676C9.55733 65.292 9.912 66.1507 9.912 67.252V70.108C9.912 70.892 9.75333 71.6013 9.436 72.236C9.13733 72.8707 8.67067 73.3653 8.036 73.72C7.42 74.0747 6.59867 74.252 5.572 74.252ZM5.6 73.132C6.34667 73.132 6.95333 72.908 7.42 72.46C7.90533 71.9933 8.148 71.284 8.148 70.332V67.476C8.148 66.6173 7.896 65.9827 7.392 65.572C6.90667 65.1613 6.3 64.9467 5.572 64.928C4.88133 64.928 4.29333 65.1333 3.808 65.544C3.34133 65.9547 3.09867 66.524 3.08 67.252V70.332C3.08 71.2467 3.304 71.9373 3.752 72.404C4.2 72.8707 4.816 73.1133 5.6 73.132ZM16.7283 74.336C15.9443 74.336 15.2256 74.1587 14.5723 73.804C13.9189 73.4493 13.3963 72.8987 13.0042 72.152C12.6309 71.3867 12.4443 70.4067 12.4443 69.212V62.072C12.4443 60.4107 12.8643 59.188 13.7043 58.404C14.5443 57.62 15.5709 57.228 16.7843 57.228C17.9976 57.228 19.0056 57.6293 19.8083 58.432C20.6296 59.216 21.0403 60.4293 21.0403 62.072V69.212C21.0403 70.4253 20.8536 71.4147 20.4803 72.18C20.1069 72.9267 19.5936 73.4773 18.9403 73.832C18.2869 74.168 17.5496 74.336 16.7283 74.336ZM16.7563 73.244C17.4843 73.244 18.0816 72.9547 18.5482 72.376C19.0336 71.7973 19.2763 70.976 19.2763 69.912V61.68C19.2763 60.616 19.0336 59.7947 18.5482 59.216C18.0629 58.6373 17.4656 58.348 16.7563 58.348C16.0283 58.348 15.4216 58.6373 14.9363 59.216C14.4509 59.7947 14.2083 60.616 14.2083 61.68V69.912C14.2083 70.976 14.4509 71.7973 14.9363 72.376C15.4216 72.9547 16.0283 73.244 16.7563 73.244ZM31.6828 56.9C32.8495 56.9 33.7661 57.3917 34.4328 58.375C35.0995 59.3917 35.4328 60.7083 35.4328 62.325C35.4328 63.975 35.1078 65.2583 34.4578 66.175C33.7911 67.0583 32.8745 67.5 31.7078 67.5C30.4745 67.5 29.5328 67.0333 28.8828 66.1C28.2661 65.2 27.9578 63.95 27.9578 62.35C27.9578 60.7167 28.2745 59.425 28.9078 58.475C29.5411 57.425 30.4661 56.9 31.6828 56.9ZM42.7328 57.175L32.8078 74H31.0078L40.9078 57.175H42.7328ZM31.6828 58.225C30.9828 58.225 30.4578 58.5167 30.1078 59.1C29.6911 59.7833 29.4828 60.8667 29.4828 62.35C29.4828 63.4333 29.5995 64.275 29.8328 64.875C30.1828 65.7417 30.7995 66.175 31.6828 66.175C32.5161 66.175 33.1245 65.7667 33.5078 64.95C33.7911 64.3 33.9328 63.4333 33.9328 62.35C33.9328 60.8333 33.6911 59.725 33.2078 59.025C32.8411 58.4917 32.3328 58.225 31.6828 58.225ZM41.8078 63.625C42.9745 63.625 43.8911 64.1167 44.5578 65.1C45.2245 66.1167 45.5578 67.4333 45.5578 69.05C45.5578 70.6833 45.2328 71.9667 44.5828 72.9C43.9161 73.7833 42.9995 74.225 41.8328 74.225C40.5995 74.225 39.6578 73.7583 39.0078 72.825C38.3911 71.925 38.0828 70.675 38.0828 69.075C38.0828 67.425 38.3995 66.125 39.0328 65.175C39.6661 64.1417 40.5911 63.625 41.8078 63.625ZM41.8078 64.95C41.1078 64.95 40.5828 65.2417 40.2328 65.825C39.8161 66.5083 39.6078 67.5917 39.6078 69.075C39.6078 70.1583 39.7328 71 39.9828 71.6C40.3161 72.4667 40.9245 72.9 41.8078 72.9C42.6411 72.9 43.2495 72.4917 43.6328 71.675C43.9161 71.025 44.0578 70.1583 44.0578 69.075C44.0578 67.5583 43.8161 66.45 43.3328 65.75C42.9661 65.2167 42.4578 64.95 41.8078 64.95Z" fill="white"/>
<path id="70 %" d="M3.372 25L7.964 9.768H2.364L2.336 8.452H9.7V9.824L5.136 25H3.372ZM15.9392 25.336C15.1552 25.336 14.4365 25.1587 13.7832 24.804C13.1299 24.4493 12.6072 23.8987 12.2152 23.152C11.8419 22.3867 11.6552 21.4067 11.6552 20.212V13.072C11.6552 11.4107 12.0752 10.188 12.9152 9.404C13.7552 8.62 14.7819 8.228 15.9952 8.228C17.2085 8.228 18.2165 8.62933 19.0192 9.432C19.8405 10.216 20.2512 11.4293 20.2512 13.072V20.212C20.2512 21.4253 20.0645 22.4147 19.6912 23.18C19.3179 23.9267 18.8045 24.4773 18.1512 24.832C17.4979 25.168 16.7605 25.336 15.9392 25.336ZM15.9672 24.244C16.6952 24.244 17.2925 23.9547 17.7592 23.376C18.2445 22.7973 18.4872 21.976 18.4872 20.912V12.68C18.4872 11.616 18.2445 10.7947 17.7592 10.216C17.2739 9.63733 16.6765 9.348 15.9672 9.348C15.2392 9.348 14.6325 9.63733 14.1472 10.216C13.6619 10.7947 13.4192 11.616 13.4192 12.68V20.912C13.4192 21.976 13.6619 22.7973 14.1472 23.376C14.6325 23.9547 15.2392 24.244 15.9672 24.244ZM30.8938 7.9C32.0604 7.9 32.9771 8.39167 33.6438 9.375C34.3104 10.3917 34.6438 11.7083 34.6438 13.325C34.6438 14.975 34.3188 16.2583 33.6688 17.175C33.0021 18.0583 32.0854 18.5 30.9188 18.5C29.6854 18.5 28.7438 18.0333 28.0938 17.1C27.4771 16.2 27.1688 14.95 27.1688 13.35C27.1688 11.7167 27.4854 10.425 28.1188 9.475C28.7521 8.425 29.6771 7.9 30.8938 7.9ZM41.9438 8.175L32.0188 25H30.2188L40.1188 8.175H41.9438ZM30.8938 9.225C30.1938 9.225 29.6688 9.51667 29.3188 10.1C28.9021 10.7833 28.6938 11.8667 28.6938 13.35C28.6938 14.4333 28.8104 15.275 29.0438 15.875C29.3938 16.7417 30.0104 17.175 30.8938 17.175C31.7271 17.175 32.3354 16.7667 32.7188 15.95C33.0021 15.3 33.1437 14.4333 33.1437 13.35C33.1437 11.8333 32.9021 10.725 32.4188 10.025C32.0521 9.49167 31.5438 9.225 30.8938 9.225ZM41.0188 14.625C42.1854 14.625 43.1021 15.1167 43.7688 16.1C44.4354 17.1167 44.7688 18.4333 44.7688 20.05C44.7688 21.6833 44.4438 22.9667 43.7938 23.9C43.1271 24.7833 42.2104 25.225 41.0438 25.225C39.8104 25.225 38.8688 24.7583 38.2188 23.825C37.6021 22.925 37.2938 21.675 37.2938 20.075C37.2938 18.425 37.6104 17.125 38.2438 16.175C38.8771 15.1417 39.8021 14.625 41.0188 14.625ZM41.0188 15.95C40.3188 15.95 39.7938 16.2417 39.4438 16.825C39.0271 17.5083 38.8188 18.5917 38.8188 20.075C38.8188 21.1583 38.9438 22 39.1938 22.6C39.5271 23.4667 40.1354 23.9 41.0188 23.9C41.8521 23.9 42.4604 23.4917 42.8438 22.675C43.1271 22.025 43.2688 21.1583 43.2688 20.075C43.2688 18.5583 43.0271 17.45 42.5438 16.75C42.1771 16.2167 41.6688 15.95 41.0188 15.95Z" fill="white"/>
<path id="2000" d="M236.176 403C236.176 402.477 236.176 401.955 236.176 401.432C236.176 400.909 236.176 400.377 236.176 399.836C236.176 398.903 236.307 398.165 236.568 397.624C236.848 397.064 237.249 396.607 237.772 396.252C238.295 395.897 238.929 395.533 239.676 395.16C240.329 394.861 240.871 394.516 241.3 394.124C241.748 393.732 242.093 393.256 242.336 392.696C242.597 392.117 242.728 391.427 242.728 390.624C242.747 389.672 242.56 388.944 242.168 388.44C241.795 387.936 241.179 387.684 240.32 387.684C239.555 387.684 238.957 387.927 238.528 388.412C238.117 388.897 237.912 389.644 237.912 390.652V392.024H236.148V390.288C236.148 388.963 236.512 387.983 237.24 387.348C237.968 386.695 239.004 386.368 240.348 386.368C241.393 386.368 242.224 386.527 242.84 386.844C243.456 387.161 243.895 387.647 244.156 388.3C244.436 388.935 244.576 389.747 244.576 390.736C244.576 391.968 244.315 393.023 243.792 393.9C243.288 394.759 242.523 395.459 241.496 396C240.936 396.261 240.413 396.532 239.928 396.812C239.461 397.092 239.06 397.437 238.724 397.848C238.407 398.24 238.22 398.753 238.164 399.388C238.108 399.705 238.061 400.041 238.024 400.396C238.005 400.751 237.996 401.124 237.996 401.516H244.716V403H236.176ZM251.099 403.336C250.315 403.336 249.597 403.159 248.943 402.804C248.29 402.449 247.767 401.899 247.375 401.152C247.002 400.387 246.815 399.407 246.815 398.212V391.072C246.815 389.411 247.235 388.188 248.075 387.404C248.915 386.62 249.942 386.228 251.155 386.228C252.369 386.228 253.377 386.629 254.179 387.432C255.001 388.216 255.411 389.429 255.411 391.072V398.212C255.411 399.425 255.225 400.415 254.851 401.18C254.478 401.927 253.965 402.477 253.311 402.832C252.658 403.168 251.921 403.336 251.099 403.336ZM251.127 402.244C251.855 402.244 252.453 401.955 252.919 401.376C253.405 400.797 253.647 399.976 253.647 398.912V390.68C253.647 389.616 253.405 388.795 252.919 388.216C252.434 387.637 251.837 387.348 251.127 387.348C250.399 387.348 249.793 387.637 249.307 388.216C248.822 388.795 248.579 389.616 248.579 390.68V398.912C248.579 399.976 248.822 400.797 249.307 401.376C249.793 401.955 250.399 402.244 251.127 402.244ZM262.283 403.336C261.499 403.336 260.78 403.159 260.127 402.804C259.474 402.449 258.951 401.899 258.559 401.152C258.186 400.387 257.999 399.407 257.999 398.212V391.072C257.999 389.411 258.419 388.188 259.259 387.404C260.099 386.62 261.126 386.228 262.339 386.228C263.552 386.228 264.56 386.629 265.363 387.432C266.184 388.216 266.595 389.429 266.595 391.072V398.212C266.595 399.425 266.408 400.415 266.035 401.18C265.662 401.927 265.148 402.477 264.495 402.832C263.842 403.168 263.104 403.336 262.283 403.336ZM262.311 402.244C263.039 402.244 263.636 401.955 264.103 401.376C264.588 400.797 264.831 399.976 264.831 398.912V390.68C264.831 389.616 264.588 388.795 264.103 388.216C263.618 387.637 263.02 387.348 262.311 387.348C261.583 387.348 260.976 387.637 260.491 388.216C260.006 388.795 259.763 389.616 259.763 390.68V398.912C259.763 399.976 260.006 400.797 260.491 401.376C260.976 401.955 261.583 402.244 262.311 402.244ZM273.467 403.336C272.683 403.336 271.964 403.159 271.311 402.804C270.657 402.449 270.135 401.899 269.743 401.152C269.369 400.387 269.183 399.407 269.183 398.212V391.072C269.183 389.411 269.603 388.188 270.443 387.404C271.283 386.62 272.309 386.228 273.523 386.228C274.736 386.228 275.744 386.629 276.547 387.432C277.368 388.216 277.779 389.429 277.779 391.072V398.212C277.779 399.425 277.592 400.415 277.219 401.18C276.845 401.927 276.332 402.477 275.679 402.832C275.025 403.168 274.288 403.336 273.467 403.336ZM273.495 402.244C274.223 402.244 274.82 401.955 275.287 401.376C275.772 400.797 276.015 399.976 276.015 398.912V390.68C276.015 389.616 275.772 388.795 275.287 388.216C274.801 387.637 274.204 387.348 273.495 387.348C272.767 387.348 272.16 387.637 271.675 388.216C271.189 388.795 270.947 389.616 270.947 390.68V398.912C270.947 399.976 271.189 400.797 271.675 401.376C272.16 401.955 272.767 402.244 273.495 402.244Z" fill="white"/>
<path id="2007" d="M432.176 403C432.176 402.477 432.176 401.955 432.176 401.432C432.176 400.909 432.176 400.377 432.176 399.836C432.176 398.903 432.307 398.165 432.568 397.624C432.848 397.064 433.249 396.607 433.772 396.252C434.295 395.897 434.929 395.533 435.676 395.16C436.329 394.861 436.871 394.516 437.3 394.124C437.748 393.732 438.093 393.256 438.336 392.696C438.597 392.117 438.728 391.427 438.728 390.624C438.747 389.672 438.56 388.944 438.168 388.44C437.795 387.936 437.179 387.684 436.32 387.684C435.555 387.684 434.957 387.927 434.528 388.412C434.117 388.897 433.912 389.644 433.912 390.652V392.024H432.148V390.288C432.148 388.963 432.512 387.983 433.24 387.348C433.968 386.695 435.004 386.368 436.348 386.368C437.393 386.368 438.224 386.527 438.84 386.844C439.456 387.161 439.895 387.647 440.156 388.3C440.436 388.935 440.576 389.747 440.576 390.736C440.576 391.968 440.315 393.023 439.792 393.9C439.288 394.759 438.523 395.459 437.496 396C436.936 396.261 436.413 396.532 435.928 396.812C435.461 397.092 435.06 397.437 434.724 397.848C434.407 398.24 434.22 398.753 434.164 399.388C434.108 399.705 434.061 400.041 434.024 400.396C434.005 400.751 433.996 401.124 433.996 401.516H440.716V403H432.176ZM447.099 403.336C446.315 403.336 445.597 403.159 444.943 402.804C444.29 402.449 443.767 401.899 443.375 401.152C443.002 400.387 442.815 399.407 442.815 398.212V391.072C442.815 389.411 443.235 388.188 444.075 387.404C444.915 386.62 445.942 386.228 447.155 386.228C448.369 386.228 449.377 386.629 450.179 387.432C451.001 388.216 451.411 389.429 451.411 391.072V398.212C451.411 399.425 451.225 400.415 450.851 401.18C450.478 401.927 449.965 402.477 449.311 402.832C448.658 403.168 447.921 403.336 447.099 403.336ZM447.127 402.244C447.855 402.244 448.453 401.955 448.919 401.376C449.405 400.797 449.647 399.976 449.647 398.912V390.68C449.647 389.616 449.405 388.795 448.919 388.216C448.434 387.637 447.837 387.348 447.127 387.348C446.399 387.348 445.793 387.637 445.307 388.216C444.822 388.795 444.579 389.616 444.579 390.68V398.912C444.579 399.976 444.822 400.797 445.307 401.376C445.793 401.955 446.399 402.244 447.127 402.244ZM458.283 403.336C457.499 403.336 456.78 403.159 456.127 402.804C455.474 402.449 454.951 401.899 454.559 401.152C454.186 400.387 453.999 399.407 453.999 398.212V391.072C453.999 389.411 454.419 388.188 455.259 387.404C456.099 386.62 457.126 386.228 458.339 386.228C459.552 386.228 460.56 386.629 461.363 387.432C462.184 388.216 462.595 389.429 462.595 391.072V398.212C462.595 399.425 462.408 400.415 462.035 401.18C461.662 401.927 461.148 402.477 460.495 402.832C459.842 403.168 459.104 403.336 458.283 403.336ZM458.311 402.244C459.039 402.244 459.636 401.955 460.103 401.376C460.588 400.797 460.831 399.976 460.831 398.912V390.68C460.831 389.616 460.588 388.795 460.103 388.216C459.618 387.637 459.02 387.348 458.311 387.348C457.583 387.348 456.976 387.637 456.491 388.216C456.006 388.795 455.763 389.616 455.763 390.68V398.912C455.763 399.976 456.006 400.797 456.491 401.376C456.976 401.955 457.583 402.244 458.311 402.244ZM465.267 403L469.859 387.768H464.259L464.231 386.452H471.595V387.824L467.031 403H465.267Z" fill="white"/>
<path id="2014" d="M625.176 403C625.176 402.477 625.176 401.955 625.176 401.432C625.176 400.909 625.176 400.377 625.176 399.836C625.176 398.903 625.307 398.165 625.568 397.624C625.848 397.064 626.249 396.607 626.772 396.252C627.295 395.897 627.929 395.533 628.676 395.16C629.329 394.861 629.871 394.516 630.3 394.124C630.748 393.732 631.093 393.256 631.336 392.696C631.597 392.117 631.728 391.427 631.728 390.624C631.747 389.672 631.56 388.944 631.168 388.44C630.795 387.936 630.179 387.684 629.32 387.684C628.555 387.684 627.957 387.927 627.528 388.412C627.117 388.897 626.912 389.644 626.912 390.652V392.024H625.148V390.288C625.148 388.963 625.512 387.983 626.24 387.348C626.968 386.695 628.004 386.368 629.348 386.368C630.393 386.368 631.224 386.527 631.84 386.844C632.456 387.161 632.895 387.647 633.156 388.3C633.436 388.935 633.576 389.747 633.576 390.736C633.576 391.968 633.315 393.023 632.792 393.9C632.288 394.759 631.523 395.459 630.496 396C629.936 396.261 629.413 396.532 628.928 396.812C628.461 397.092 628.06 397.437 627.724 397.848C627.407 398.24 627.22 398.753 627.164 399.388C627.108 399.705 627.061 400.041 627.024 400.396C627.005 400.751 626.996 401.124 626.996 401.516H633.716V403H625.176ZM640.099 403.336C639.315 403.336 638.597 403.159 637.943 402.804C637.29 402.449 636.767 401.899 636.375 401.152C636.002 400.387 635.815 399.407 635.815 398.212V391.072C635.815 389.411 636.235 388.188 637.075 387.404C637.915 386.62 638.942 386.228 640.155 386.228C641.369 386.228 642.377 386.629 643.179 387.432C644.001 388.216 644.411 389.429 644.411 391.072V398.212C644.411 399.425 644.225 400.415 643.851 401.18C643.478 401.927 642.965 402.477 642.311 402.832C641.658 403.168 640.921 403.336 640.099 403.336ZM640.127 402.244C640.855 402.244 641.453 401.955 641.919 401.376C642.405 400.797 642.647 399.976 642.647 398.912V390.68C642.647 389.616 642.405 388.795 641.919 388.216C641.434 387.637 640.837 387.348 640.127 387.348C639.399 387.348 638.793 387.637 638.307 388.216C637.822 388.795 637.579 389.616 637.579 390.68V398.912C637.579 399.976 637.822 400.797 638.307 401.376C638.793 401.955 639.399 402.244 640.127 402.244ZM648.931 403V388.944H646.271V387.936L647.671 387.908C648.138 387.889 648.474 387.777 648.679 387.572C648.903 387.367 649.08 386.993 649.211 386.452H650.695V403H648.931ZM658.681 403V399.668H652.885V398.268L658.877 386.452H660.445V398.436H662.097V399.668H660.445V403H658.681ZM654.397 398.436H658.681V389.924L654.397 398.436Z" fill="white"/>
<path id="2022" d="M815.176 403C815.176 402.477 815.176 401.955 815.176 401.432C815.176 400.909 815.176 400.377 815.176 399.836C815.176 398.903 815.307 398.165 815.568 397.624C815.848 397.064 816.249 396.607 816.772 396.252C817.295 395.897 817.929 395.533 818.676 395.16C819.329 394.861 819.871 394.516 820.3 394.124C820.748 393.732 821.093 393.256 821.336 392.696C821.597 392.117 821.728 391.427 821.728 390.624C821.747 389.672 821.56 388.944 821.168 388.44C820.795 387.936 820.179 387.684 819.32 387.684C818.555 387.684 817.957 387.927 817.528 388.412C817.117 388.897 816.912 389.644 816.912 390.652V392.024H815.148V390.288C815.148 388.963 815.512 387.983 816.24 387.348C816.968 386.695 818.004 386.368 819.348 386.368C820.393 386.368 821.224 386.527 821.84 386.844C822.456 387.161 822.895 387.647 823.156 388.3C823.436 388.935 823.576 389.747 823.576 390.736C823.576 391.968 823.315 393.023 822.792 393.9C822.288 394.759 821.523 395.459 820.496 396C819.936 396.261 819.413 396.532 818.928 396.812C818.461 397.092 818.06 397.437 817.724 397.848C817.407 398.24 817.22 398.753 817.164 399.388C817.108 399.705 817.061 400.041 817.024 400.396C817.005 400.751 816.996 401.124 816.996 401.516H823.716V403H815.176ZM830.099 403.336C829.315 403.336 828.597 403.159 827.943 402.804C827.29 402.449 826.767 401.899 826.375 401.152C826.002 400.387 825.815 399.407 825.815 398.212V391.072C825.815 389.411 826.235 388.188 827.075 387.404C827.915 386.62 828.942 386.228 830.155 386.228C831.369 386.228 832.377 386.629 833.179 387.432C834.001 388.216 834.411 389.429 834.411 391.072V398.212C834.411 399.425 834.225 400.415 833.851 401.18C833.478 401.927 832.965 402.477 832.311 402.832C831.658 403.168 830.921 403.336 830.099 403.336ZM830.127 402.244C830.855 402.244 831.453 401.955 831.919 401.376C832.405 400.797 832.647 399.976 832.647 398.912V390.68C832.647 389.616 832.405 388.795 831.919 388.216C831.434 387.637 830.837 387.348 830.127 387.348C829.399 387.348 828.793 387.637 828.307 388.216C827.822 388.795 827.579 389.616 827.579 390.68V398.912C827.579 399.976 827.822 400.797 828.307 401.376C828.793 401.955 829.399 402.244 830.127 402.244ZM836.887 403C836.887 402.477 836.887 401.955 836.887 401.432C836.887 400.909 836.887 400.377 836.887 399.836C836.887 398.903 837.018 398.165 837.279 397.624C837.559 397.064 837.96 396.607 838.483 396.252C839.006 395.897 839.64 395.533 840.387 395.16C841.04 394.861 841.582 394.516 842.011 394.124C842.459 393.732 842.804 393.256 843.047 392.696C843.308 392.117 843.439 391.427 843.439 390.624C843.458 389.672 843.271 388.944 842.879 388.44C842.506 387.936 841.89 387.684 841.031 387.684C840.266 387.684 839.668 387.927 839.239 388.412C838.828 388.897 838.623 389.644 838.623 390.652V392.024H836.859V390.288C836.859 388.963 837.223 387.983 837.951 387.348C838.679 386.695 839.715 386.368 841.059 386.368C842.104 386.368 842.935 386.527 843.551 386.844C844.167 387.161 844.606 387.647 844.867 388.3C845.147 388.935 845.287 389.747 845.287 390.736C845.287 391.968 845.026 393.023 844.503 393.9C843.999 394.759 843.234 395.459 842.207 396C841.647 396.261 841.124 396.532 840.639 396.812C840.172 397.092 839.771 397.437 839.435 397.848C839.118 398.24 838.931 398.753 838.875 399.388C838.819 399.705 838.772 400.041 838.735 400.396C838.716 400.751 838.707 401.124 838.707 401.516H845.427V403H836.887ZM847.414 403C847.414 402.477 847.414 401.955 847.414 401.432C847.414 400.909 847.414 400.377 847.414 399.836C847.414 398.903 847.545 398.165 847.806 397.624C848.086 397.064 848.488 396.607 849.01 396.252C849.533 395.897 850.168 395.533 850.914 395.16C851.568 394.861 852.109 394.516 852.538 394.124C852.986 393.732 853.332 393.256 853.574 392.696C853.836 392.117 853.966 391.427 853.966 390.624C853.985 389.672 853.798 388.944 853.406 388.44C853.033 387.936 852.417 387.684 851.558 387.684C850.793 387.684 850.196 387.927 849.766 388.412C849.356 388.897 849.15 389.644 849.15 390.652V392.024H847.386V390.288C847.386 388.963 847.75 387.983 848.478 387.348C849.206 386.695 850.242 386.368 851.586 386.368C852.632 386.368 853.462 386.527 854.078 386.844C854.694 387.161 855.133 387.647 855.394 388.3C855.674 388.935 855.814 389.747 855.814 390.736C855.814 391.968 855.553 393.023 855.03 393.9C854.526 394.759 853.761 395.459 852.734 396C852.174 396.261 851.652 396.532 851.166 396.812C850.7 397.092 850.298 397.437 849.962 397.848C849.645 398.24 849.458 398.753 849.402 399.388C849.346 399.705 849.3 400.041 849.262 400.396C849.244 400.751 849.234 401.124 849.234 401.516H855.954V403H847.414Z" fill="white"/>
<path id="Vector 1" d="M63.5 310.5L258 321.5L451.5 298L644 311L823 124" stroke="url(#paint0_linear_50_75)" stroke-width="3" stroke-linecap="round"/>
<path id="Vector 2" d="M63.5 256H257.5L451.5 249L643 219L823 27.5" stroke="url(#paint1_linear_50_75)" stroke-width="3" stroke-linecap="round"/>
<circle id="Ellipse 6" cx="64" cy="311" r="6" fill="#8FC9FF"/>
<circle id="Ellipse 11" cx="64" cy="256" r="6" fill="#CDA7D7"/>
<circle id="Ellipse 12" cx="258" cy="256" r="6" fill="#CDA7D7"/>
<circle id="Ellipse 13" cx="450" cy="248" r="6" fill="#CDA7D7"/>
<circle id="Ellipse 14" cx="641" cy="219" r="6" fill="#CDA7D7"/>
<circle id="Ellipse 24" cx="823" cy="28" r="6" fill="#CDA7D7"/>
<circle id="Ellipse 7" cx="258" cy="322" r="6" fill="#8FC9FF"/>
<circle id="Ellipse 8" cx="450" cy="298" r="6" fill="#8FC9FF"/>
<circle id="Ellipse 9" cx="641" cy="310" r="6" fill="#8FC9FF"/>
<circle id="Ellipse 23" cx="823" cy="123" r="6" fill="#8FC9FF"/>
<path id="Vector 3" d="M737 476.078L774.846 460L810.76 500L832 479.608" stroke="url(#paint2_linear_50_75)" stroke-width="3" stroke-linecap="round"/>
<path id="Vector 4" d="M585 475.314L619.047 456L653.094 495L679 475.314" stroke="url(#paint3_linear_50_75)" stroke-width="3" stroke-linecap="round"/>
<ellipse id="Ellipse 15" cx="736.5" cy="476" rx="2.5" ry="3" fill="#CDA7D7"/>
<circle id="Ellipse 19" cx="583.5" cy="475.5" r="2.5" fill="#8FC9FF"/>
<circle id="Ellipse 20" cx="618.5" cy="456.5" r="2.5" fill="#8FC9FF"/>
<circle id="Ellipse 21" cx="652.5" cy="495.5" r="2.5" fill="#8FC9FF"/>
<circle id="Ellipse 22" cx="678.5" cy="475.5" r="2.5" fill="#8FC9FF"/>
<path id="Femmes" d="M754.512 535V520.816H760.632V521.896H756.072V526.984H759.72V528.184H756.072V535H754.512ZM764.68 535.216C763.88 535.216 763.232 535.128 762.736 534.952C762.24 534.76 761.88 534.416 761.656 533.92C761.432 533.424 761.32 532.704 761.32 531.76V525.832C761.32 524.712 761.568 523.944 762.064 523.528C762.576 523.112 763.416 522.904 764.584 522.904C765.72 522.904 766.536 523.112 767.032 523.528C767.544 523.944 767.8 524.712 767.8 525.832V528.904H762.808V532.264C762.808 533.032 762.928 533.568 763.168 533.872C763.408 534.16 763.896 534.304 764.632 534.304C765.304 534.304 765.752 534.16 765.976 533.872C766.2 533.584 766.312 533.048 766.312 532.264V530.728H767.8V531.736C767.8 532.664 767.688 533.384 767.464 533.896C767.24 534.392 766.896 534.736 766.432 534.928C765.984 535.12 765.4 535.216 764.68 535.216ZM762.808 528.136H766.312V525.784C766.312 525.112 766.2 524.624 765.976 524.32C765.752 524.016 765.288 523.864 764.584 523.864C763.88 523.864 763.408 524.016 763.168 524.32C762.928 524.624 762.808 525.112 762.808 525.784V528.136ZM769.928 535V523.12H771.176L771.344 524.44C771.52 523.976 771.808 523.608 772.208 523.336C772.624 523.064 773.128 522.928 773.72 522.928C774.648 522.928 775.296 523.12 775.664 523.504C776.048 523.888 776.248 524.448 776.264 525.184L776 525.208C776.16 524.52 776.464 523.968 776.912 523.552C777.376 523.136 777.968 522.928 778.688 522.928C779.68 522.928 780.352 523.16 780.704 523.624C781.072 524.088 781.256 524.8 781.256 525.76V535H779.768V526.024C779.768 525.256 779.648 524.736 779.408 524.464C779.184 524.176 778.792 524.032 778.232 524.032C777.704 524.032 777.264 524.192 776.912 524.512C776.56 524.816 776.368 525.2 776.336 525.664V535H774.848V525.832C774.848 525.176 774.728 524.712 774.488 524.44C774.264 524.168 773.856 524.032 773.264 524.032C772.72 524.032 772.304 524.16 772.016 524.416C771.744 524.672 771.544 524.976 771.416 525.328V535H769.928ZM783.616 535V523.12H784.864L785.032 524.44C785.208 523.976 785.496 523.608 785.896 523.336C786.312 523.064 786.816 522.928 787.408 522.928C788.336 522.928 788.984 523.12 789.352 523.504C789.736 523.888 789.936 524.448 789.952 525.184L789.688 525.208C789.848 524.52 790.152 523.968 790.6 523.552C791.064 523.136 791.656 522.928 792.376 522.928C793.368 522.928 794.04 523.16 794.392 523.624C794.76 524.088 794.944 524.8 794.944 525.76V535H793.456V526.024C793.456 525.256 793.336 524.736 793.096 524.464C792.872 524.176 792.48 524.032 791.92 524.032C791.392 524.032 790.952 524.192 790.6 524.512C790.248 524.816 790.056 525.2 790.024 525.664V535H788.536V525.832C788.536 525.176 788.416 524.712 788.176 524.44C787.952 524.168 787.544 524.032 786.952 524.032C786.408 524.032 785.992 524.16 785.704 524.416C785.432 524.672 785.232 524.976 785.104 525.328V535H783.616ZM800.375 535.216C799.575 535.216 798.927 535.128 798.431 534.952C797.935 534.76 797.575 534.416 797.351 533.92C797.127 533.424 797.015 532.704 797.015 531.76V525.832C797.015 524.712 797.263 523.944 797.759 523.528C798.271 523.112 799.111 522.904 800.279 522.904C801.415 522.904 802.231 523.112 802.727 523.528C803.239 523.944 803.495 524.712 803.495 525.832V528.904H798.503V532.264C798.503 533.032 798.623 533.568 798.863 533.872C799.103 534.16 799.591 534.304 800.327 534.304C800.999 534.304 801.447 534.16 801.671 533.872C801.895 533.584 802.007 533.048 802.007 532.264V530.728H803.495V531.736C803.495 532.664 803.383 533.384 803.159 533.896C802.935 534.392 802.591 534.736 802.127 534.928C801.679 535.12 801.095 535.216 800.375 535.216ZM798.503 528.136H802.007V525.784C802.007 525.112 801.895 524.624 801.671 524.32C801.447 524.016 800.983 523.864 800.279 523.864C799.575 523.864 799.103 524.016 798.863 524.32C798.623 524.624 798.503 525.112 798.503 525.784V528.136ZM808.504 535.168C807.64 535.168 806.968 535.064 806.488 534.856C806.008 534.632 805.672 534.288 805.48 533.824C805.288 533.344 805.192 532.712 805.192 531.928V530.896H806.704V532.264C806.704 533.016 806.832 533.536 807.088 533.824C807.344 534.112 807.808 534.256 808.48 534.256C809.072 534.256 809.504 534.112 809.776 533.824C810.064 533.536 810.208 533.048 810.208 532.36V531.688C810.208 531.32 810.152 531.008 810.04 530.752C809.928 530.48 809.712 530.232 809.392 530.008C809.088 529.784 808.656 529.56 808.096 529.336C807.568 529.128 807.104 528.904 806.704 528.664C806.304 528.424 805.984 528.12 805.744 527.752C805.52 527.384 805.408 526.912 805.408 526.336V525.616C805.408 524.768 805.648 524.112 806.128 523.648C806.624 523.168 807.456 522.928 808.624 522.928C809.392 522.928 810 523.032 810.448 523.24C810.912 523.448 811.248 523.784 811.456 524.248C811.68 524.712 811.792 525.312 811.792 526.048V527.056H810.328V525.904C810.328 525.104 810.192 524.56 809.92 524.272C809.648 523.968 809.216 523.816 808.624 523.816C807.952 523.816 807.496 523.976 807.256 524.296C807.032 524.616 806.92 525.016 806.92 525.496V526.144C806.92 526.592 807.016 526.96 807.208 527.248C807.416 527.536 807.704 527.776 808.072 527.968C808.44 528.16 808.88 528.36 809.392 528.568C809.856 528.76 810.264 528.968 810.616 529.192C810.984 529.4 811.272 529.688 811.48 530.056C811.688 530.424 811.792 530.928 811.792 531.568V532.12C811.792 532.76 811.688 533.312 811.48 533.776C811.288 534.224 810.952 534.568 810.472 534.808C809.992 535.048 809.336 535.168 808.504 535.168Z" fill="white"/>
<path id="Hommes" d="M605.512 535V520.816H607.024V527.008H611.176V520.816H612.664V535H611.176V528.16H607.024V535H605.512ZM618.42 535.168C617.684 535.168 617.068 535.072 616.572 534.88C616.092 534.672 615.732 534.312 615.492 533.8C615.268 533.288 615.156 532.584 615.156 531.688V526.144C615.156 524.992 615.404 524.168 615.9 523.672C616.412 523.176 617.252 522.928 618.42 522.928C619.588 522.928 620.42 523.168 620.916 523.648C621.428 524.128 621.684 524.96 621.684 526.144V531.688C621.684 532.584 621.572 533.288 621.348 533.8C621.124 534.296 620.772 534.648 620.292 534.856C619.812 535.064 619.188 535.168 618.42 535.168ZM618.42 534.232C619.06 534.232 619.516 534.072 619.788 533.752C620.06 533.432 620.196 532.848 620.196 532V526.072C620.196 525.288 620.068 524.728 619.812 524.392C619.556 524.04 619.092 523.864 618.42 523.864C617.796 523.864 617.34 524.032 617.052 524.368C616.78 524.688 616.644 525.256 616.644 526.072V532C616.644 532.832 616.78 533.416 617.052 533.752C617.34 534.072 617.796 534.232 618.42 534.232ZM623.905 535V523.12H625.153L625.321 524.44C625.497 523.976 625.785 523.608 626.185 523.336C626.601 523.064 627.105 522.928 627.697 522.928C628.625 522.928 629.273 523.12 629.641 523.504C630.025 523.888 630.225 524.448 630.241 525.184L629.977 525.208C630.137 524.52 630.441 523.968 630.889 523.552C631.353 523.136 631.945 522.928 632.665 522.928C633.657 522.928 634.329 523.16 634.681 523.624C635.049 524.088 635.233 524.8 635.233 525.76V535H633.745V526.024C633.745 525.256 633.625 524.736 633.385 524.464C633.161 524.176 632.769 524.032 632.209 524.032C631.681 524.032 631.241 524.192 630.889 524.512C630.537 524.816 630.345 525.2 630.313 525.664V535H628.825V525.832C628.825 525.176 628.705 524.712 628.465 524.44C628.241 524.168 627.833 524.032 627.241 524.032C626.697 524.032 626.281 524.16 625.993 524.416C625.721 524.672 625.521 524.976 625.393 525.328V535H623.905ZM637.592 535V523.12H638.84L639.008 524.44C639.184 523.976 639.472 523.608 639.872 523.336C640.288 523.064 640.792 522.928 641.384 522.928C642.312 522.928 642.96 523.12 643.328 523.504C643.712 523.888 643.912 524.448 643.928 525.184L643.664 525.208C643.824 524.52 644.128 523.968 644.576 523.552C645.04 523.136 645.632 522.928 646.352 522.928C647.344 522.928 648.016 523.16 648.368 523.624C648.736 524.088 648.92 524.8 648.92 525.76V535H647.432V526.024C647.432 525.256 647.312 524.736 647.072 524.464C646.848 524.176 646.456 524.032 645.896 524.032C645.368 524.032 644.928 524.192 644.576 524.512C644.224 524.816 644.032 525.2 644 525.664V535H642.512V525.832C642.512 525.176 642.392 524.712 642.152 524.44C641.928 524.168 641.52 524.032 640.928 524.032C640.384 524.032 639.968 524.16 639.68 524.416C639.408 524.672 639.208 524.976 639.08 525.328V535H637.592ZM654.352 535.216C653.552 535.216 652.904 535.128 652.408 534.952C651.912 534.76 651.552 534.416 651.328 533.92C651.104 533.424 650.992 532.704 650.992 531.76V525.832C650.992 524.712 651.24 523.944 651.736 523.528C652.248 523.112 653.088 522.904 654.256 522.904C655.392 522.904 656.208 523.112 656.704 523.528C657.216 523.944 657.472 524.712 657.472 525.832V528.904H652.48V532.264C652.48 533.032 652.6 533.568 652.84 533.872C653.08 534.16 653.568 534.304 654.304 534.304C654.976 534.304 655.424 534.16 655.648 533.872C655.872 533.584 655.984 533.048 655.984 532.264V530.728H657.472V531.736C657.472 532.664 657.36 533.384 657.136 533.896C656.912 534.392 656.568 534.736 656.104 534.928C655.656 535.12 655.072 535.216 654.352 535.216ZM652.48 528.136H655.984V525.784C655.984 525.112 655.872 524.624 655.648 524.32C655.424 524.016 654.96 523.864 654.256 523.864C653.552 523.864 653.08 524.016 652.84 524.32C652.6 524.624 652.48 525.112 652.48 525.784V528.136ZM662.48 535.168C661.616 535.168 660.944 535.064 660.464 534.856C659.984 534.632 659.648 534.288 659.456 533.824C659.264 533.344 659.168 532.712 659.168 531.928V530.896H660.68V532.264C660.68 533.016 660.808 533.536 661.064 533.824C661.32 534.112 661.784 534.256 662.456 534.256C663.048 534.256 663.48 534.112 663.752 533.824C664.04 533.536 664.184 533.048 664.184 532.36V531.688C664.184 531.32 664.128 531.008 664.016 530.752C663.904 530.48 663.688 530.232 663.368 530.008C663.064 529.784 662.632 529.56 662.072 529.336C661.544 529.128 661.08 528.904 660.68 528.664C660.28 528.424 659.96 528.12 659.72 527.752C659.496 527.384 659.384 526.912 659.384 526.336V525.616C659.384 524.768 659.624 524.112 660.104 523.648C660.6 523.168 661.432 522.928 662.6 522.928C663.368 522.928 663.976 523.032 664.424 523.24C664.888 523.448 665.224 523.784 665.432 524.248C665.656 524.712 665.768 525.312 665.768 526.048V527.056H664.304V525.904C664.304 525.104 664.168 524.56 663.896 524.272C663.624 523.968 663.192 523.816 662.6 523.816C661.928 523.816 661.472 523.976 661.232 524.296C661.008 524.616 660.896 525.016 660.896 525.496V526.144C660.896 526.592 660.992 526.96 661.184 527.248C661.392 527.536 661.68 527.776 662.048 527.968C662.416 528.16 662.856 528.36 663.368 528.568C663.832 528.76 664.24 528.968 664.592 529.192C664.96 529.4 665.248 529.688 665.456 530.056C665.664 530.424 665.768 530.928 665.768 531.568V532.12C665.768 532.76 665.664 533.312 665.456 533.776C665.264 534.224 664.928 534.568 664.448 534.808C663.968 535.048 663.312 535.168 662.48 535.168Z" fill="white"/>
<circle id="Ellipse 16" cx="773.5" cy="460.5" r="2.5" fill="#CDA7D7"/>
<ellipse id="Ellipse 17" cx="810" cy="499.5" rx="3" ry="2.5" fill="#CDA7D7"/>
<ellipse id="Ellipse 18" cx="831.5" cy="480" rx="2.5" ry="3" fill="#CDA7D7"/>
</g>
<defs>
<linearGradient id="paint0_linear_50_75" x1="166.5" y1="322" x2="508.5" y2="322" gradientUnits="userSpaceOnUse">
<stop stop-color="#8FC9FF"/>
<stop offset="1" stop-color="#766AFF"/>
</linearGradient>
<linearGradient id="paint1_linear_50_75" x1="166.323" y1="256.787" x2="507.733" y2="256.787" gradientUnits="userSpaceOnUse">
<stop stop-color="#CDA7D7"/>
<stop offset="1" stop-color="#F99893"/>
</linearGradient>
<linearGradient id="paint2_linear_50_75" x1="753.856" y1="500.851" x2="809.825" y2="500.851" gradientUnits="userSpaceOnUse">
<stop stop-color="#CDA7D7"/>
<stop offset="1" stop-color="#FFC0BB"/>
</linearGradient>
<linearGradient id="paint3_linear_50_75" x1="601.679" y1="495.83" x2="657.059" y2="495.83" gradientUnits="userSpaceOnUse">
<stop stop-color="#8FC9FF"/>
<stop offset="1" stop-color="#766AFF"/>
</linearGradient>
</defs>
</svg>
