<svg width="393" height="851" viewBox="0 0 393 851" fill="none" xmlns="http://www.w3.org/2000/svg">
<g id="d&#195;&#169;coration">
<g id="Arc en ciel">
<path id="Ellipse 26" d="M203.14 783.141C203.14 695.802 140.205 625 62.5702 625C-15.0646 625 -78 695.802 -78 783.141" stroke="#CD8FA5" stroke-width="35"/>
<path id="Ellipse 27" d="M189.563 809.498C189.563 719.513 130.024 646.565 56.58 646.565C-16.8643 646.565 -76.4026 719.513 -76.4026 809.498" stroke="#E8CEC5" stroke-width="35"/>
<path id="Ellipse 28" d="M176.783 831.862C176.783 742.317 122.966 669.727 56.5799 669.727C-9.8066 669.727 -63.6235 742.317 -63.6235 831.862" stroke="#D5E8E2" stroke-width="35"/>
<path id="Ellipse 23" d="M513.582 515.979C513.582 441.432 456.368 381 385.791 381C315.214 381 258 441.432 258 515.979" stroke="#C15635" stroke-width="35"/>
<path id="Ellipse 24" d="M529.985 525.999C529.985 458.068 473.128 403 402.992 403C332.856 403 276 458.068 276 525.999" stroke="#D5E8E2" stroke-width="35"/>
<path id="Ellipse 25" d="M535.576 552.356C535.576 483.102 479.256 426.961 409.781 426.961C340.307 426.961 283.987 483.102 283.987 552.356" stroke="#CD8FA5" stroke-width="35"/>
</g>
<g id="Stars">
<g id="Iconsax/Linear/star1" clip-path="url(#clip0_148_207)">
<path id="Vector" d="M241.329 99.7175L246.054 105.665C246.702 106.495 248.098 107.128 249.154 107.083L255.39 106.814C259.378 106.644 260.874 109.248 258.679 112.591L254.982 118.262C254.356 119.223 254.244 120.844 254.72 121.888L257.283 127.403C259.308 131.77 257.246 134.059 252.68 132.516L246.328 130.363C245.181 129.974 243.5 130.328 242.589 131.151L237.646 135.685C234.11 138.935 231.276 137.658 231.371 132.865L231.49 126.784C231.504 125.637 230.747 124.198 229.787 123.572L224.116 119.876C220.777 117.699 221.076 114.717 224.793 113.263L230.607 110.992C231.572 110.611 232.594 109.469 232.852 108.448L234.775 101.099C235.828 97.1093 238.774 96.4883 241.329 99.7175V99.7175Z" stroke="#F99893" stroke-width="4" stroke-linecap="round" stroke-linejoin="round"/>
</g>
<g id="Iconsax/Linear/star1_2" clip-path="url(#clip1_148_207)">
<path id="Vector_2" d="M70.9903 316.347L64.7849 320.728C63.9197 321.328 63.2088 322.686 63.1939 323.743L63.1095 329.984C63.0535 333.975 60.3689 335.321 57.1558 332.94L51.7029 328.929C50.7794 328.249 49.167 328.046 48.098 328.462L42.4462 330.709C37.972 332.484 35.8035 330.295 37.6022 325.824L40.1108 319.604C40.5645 318.481 40.3059 316.782 39.5355 315.826L35.2892 310.635C32.244 306.92 33.679 304.164 38.4595 304.529L44.524 304.992C45.6685 305.071 47.1473 304.397 47.8267 303.474L51.8383 298.021C54.2 294.81 57.1607 295.277 58.4023 299.071L60.3405 305.004C60.6663 305.989 61.7491 307.074 62.7538 307.39L69.982 309.725C73.9056 311.002 74.3589 313.979 70.9903 316.347V316.347Z" stroke="#F99893" stroke-width="4" stroke-linecap="round" stroke-linejoin="round"/>
</g>
<g id="Iconsax/Linear/star1_3" clip-path="url(#clip2_148_207)">
<path id="Vector_3" d="M421.284 665.17L417.202 671.576C416.629 672.46 416.486 673.986 416.873 674.969L419.161 680.776C420.622 684.491 418.648 686.754 414.772 685.769L408.206 684.124C407.094 683.846 405.524 684.269 404.693 685.059L400.315 689.281C396.847 692.619 394.011 691.416 393.98 686.597L393.944 679.89C393.938 678.679 393.055 677.205 391.979 676.612L386.082 673.418C381.856 671.135 382.139 668.04 386.701 666.566L392.488 664.696C393.577 664.335 394.69 663.151 394.969 662.039L396.614 655.472C397.582 651.606 400.499 650.916 403.086 653.956L407.129 658.711C407.804 659.499 409.217 660.092 410.266 660.004L417.84 659.425C421.955 659.119 423.503 661.702 421.284 665.17V665.17Z" stroke="#F99893" stroke-width="4" stroke-linecap="round" stroke-linejoin="round"/>
</g>
<g id="Iconsax/Linear/star1_4" clip-path="url(#clip3_148_207)">
<path id="Vector_4" d="M120.273 511.793L117.502 516.141C117.113 516.741 117.016 517.777 117.279 518.444L118.832 522.386C119.824 524.907 118.484 526.444 115.853 525.775L111.396 524.658C110.641 524.469 109.576 524.756 109.012 525.293L106.04 528.159C103.687 530.424 101.761 529.608 101.74 526.337L101.716 521.784C101.712 520.962 101.112 519.962 100.382 519.559L96.3794 517.392C93.511 515.842 93.703 513.741 96.7996 512.741L100.728 511.471C101.467 511.227 102.222 510.423 102.411 509.668L103.528 505.211C104.185 502.587 106.165 502.118 107.921 504.181L110.665 507.409C111.123 507.944 112.082 508.347 112.795 508.286L117.936 507.893C120.728 507.686 121.779 509.439 120.273 511.793V511.793Z" stroke="#F99893" stroke-width="4" stroke-linecap="round" stroke-linejoin="round"/>
</g>
<g id="Iconsax/Linear/star1_5" clip-path="url(#clip4_148_207)">
<path id="Vector_5" d="M361.273 241.793L358.502 246.141C358.113 246.741 358.016 247.777 358.279 248.444L359.832 252.386C360.824 254.907 359.484 256.444 356.853 255.775L352.396 254.658C351.641 254.469 350.576 254.756 350.012 255.293L347.04 258.159C344.687 260.424 342.761 259.608 342.74 256.337L342.716 251.784C342.712 250.962 342.112 249.962 341.382 249.559L337.379 247.392C334.511 245.842 334.703 243.741 337.8 242.741L341.728 241.471C342.467 241.227 343.222 240.423 343.411 239.668L344.528 235.211C345.185 232.587 347.165 232.118 348.921 234.181L351.665 237.409C352.123 237.944 353.082 238.347 353.795 238.286L358.936 237.893C361.728 237.686 362.779 239.439 361.273 241.793V241.793Z" stroke="#F99893" stroke-width="4" stroke-linecap="round" stroke-linejoin="round"/>
</g>
</g>
<g id="Nuages">
<path id="Vector_6" d="M216.69 46.3618C215.595 46.3618 214.57 46.5947 213.661 47.014C214.15 45.5231 214.407 43.9157 214.407 42.2385C214.407 33.7357 207.511 26.8636 199.032 26.8636C195.84 26.8636 192.905 27.8187 190.436 29.496C188.153 26.7471 184.705 25 180.862 25C175.76 25 171.38 28.075 169.447 32.4545C167.676 31.4528 165.626 30.8704 163.46 30.8704C156.728 30.8704 151.277 36.3215 151.277 43.0538C151.277 43.7294 151.323 44.3817 151.44 45.0339C150.275 44.4515 148.994 44.1254 147.596 44.1254C142.844 44.1254 139 47.9691 139 52.7213C139 57.4736 142.844 61.3173 147.596 61.3173C149.064 61.3173 150.438 60.9446 151.626 60.3156C153.117 66.9082 159.011 71.8467 166.046 71.8467C169.33 71.8467 172.359 70.7752 174.805 68.9814C177.414 72.9882 181.933 75.6439 187.058 75.6439C194.163 75.6439 200.08 70.5655 201.408 63.8565C202.713 65.0212 204.413 65.7434 206.3 65.7434C209.701 65.7434 212.566 63.4139 213.382 60.2457C214.36 60.7349 215.478 61.0145 216.643 61.0145C220.673 61.0145 223.958 57.7298 223.958 53.6998C223.958 49.6697 220.673 46.385 216.643 46.385L216.69 46.3618Z" fill="#FFDED2"/>
<path id="Vector_7" d="M131.929 194.877C133.472 192.164 134.397 188.958 134.397 185.629C134.397 175.333 126.068 167.01 115.764 167.01C113.913 167.01 112.123 167.257 110.457 167.812C110.704 166.147 110.828 164.483 110.828 162.757C110.828 148.269 102.498 135.692 90.4046 129.588C92.0705 126.013 92.996 121.944 92.996 117.751C92.996 102.154 80.3473 89.4537 64.6754 89.4537C53.2607 89.4537 43.4503 96.1737 38.9462 105.915C35.059 102.031 29.6294 99.5645 23.6444 99.5645C13.7723 99.5645 5.44269 106.223 2.85126 115.285C0.198126 114.792 -2.57838 114.484 -5.41662 114.484C-29.1714 114.484 -48.422 133.719 -48.422 157.455C-48.422 160.599 -48.0518 163.681 -47.4348 166.641C-48.6072 166.394 -49.8411 166.271 -51.0752 166.271C-61.5643 166.271 -70.079 174.778 -70.079 185.259C-70.079 187.725 -69.5854 190.068 -68.7833 192.226C-69.2152 192.226 -69.6471 192.164 -70.079 192.164C-76.1257 192.164 -81 197.034 -81 203.076C-81 209.118 -76.1257 214.05 -70.079 214.05H124.525C130.572 214.05 135.446 209.18 135.446 203.076C135.446 199.87 134.027 196.973 131.806 194.938L131.929 194.877Z" fill="#FFDED2"/>
<path id="Vector_8" d="M38.1582 108.989C39.1058 107.454 39.6939 105.625 39.6939 103.665C39.6939 98.113 35.185 93.6383 29.6633 93.6383C27.0494 93.6383 24.697 94.6182 22.9 96.2513C20.4168 92.2012 15.908 89.4903 10.811 89.4903C7.96843 89.4903 5.32192 90.3395 3.10016 91.7766C1.79324 79.6917 -8.46606 70.2852 -20.9145 70.2852C-29.5728 70.2852 -37.1856 74.8578 -41.4657 81.7168C-43.3608 80.7696 -45.5172 80.247 -47.8043 80.247C-55.6458 80.247 -61.9843 86.616 -61.9843 94.4222C-61.9843 96.8065 -61.3962 99.0602 -60.3507 101.02C-60.8735 100.987 -61.4289 100.955 -61.9843 100.955C-72.4724 100.955 -81 109.479 -81 119.964C-81 130.448 -72.4724 138.973 -61.9843 138.973H34.7929C43.1899 138.973 49.9859 132.179 49.9859 123.785C49.9859 116.567 44.9215 110.524 38.1582 108.989V108.989Z" fill="white"/>
<path id="Vector_9" d="M391.784 551.976C389.651 551.976 387.687 552.536 385.947 553.6C384.713 543.912 376.463 536.408 366.418 536.408C364.735 536.408 363.164 536.632 361.592 537.024C360.414 531.424 355.476 527.224 349.527 527.224C346.833 527.224 344.364 528.064 342.344 529.52C339.145 518.488 328.988 510.424 316.923 510.424C315.071 510.424 313.275 510.592 311.536 510.984C305.138 495.696 290.043 485 272.422 485C249.021 485 230.053 503.928 230.053 527.28C230.053 530.752 230.446 534.112 231.232 537.304C227.752 535.12 223.656 533.832 219.279 533.832C206.989 533.832 197 543.8 197 556.064C197 568.328 206.989 578.296 219.279 578.296C221.018 578.296 222.702 578.072 224.273 577.736C223.88 578.52 223.656 579.36 223.487 580.256C222.814 584.904 226.069 589.272 230.727 589.944C233.14 590.28 235.497 589.608 237.292 588.152C240.659 596.048 247.898 602.04 257.046 603.384C263.667 604.336 270.121 602.656 275.228 599.072C275.901 608.592 283.14 616.768 293.017 618.168C303.174 619.624 312.714 613.52 315.801 604.112C320.122 607.472 325.341 609.824 331.177 610.664C349.078 613.24 365.689 600.864 368.326 583C368.326 582.72 368.383 582.44 368.439 582.16C370.178 584.624 372.872 586.416 376.071 586.864C382.244 587.76 388.024 583.504 388.922 577.288C389.09 576.224 389.09 575.216 388.922 574.208C389.819 574.432 390.717 574.544 391.727 574.544C397.956 574.544 403.063 569.504 403.063 563.232C403.063 556.96 398.013 551.92 391.727 551.92L391.784 551.976Z" fill="white"/>
<path id="Vector_10" d="M113.7 801.19C113.7 801.19 113.521 801.19 113.402 801.19C113.581 800.057 113.7 798.864 113.7 797.671C113.7 786.043 104.265 776.62 92.6193 776.62C87.3639 776.62 82.5266 778.529 78.824 781.749C75.8977 760.459 57.5638 744 35.4078 744C17.6113 744 2.26329 754.615 -4.60448 769.882C-11.8306 770.597 -18.34 773.877 -23.1176 778.827C-27.1785 775.249 -32.4936 773.042 -38.3461 773.042C-51.0067 773.042 -61.2188 783.299 -61.2188 795.882C-61.2188 798.983 -60.6215 801.965 -59.4869 804.649C-60.0841 804.589 -60.6216 804.529 -61.2188 804.529C-70.4753 804.529 -78 812.043 -78 821.287C-78 830.53 -70.4753 838.044 -61.2188 838.044C-59.7855 838.044 -58.4119 837.865 -57.1578 837.567C-56.0231 849.017 -46.3485 857.903 -34.6435 857.903C-27.7757 857.903 -21.6246 854.802 -17.4442 849.971C-13.8013 854.742 -8.06823 857.843 -1.6185 857.843C-0.7227 857.843 0.173123 857.783 1.06892 857.664C3.81603 871.619 16.178 882.174 30.9885 882.174C47.1128 882.174 60.3109 869.71 61.3858 853.907C64.4913 855.219 67.955 855.935 71.5382 855.935C86.1695 855.935 97.994 844.127 97.994 829.516C97.994 828.383 97.9343 827.31 97.7552 826.237C100.562 832.2 106.653 836.315 113.7 836.315C123.435 836.315 131.258 828.443 131.258 818.782C131.258 809.121 123.375 801.249 113.7 801.249V801.19Z" fill="#FFDED2"/>
<path id="Vector_11" d="M461.809 654.284C465.932 650.91 468.556 645.768 468.556 640.038C468.556 629.915 460.31 621.667 450.19 621.667C449.387 621.667 448.637 621.721 447.887 621.828C448.316 620.007 448.583 618.079 448.583 616.097C448.583 602.868 437.874 592.156 424.648 592.156C420.686 592.156 416.991 593.12 413.671 594.834C405.961 579.891 390.379 569.661 372.441 569.661C352.308 569.661 335.173 582.516 328.747 600.458C323.607 596.066 316.914 593.388 309.631 593.388C293.353 593.388 280.128 606.617 280.128 622.899C280.128 624.184 280.235 625.416 280.395 626.648C279.378 626.487 278.361 626.38 277.343 626.38C267.384 626.38 259.298 634.468 259.298 644.429C259.298 654.391 267.384 662.479 277.343 662.479C279.431 662.479 281.466 662.104 283.394 661.461C284.84 670.191 292.443 676.886 301.599 676.886C306.419 676.886 310.756 675.065 314.076 672.066C318.092 684.706 329.979 693.918 343.954 693.918C352.682 693.918 360.554 690.329 366.23 684.599C369.389 690.169 375.386 693.918 382.293 693.918C387.809 693.918 392.788 691.508 396.162 687.651C401.891 693.65 409.923 697.453 418.919 697.453C435.679 697.453 449.387 684.277 450.243 667.728C451.903 670.138 454.688 671.744 457.847 671.744C462.934 671.744 467.003 667.62 467.003 662.532C467.003 658.89 464.915 655.784 461.863 654.284H461.809Z" fill="#FFDED2"/>
<path id="Vector_12" d="M231.485 798.127C229.372 798.127 227.35 798.485 225.507 799.158C225.507 798.62 225.597 798.082 225.597 797.499C225.597 785.486 215.843 775.76 203.796 775.76C197.234 775.76 191.301 778.673 187.345 783.29C181.547 774.101 171.253 767.961 159.566 767.961C145.408 767.961 133.316 776.925 128.731 789.476C126.169 788.49 123.382 787.952 120.461 787.952C107.875 787.952 97.6716 798.127 97.6716 810.677C97.6716 811.529 97.7166 812.38 97.8065 813.187C97.7615 813.187 97.7166 813.187 97.6716 813.187C88.0076 813.187 80.1415 820.986 80.1415 830.668C80.1415 840.35 87.9626 848.149 97.6716 848.149C102.256 848.149 106.392 846.401 109.493 843.577C109.493 843.801 109.493 844.025 109.493 844.249C109.493 858.055 120.686 869.216 134.53 869.216C143.52 869.216 151.431 864.465 155.836 857.383C161.994 869.709 174.804 878.18 189.548 878.18C210.359 878.18 227.215 861.372 227.215 840.619C227.215 838.019 226.945 835.509 226.451 833.089C228.069 833.582 229.777 833.851 231.575 833.851C241.464 833.851 249.465 825.872 249.465 816.011C249.465 806.15 241.464 798.171 231.575 798.171L231.485 798.127Z" fill="white"/>
</g>
<path id="Vector_13" d="M399.063 352.137C397.525 352.137 396.104 352.65 394.963 353.535C393.845 347.618 388.65 343.145 382.407 343.145C382.314 343.145 382.244 343.145 382.15 343.145C380.613 333.431 372.18 326 362.047 326C351.913 326 343.69 333.245 341.989 342.796C339.637 340.094 336.189 338.393 332.322 338.393C325.263 338.393 319.533 344.124 319.533 351.182C319.533 351.275 319.533 351.369 319.533 351.462C318.787 351.275 317.995 351.182 317.203 351.182C311.566 351.182 307 355.748 307 361.385C307 367.023 311.566 371.589 317.203 371.589C319.346 371.589 321.35 370.913 322.981 369.795C324.355 375.735 329.666 380.185 336.049 380.185C340.196 380.185 343.9 378.298 346.369 375.339C348.792 378.857 352.845 381.186 357.434 381.186C362.978 381.186 367.731 377.832 369.781 373.033C371.341 374.035 373.205 374.594 375.185 374.594C378.843 374.594 382.057 372.637 383.828 369.725C384.992 372.614 387.835 374.664 391.142 374.664C395.499 374.664 399.04 371.123 399.04 366.767C399.04 366.371 399.016 365.975 398.946 365.579C398.97 365.579 398.993 365.579 399.04 365.579C402.743 365.579 405.772 362.574 405.772 358.846C405.772 355.119 402.767 352.114 399.04 352.114L399.063 352.137Z" fill="#FFDED2"/>
<g id="Iconsax/Linear/star1_6" clip-path="url(#clip5_148_207)">
<path id="Vector_14" d="M330.159 782.295L327.345 789.351C326.947 790.326 327.092 791.851 327.655 792.745L330.987 798.023C333.116 801.4 331.599 803.992 327.608 803.748L320.85 803.358C319.705 803.292 318.242 804 317.573 804.932L314.06 809.897C311.277 813.824 308.266 813.172 307.336 808.442L306.048 801.86C305.816 800.671 304.673 799.389 303.506 799.007L297.116 796.97C292.538 795.516 292.238 792.423 296.445 790.123L301.781 787.205C302.784 786.647 303.656 785.276 303.722 784.131L304.113 777.373C304.342 773.394 307.079 772.172 310.188 774.675L315.047 778.592C315.858 779.241 317.357 779.56 318.371 779.276L325.704 777.294C329.689 776.225 331.692 778.473 330.159 782.295V782.295Z" stroke="#F99893" stroke-width="4" stroke-linecap="round" stroke-linejoin="round"/>
</g>
<path id="Vector_15" d="M427.993 131.409C428.798 129.423 429.234 127.269 429.234 124.98C429.234 115.42 421.517 107.712 412.022 107.712C410.545 107.712 409.103 107.914 407.727 108.251C408.365 106.164 408.7 103.942 408.7 101.653C408.7 89.1317 398.567 79 386.119 79C376.087 79 367.565 85.5637 364.612 94.6856C361.961 91.9591 358.27 90.2425 354.177 90.2425C346.158 90.2425 339.682 96.7388 339.682 104.784C339.682 105.928 339.816 107.039 340.085 108.116C329.784 110.102 322 119.156 322 130.096C322 142.449 331.999 152.48 344.313 152.48H425.577C431.449 152.48 436.213 147.7 436.213 141.81C436.213 136.761 432.724 132.553 428.06 131.442L427.993 131.409Z" fill="white"/>
<path id="Vector_16" d="M458.164 66.8538C457.584 66.8538 457.003 66.8538 456.423 66.9066C456.423 66.7483 456.423 66.5372 456.423 66.3789C456.423 49.1246 443.598 34.8252 426.921 32.609C426.921 32.5035 426.921 32.398 426.921 32.2925C426.921 28.3878 423.754 25.2219 419.849 25.2219C418.899 25.2219 417.949 25.4329 417.104 25.7495C409.241 10.4476 393.302 0 374.936 0C353.192 0 334.879 14.616 329.285 34.5614C327.543 34.0337 325.749 33.7171 323.849 33.7171C313.663 33.7171 305.43 41.9485 305.43 52.1323C305.43 55.2454 306.222 58.1475 307.541 60.733C293.925 61.0496 283 72.1831 283 85.8494C283 99.5156 294.241 111.019 308.174 111.019H458.164C470.356 111.019 480.277 101.151 480.277 88.9098C480.277 76.6682 470.408 66.8011 458.164 66.8011V66.8538Z" fill="#FFDED2"/>
</g>
<defs>
<clipPath id="clip0_148_207">
<rect width="46.3243" height="46.3243" fill="white" transform="translate(214 98.5537) rotate(-11.9019)"/>
</clipPath>
<clipPath id="clip1_148_207">
<rect width="46.3243" height="46.3243" fill="white" transform="translate(73.6985 289.127) rotate(81.3417)"/>
</clipPath>
<clipPath id="clip2_148_207">
<rect width="46.3243" height="46.3243" fill="white" transform="translate(413.471 638.956) rotate(59.0641)"/>
</clipPath>
<clipPath id="clip3_148_207">
<rect width="31.4427" height="31.4427" fill="white" transform="translate(114.97 494) rotate(59.0641)"/>
</clipPath>
<clipPath id="clip4_148_207">
<rect width="31.4427" height="31.4427" fill="white" transform="translate(355.97 224) rotate(59.0641)"/>
</clipPath>
<clipPath id="clip5_148_207">
<rect width="46.3243" height="46.3243" fill="white" transform="translate(317.59 758) rotate(48.3044)"/>
</clipPath>
</defs>
</svg>
