<svg width="626" height="236" viewBox="0 0 626 236" fill="none" xmlns="http://www.w3.org/2000/svg">
<g id="Foules">
<g id="310276 5">
<g id="Group">
<path id="Vector" d="M53.0537 0.177353C49.7912 0.754227 46.9337 2.61798 45.1225 5.31376C43.615 7.57688 42.9962 10.0286 43.21 12.8686C43.5475 17.1508 46.54 21.1113 50.6237 22.6977C52.2325 23.3189 53.0087 23.452 55 23.4631C56.89 23.4631 57.3512 23.3966 58.825 22.9417C61.7837 22.0209 64.6187 19.5138 65.9125 16.707C67.3075 13.6784 67.3637 10.2616 66.0587 7.21079C65.2375 5.28048 63.46 3.12829 61.8062 2.0522C59.185 0.343758 55.9562 -0.344053 53.0537 0.177353Z" fill="#4A6583"/>
<path id="Vector_2" d="M40.6 26.2367C40.51 26.2589 40.0487 26.3365 39.5875 26.4031C38.395 26.5917 36.6062 27.1907 35.4137 27.8009C30.9812 30.064 28.0675 34.08 27.19 39.1609C27.0775 39.8154 27.0437 44.0976 27.0437 59.2961V78.5992L27.2912 79.3868C28.09 81.8607 30.79 83.3251 33.4337 82.715C35.245 82.2934 36.4375 81.2839 37.1237 79.5976L37.3937 78.932L37.4275 61.7034L37.45 44.4859H38.6875H39.925L39.9475 90.5471L39.9812 136.619L40.2175 137.296C40.8812 139.171 41.95 140.447 43.5362 141.212C45.6737 142.244 47.9462 142.244 50.1287 141.212C51.8387 140.402 53.155 138.772 53.6612 136.841C53.7737 136.398 53.8187 130.895 53.8412 109.418L53.875 82.5375H55.0562H56.2375V109.24C56.2375 132.315 56.26 136.065 56.4062 136.73C57.0925 139.981 60.2425 142.211 63.775 141.956C66.7 141.756 68.9162 140.125 69.8275 137.507L70.1312 136.619L70.165 90.5471L70.1875 44.4748L71.4025 44.5081L72.6062 44.5414L72.6625 61.7921C72.7075 74.0064 72.7525 79.1428 72.8425 79.3757C73.6862 81.6389 75.4525 82.8703 77.8712 82.8703C80.5037 82.8703 82.5175 81.1175 82.9 78.4882C82.99 77.8448 83.0125 72.4865 82.99 58.8523C82.9562 41.2354 82.9337 40.0373 82.7425 39.05C81.505 32.7043 77.1175 28.045 70.975 26.5362L69.7937 26.2478L55.2812 26.2256C47.305 26.2145 40.69 26.2145 40.6 26.2367Z" fill="#4A6583"/>
</g>
</g>
<g id="310276 3">
<g id="Group_2">
<path id="Vector_3" d="M103.473 43.1875C100.074 43.7969 97.0977 45.7656 95.211 48.6133C93.6407 51.0039 92.9961 53.5938 93.2188 56.5938C93.5703 61.1172 96.6875 65.3008 100.941 66.9766C102.617 67.6328 103.426 67.7734 105.5 67.7852C107.469 67.7852 107.949 67.7148 109.484 67.2344C112.566 66.2617 115.52 63.6133 116.867 60.6484C118.32 57.4492 118.379 53.8398 117.02 50.6172C116.164 48.5781 114.313 46.3047 112.59 45.168C109.859 43.3633 106.496 42.6367 103.473 43.1875Z" fill="#4A6583"/>
<path id="Vector_4" d="M90.5 70.7148C90.4062 70.7383 89.9258 70.8203 89.4453 70.8906C88.2031 71.0898 86.3398 71.7227 85.0977 72.3672C80.4805 74.7578 77.4453 79 76.5312 84.3672C76.4141 85.0586 76.3789 89.582 76.3789 105.637V126.027L76.6367 126.859C77.4688 129.473 80.2812 131.02 83.0352 130.375C84.9219 129.93 86.1641 128.863 86.8789 127.082L87.1602 126.379L87.1953 108.18L87.2188 89.9922H88.5078H89.7969L89.8203 138.648L89.8555 187.316L90.1016 188.031C90.793 190.012 91.9062 191.359 93.5586 192.168C95.7852 193.258 98.1523 193.258 100.426 192.168C102.207 191.312 103.578 189.59 104.105 187.551C104.223 187.082 104.27 181.27 104.293 158.582L104.328 130.188H105.559H106.789V158.395C106.789 182.77 106.812 186.73 106.965 187.434C107.68 190.867 110.961 193.223 114.641 192.953C117.688 192.742 119.996 191.02 120.945 188.254L121.262 187.316L121.297 138.648L121.32 89.9805L122.586 90.0156L123.84 90.0508L123.898 108.273C123.945 121.176 123.992 126.602 124.086 126.848C124.965 129.238 126.805 130.539 129.324 130.539C132.066 130.539 134.164 128.688 134.562 125.91C134.656 125.23 134.68 119.57 134.656 105.168C134.621 86.5586 134.598 85.293 134.398 84.25C133.109 77.5469 128.539 72.625 122.141 71.0312L120.91 70.7266L105.793 70.7031C97.4844 70.6914 90.5938 70.6914 90.5 70.7148Z" fill="#4A6583"/>
</g>
</g>
<g id="310276 6">
<g id="Group_3">
<path id="Vector_5" d="M310.054 0.177353C306.791 0.754227 303.934 2.61798 302.122 5.31376C300.615 7.57688 299.996 10.0286 300.21 12.8686C300.547 17.1508 303.54 21.1113 307.624 22.6977C309.232 23.3189 310.009 23.452 312 23.4631C313.89 23.4631 314.351 23.3966 315.825 22.9417C318.784 22.0209 321.619 19.5138 322.912 16.707C324.307 13.6784 324.364 10.2616 323.059 7.21079C322.237 5.28048 320.46 3.12829 318.806 2.0522C316.185 0.343758 312.956 -0.344053 310.054 0.177353Z" fill="#4A6583"/>
<path id="Vector_6" d="M297.6 26.2367C297.51 26.2589 297.049 26.3365 296.587 26.4031C295.395 26.5917 293.606 27.1907 292.414 27.8009C287.981 30.064 285.067 34.08 284.19 39.1609C284.077 39.8154 284.044 44.0976 284.044 59.2961V78.5992L284.291 79.3868C285.09 81.8607 287.79 83.3251 290.434 82.715C292.245 82.2934 293.437 81.2839 294.124 79.5976L294.394 78.932L294.427 61.7034L294.45 44.4859H295.687H296.925L296.947 90.5471L296.981 136.619L297.217 137.296C297.881 139.171 298.95 140.447 300.536 141.212C302.674 142.244 304.946 142.244 307.129 141.212C308.839 140.402 310.155 138.772 310.661 136.841C310.774 136.398 310.819 130.895 310.841 109.418L310.875 82.5375H312.056H313.237V109.24C313.237 132.315 313.26 136.065 313.406 136.73C314.092 139.981 317.242 142.211 320.775 141.956C323.7 141.756 325.916 140.125 326.827 137.507L327.131 136.619L327.165 90.5471L327.187 44.4748L328.402 44.5081L329.606 44.5414L329.662 61.7921C329.707 74.0064 329.752 79.1428 329.842 79.3757C330.686 81.6389 332.452 82.8703 334.871 82.8703C337.504 82.8703 339.517 81.1175 339.9 78.4882C339.99 77.8448 340.012 72.4865 339.99 58.8523C339.956 41.2354 339.934 40.0373 339.742 39.05C338.505 32.7043 334.117 28.045 327.975 26.5362L326.794 26.2478L312.281 26.2256C304.305 26.2145 297.69 26.2145 297.6 26.2367Z" fill="#4A6583"/>
</g>
</g>
<g id="310276 4">
<g id="Group_4">
<path id="Vector_7" d="M382.473 43.1875C379.074 43.7969 376.098 45.7656 374.211 48.6133C372.641 51.0039 371.996 53.5938 372.219 56.5938C372.57 61.1172 375.688 65.3008 379.941 66.9766C381.617 67.6328 382.426 67.7734 384.5 67.7852C386.469 67.7852 386.949 67.7148 388.484 67.2344C391.566 66.2617 394.52 63.6133 395.867 60.6484C397.32 57.4492 397.379 53.8398 396.02 50.6172C395.164 48.5781 393.313 46.3047 391.59 45.168C388.859 43.3633 385.496 42.6367 382.473 43.1875Z" fill="#4A6583"/>
<path id="Vector_8" d="M369.5 70.7148C369.406 70.7383 368.926 70.8203 368.445 70.8906C367.203 71.0898 365.34 71.7227 364.098 72.3672C359.48 74.7578 356.445 79 355.531 84.3672C355.414 85.0586 355.379 89.582 355.379 105.637V126.027L355.637 126.859C356.469 129.473 359.281 131.02 362.035 130.375C363.922 129.93 365.164 128.863 365.879 127.082L366.16 126.379L366.195 108.18L366.219 89.9922H367.508H368.797L368.82 138.648L368.855 187.316L369.102 188.031C369.793 190.012 370.906 191.359 372.559 192.168C374.785 193.258 377.152 193.258 379.426 192.168C381.207 191.312 382.578 189.59 383.105 187.551C383.223 187.082 383.27 181.27 383.293 158.582L383.328 130.188H384.559H385.789V158.395C385.789 182.77 385.812 186.73 385.965 187.434C386.68 190.867 389.961 193.223 393.641 192.953C396.688 192.742 398.996 191.02 399.945 188.254L400.262 187.316L400.297 138.648L400.32 89.9805L401.586 90.0156L402.84 90.0508L402.898 108.273C402.945 121.176 402.992 126.602 403.086 126.848C403.965 129.238 405.805 130.539 408.324 130.539C411.066 130.539 413.164 128.688 413.562 125.91C413.656 125.23 413.68 119.57 413.656 105.168C413.621 86.5586 413.598 85.293 413.398 84.25C412.109 77.5469 407.539 72.625 401.141 71.0312L399.91 70.7266L384.793 70.7031C376.484 70.6914 369.594 70.6914 369.5 70.7148Z" fill="#4A6583"/>
</g>
</g>
<g id="305092 6" clip-path="url(#clip0_55_68)">
<g id="Group_5">
<path id="Vector_9" d="M187.195 0.122066C184.723 0.465973 182.459 1.55316 180.753 3.20613C179.462 4.47082 178.642 5.69113 177.691 7.75457L177.155 8.90832L177.22 11.3046C177.286 14.0558 177.439 14.8546 178.172 16.2857C180.425 20.6899 185.708 23.2858 190.717 22.4649C193.342 22.0322 195.322 21.0671 197.105 19.3364C198.822 17.6724 200.08 15.5978 200.616 13.5344C200.966 12.2143 200.955 10.0066 200.605 8.65316C200.298 7.46613 199.456 5.71332 198.723 4.73707C197.127 2.60707 194.534 0.93191 191.855 0.321754C190.739 0.0665989 188.311 -0.0332451 187.195 0.122066Z" fill="#4A6583"/>
<path id="Vector_10" d="M199.609 26.5474C199.577 26.5696 196.678 26.6583 193.156 26.7249C176.302 27.0688 175.656 27.091 173.48 27.4682C171.795 27.7566 170.68 28.2225 169.083 29.3097C167.278 30.53 165.78 32.2496 164.992 33.9802C164.062 36.0547 162.094 42.9883 157.522 60.2391C154.427 71.8764 154.077 73.3186 154.066 74.4946C154.055 75.249 154.098 75.4597 154.35 75.9368C155.214 77.6008 157.38 78.7879 159.261 78.6215C161.109 78.455 162.159 77.2569 163.275 73.9954C163.909 72.1649 164.456 70.3233 166.906 61.9032C168.098 57.7874 169.258 53.8269 169.466 53.1058C169.684 52.3958 170.034 51.231 170.242 50.521C170.953 48.158 171.631 46.1057 171.97 45.3402C172.342 44.4971 172.561 44.3307 173.491 44.1532C174.366 43.9757 174.453 44.0422 174.453 44.8521C174.442 46.0835 174.814 44.7079 166.895 73.6625C162.892 88.2841 162.597 89.3935 161.886 92.0782C160.88 95.9277 160.453 97.6916 160.453 98.0577C160.453 98.2907 160.53 98.4349 160.683 98.5236C160.967 98.6679 165.834 98.8343 170.308 98.8454C171.97 98.8454 173.698 98.8786 174.158 98.9119L175 98.9896V105.945C175 109.773 175.033 118.825 175.077 126.081L175.142 139.26L176.192 140.125C177.406 141.157 178.194 141.578 179.342 141.845C180.797 142.166 182.317 141.933 184.023 141.113C185.336 140.48 185.861 139.77 186.156 138.228C186.233 137.829 186.309 132.238 186.375 122.42C186.484 105.18 186.55 99.8993 186.659 99.5443C186.725 99.2891 186.758 99.2891 188.628 99.2891H190.531V119.225V139.171L191.428 139.815C192.609 140.658 193.9 141.301 194.852 141.501C195.759 141.689 197.291 141.712 198.1 141.545C199.456 141.257 201.217 140.147 201.644 139.326C201.983 138.65 202.07 135.377 202.234 117.649C202.289 111.426 202.366 104.725 202.409 102.761L202.475 99.1893L202.934 99.1338C203.175 99.1005 205.209 99.0229 207.43 98.9563C214.648 98.7455 217.044 98.5791 217.284 98.2352C217.383 98.1021 217.306 97.6694 216.978 96.3715C216.212 93.3429 214.189 85.5994 212.516 79.2649C211.608 75.848 210.208 70.5563 209.398 67.5055C208.6 64.4547 207.287 59.5069 206.5 56.5227C205.023 50.9758 203.842 46.3054 203.722 45.5732C203.623 44.9852 203.831 44.8188 204.695 44.8188C205.581 44.8188 205.898 44.963 206.095 45.4733C206.38 46.2055 207.802 51.2643 210.164 59.9618C212.002 66.7179 213.927 73.5072 214.233 74.3282C214.955 76.203 216.322 77.268 218.4 77.5564C219.953 77.7783 221.528 77.3457 222.523 76.4249C223.628 75.3932 224.175 73.7513 223.912 72.2425C223.661 70.8004 221.134 61.3707 218.127 50.754C213.555 34.5571 212.789 32.5713 210.219 30.2416C208.48 28.6552 205.92 27.2685 203.886 26.8025C203.131 26.625 199.73 26.4254 199.609 26.5474Z" fill="#4A6583"/>
</g>
</g>
<g id="305092 4" clip-path="url(#clip1_55_68)">
<g id="Group_6">
<path id="Vector_11" d="M243.092 43.129C240.479 43.4923 238.086 44.6407 236.282 46.3868C234.917 47.7227 234.05 49.0118 233.044 51.1915L232.478 52.4102L232.547 54.9415C232.617 57.8477 232.778 58.6915 233.553 60.2032C235.935 64.8556 241.52 67.5977 246.815 66.7306C249.59 66.2735 251.683 65.254 253.568 63.4259C255.383 61.6681 256.713 59.4766 257.279 57.297C257.649 55.9024 257.638 53.5704 257.268 52.1407C256.944 50.8868 256.054 49.0352 255.279 48.004C253.591 45.754 250.851 43.9845 248.018 43.3399C246.838 43.0704 244.272 42.9649 243.092 43.129Z" fill="#4A6583"/>
<path id="Vector_12" d="M256.216 71.0429C256.181 71.0664 253.117 71.1601 249.394 71.2304C231.576 71.5937 230.894 71.6172 228.593 72.0156C226.812 72.3203 225.633 72.8125 223.945 73.9609C222.037 75.25 220.453 77.0664 219.62 78.8945C218.637 81.0859 216.556 88.4101 211.723 106.633C208.451 118.926 208.081 120.449 208.069 121.691C208.058 122.488 208.104 122.711 208.37 123.215C209.283 124.973 211.573 126.227 213.562 126.051C215.516 125.875 216.626 124.609 217.805 121.164C218.476 119.23 219.054 117.285 221.644 108.391C222.904 104.043 224.13 99.8594 224.349 99.0976C224.581 98.3476 224.951 97.1172 225.17 96.3672C225.922 93.8711 226.639 91.7031 226.997 90.8945C227.39 90.0039 227.622 89.8281 228.604 89.6406C229.529 89.4531 229.622 89.5234 229.622 90.3789C229.61 91.6797 230.003 90.2265 221.632 120.812C217.4 136.258 217.088 137.43 216.337 140.266C215.273 144.332 214.822 146.195 214.822 146.582C214.822 146.828 214.903 146.98 215.065 147.074C215.365 147.227 220.511 147.402 225.24 147.414C226.997 147.414 228.824 147.449 229.31 147.484L230.2 147.566V154.914C230.2 158.957 230.235 168.52 230.281 176.184L230.35 190.105L231.46 191.02C232.744 192.109 233.576 192.555 234.79 192.836C236.328 193.176 237.935 192.93 239.739 192.062C241.127 191.395 241.682 190.645 241.994 189.016C242.075 188.594 242.156 182.687 242.225 172.316C242.341 154.105 242.41 148.527 242.526 148.152C242.595 147.883 242.63 147.883 244.607 147.883H246.619V168.941V190.012L247.567 190.691C248.816 191.582 250.18 192.262 251.186 192.473C252.146 192.672 253.764 192.695 254.62 192.52C256.054 192.215 257.915 191.043 258.366 190.176C258.725 189.461 258.817 186.004 258.991 167.277C259.048 160.703 259.129 153.625 259.176 151.551L259.245 147.777L259.731 147.719C259.985 147.684 262.136 147.602 264.483 147.531C272.114 147.309 274.646 147.133 274.901 146.77C275.005 146.629 274.924 146.172 274.577 144.801C273.767 141.602 271.628 133.422 269.859 126.73C268.9 123.121 267.42 117.531 266.564 114.309C265.72 111.086 264.332 105.859 263.5 102.707C261.939 96.8476 260.69 91.914 260.563 91.1406C260.459 90.5195 260.679 90.3437 261.592 90.3437C262.529 90.3437 262.864 90.4961 263.072 91.0351C263.373 91.8086 264.876 97.1523 267.373 106.34C269.316 113.477 271.351 120.648 271.675 121.516C272.438 123.496 273.883 124.621 276.08 124.926C277.722 125.16 279.387 124.703 280.439 123.73C281.607 122.641 282.185 120.906 281.907 119.312C281.642 117.789 278.971 107.828 275.791 96.6133C270.958 79.5039 270.148 77.4062 267.431 74.9453C265.593 73.2695 262.887 71.8047 260.737 71.3125C259.939 71.125 256.343 70.914 256.216 71.0429Z" fill="#4A6583"/>
</g>
</g>
<g id="305092 7" clip-path="url(#clip2_55_68)">
<g id="Group_7">
<path id="Vector_13" d="M443.195 0.122066C440.723 0.465973 438.459 1.55316 436.753 3.20613C435.462 4.47082 434.642 5.69113 433.691 7.75457L433.155 8.90832L433.22 11.3046C433.286 14.0558 433.439 14.8546 434.172 16.2857C436.425 20.6899 441.708 23.2858 446.717 22.4649C449.342 22.0322 451.322 21.0671 453.105 19.3364C454.822 17.6724 456.08 15.5978 456.616 13.5344C456.966 12.2143 456.955 10.0066 456.605 8.65316C456.298 7.46613 455.456 5.71332 454.723 4.73707C453.127 2.60707 450.534 0.93191 447.855 0.321754C446.739 0.0665989 444.311 -0.0332451 443.195 0.122066Z" fill="#4A6583"/>
<path id="Vector_14" d="M455.609 26.5474C455.577 26.5696 452.678 26.6583 449.156 26.7249C432.302 27.0688 431.656 27.091 429.48 27.4682C427.795 27.7566 426.68 28.2225 425.083 29.3097C423.278 30.53 421.78 32.2496 420.992 33.9802C420.062 36.0547 418.094 42.9883 413.522 60.2391C410.427 71.8764 410.077 73.3186 410.066 74.4946C410.055 75.249 410.098 75.4597 410.35 75.9368C411.214 77.6008 413.38 78.7879 415.261 78.6215C417.109 78.455 418.159 77.2569 419.275 73.9954C419.909 72.1649 420.456 70.3233 422.906 61.9032C424.098 57.7874 425.258 53.8269 425.466 53.1058C425.684 52.3958 426.034 51.231 426.242 50.521C426.953 48.158 427.631 46.1057 427.97 45.3402C428.342 44.4971 428.561 44.3307 429.491 44.1532C430.366 43.9757 430.453 44.0422 430.453 44.8521C430.442 46.0835 430.814 44.7079 422.895 73.6625C418.892 88.2841 418.597 89.3935 417.886 92.0782C416.88 95.9277 416.453 97.6916 416.453 98.0577C416.453 98.2907 416.53 98.4349 416.683 98.5236C416.967 98.6679 421.834 98.8343 426.308 98.8454C427.97 98.8454 429.698 98.8786 430.158 98.9119L431 98.9896V105.945C431 109.773 431.033 118.825 431.077 126.081L431.142 139.26L432.192 140.125C433.406 141.157 434.194 141.578 435.342 141.845C436.797 142.166 438.317 141.933 440.023 141.113C441.336 140.48 441.861 139.77 442.156 138.228C442.233 137.829 442.309 132.238 442.375 122.42C442.484 105.18 442.55 99.8993 442.659 99.5443C442.725 99.2891 442.758 99.2891 444.628 99.2891H446.531V119.225V139.171L447.428 139.815C448.609 140.658 449.9 141.301 450.852 141.501C451.759 141.689 453.291 141.712 454.1 141.545C455.456 141.257 457.217 140.147 457.644 139.326C457.983 138.65 458.07 135.377 458.234 117.649C458.289 111.426 458.366 104.725 458.409 102.761L458.475 99.1893L458.934 99.1338C459.175 99.1005 461.209 99.0229 463.43 98.9563C470.648 98.7455 473.044 98.5791 473.284 98.2352C473.383 98.1021 473.306 97.6694 472.978 96.3715C472.212 93.3429 470.189 85.5994 468.516 79.2649C467.608 75.848 466.208 70.5563 465.398 67.5055C464.6 64.4547 463.287 59.5069 462.5 56.5227C461.023 50.9758 459.842 46.3054 459.722 45.5732C459.623 44.9852 459.831 44.8188 460.695 44.8188C461.581 44.8188 461.898 44.963 462.095 45.4733C462.38 46.2055 463.802 51.2643 466.164 59.9618C468.002 66.7179 469.927 73.5072 470.233 74.3282C470.955 76.203 472.322 77.268 474.4 77.5564C475.953 77.7783 477.528 77.3457 478.523 76.4249C479.628 75.3932 480.175 73.7513 479.912 72.2425C479.661 70.8004 477.134 61.3707 474.127 50.754C469.555 34.5571 468.789 32.5713 466.219 30.2416C464.48 28.6552 461.92 27.2685 459.886 26.8025C459.131 26.625 455.73 26.4254 455.609 26.5474Z" fill="#4A6583"/>
</g>
</g>
<g id="305092 5" clip-path="url(#clip3_55_68)">
<g id="Group_8">
<path id="Vector_15" d="M522.092 43.129C519.479 43.4923 517.086 44.6407 515.282 46.3868C513.917 47.7227 513.05 49.0118 512.044 51.1915L511.478 52.4102L511.547 54.9415C511.617 57.8477 511.778 58.6915 512.553 60.2032C514.935 64.8556 520.52 67.5977 525.815 66.7306C528.59 66.2735 530.683 65.254 532.568 63.4259C534.383 61.6681 535.713 59.4766 536.279 57.297C536.649 55.9024 536.638 53.5704 536.268 52.1407C535.944 50.8868 535.054 49.0352 534.279 48.004C532.591 45.754 529.851 43.9845 527.018 43.3399C525.838 43.0704 523.272 42.9649 522.092 43.129Z" fill="#4A6583"/>
<path id="Vector_16" d="M535.216 71.0429C535.181 71.0664 532.117 71.1601 528.394 71.2304C510.576 71.5937 509.894 71.6172 507.593 72.0156C505.812 72.3203 504.633 72.8125 502.945 73.9609C501.037 75.25 499.453 77.0664 498.62 78.8945C497.637 81.0859 495.556 88.4101 490.723 106.633C487.451 118.926 487.081 120.449 487.069 121.691C487.058 122.488 487.104 122.711 487.37 123.215C488.283 124.973 490.573 126.227 492.562 126.051C494.516 125.875 495.626 124.609 496.805 121.164C497.476 119.23 498.054 117.285 500.644 108.391C501.904 104.043 503.13 99.8594 503.349 99.0976C503.581 98.3476 503.951 97.1172 504.17 96.3672C504.922 93.8711 505.639 91.7031 505.997 90.8945C506.39 90.0039 506.622 89.8281 507.604 89.6406C508.529 89.4531 508.622 89.5234 508.622 90.3789C508.61 91.6797 509.003 90.2265 500.632 120.812C496.4 136.258 496.088 137.43 495.337 140.266C494.273 144.332 493.822 146.195 493.822 146.582C493.822 146.828 493.903 146.98 494.065 147.074C494.365 147.227 499.511 147.402 504.24 147.414C505.997 147.414 507.824 147.449 508.31 147.484L509.2 147.566V154.914C509.2 158.957 509.235 168.52 509.281 176.184L509.35 190.105L510.46 191.02C511.744 192.109 512.576 192.555 513.79 192.836C515.328 193.176 516.935 192.93 518.739 192.062C520.127 191.395 520.682 190.645 520.994 189.016C521.075 188.594 521.156 182.687 521.225 172.316C521.341 154.105 521.41 148.527 521.526 148.152C521.595 147.883 521.63 147.883 523.607 147.883H525.619V168.941V190.012L526.567 190.691C527.816 191.582 529.18 192.262 530.186 192.473C531.146 192.672 532.764 192.695 533.62 192.52C535.054 192.215 536.915 191.043 537.366 190.176C537.725 189.461 537.817 186.004 537.991 167.277C538.048 160.703 538.129 153.625 538.176 151.551L538.245 147.777L538.731 147.719C538.985 147.684 541.136 147.602 543.483 147.531C551.114 147.309 553.646 147.133 553.901 146.77C554.005 146.629 553.924 146.172 553.577 144.801C552.767 141.602 550.628 133.422 548.859 126.73C547.9 123.121 546.42 117.531 545.564 114.309C544.72 111.086 543.332 105.859 542.5 102.707C540.939 96.8476 539.69 91.914 539.563 91.1406C539.459 90.5195 539.679 90.3437 540.592 90.3437C541.529 90.3437 541.864 90.4961 542.072 91.0351C542.373 91.8086 543.876 97.1523 546.373 106.34C548.316 113.477 550.351 120.648 550.675 121.516C551.438 123.496 552.883 124.621 555.08 124.926C556.722 125.16 558.387 124.703 559.439 123.73C560.607 122.641 561.185 120.906 560.907 119.312C560.642 117.789 557.971 107.828 554.791 96.6133C549.958 79.5039 549.148 77.4062 546.431 74.9453C544.593 73.2695 541.887 71.8047 539.737 71.3125C538.939 71.125 535.343 70.914 535.216 71.0429Z" fill="#4A6583"/>
</g>
</g>
<g id="305092 8" clip-path="url(#clip4_55_68)">
<g id="Group_9">
<path id="Vector_17" d="M575.67 0.122066C573.162 0.465973 570.866 1.55316 569.135 3.20613C567.826 4.47082 566.994 5.69113 566.029 7.75457L565.485 8.90832L565.552 11.3046C565.619 14.0558 565.774 14.8546 566.517 16.2857C568.803 20.6899 574.161 23.2858 579.242 22.4649C581.904 22.0322 583.912 21.0671 585.72 19.3364C587.462 17.6724 588.738 15.5978 589.282 13.5344C589.637 12.2143 589.625 10.0066 589.27 8.65316C588.96 7.46613 588.106 5.71332 587.362 4.73707C585.743 2.60707 583.113 0.93191 580.395 0.321754C579.264 0.0665989 576.801 -0.0332451 575.67 0.122066Z" fill="#4A6583"/>
<path id="Vector_18" d="M588.261 26.5474C588.228 26.5696 585.288 26.6583 581.716 26.7249C564.62 27.0688 563.966 27.091 561.758 27.4682C560.05 27.7566 558.918 28.2225 557.298 29.3097C555.468 30.53 553.948 32.2496 553.149 33.9802C552.206 36.0547 550.209 42.9883 545.572 60.2391C542.433 71.8764 542.078 73.3186 542.067 74.4946C542.056 75.249 542.1 75.4597 542.355 75.9368C543.231 77.6008 545.428 78.7879 547.336 78.6215C549.211 78.455 550.276 77.2569 551.408 73.9954C552.051 72.1649 552.606 70.3233 555.091 61.9032C556.3 57.7874 557.476 53.8269 557.687 53.1058C557.908 52.3958 558.263 51.231 558.474 50.521C559.195 48.158 559.883 46.1057 560.227 45.3402C560.604 44.4971 560.826 44.3307 561.769 44.1532C562.657 43.9757 562.745 44.0422 562.745 44.8521C562.734 46.0835 563.111 44.7079 555.08 73.6625C551.019 88.2841 550.72 89.3935 549.999 92.0782C548.978 95.9277 548.545 97.6916 548.545 98.0577C548.545 98.2907 548.623 98.4349 548.778 98.5236C549.067 98.6679 554.003 98.8343 558.541 98.8454C560.227 98.8454 561.98 98.8786 562.446 98.9119L563.3 98.9896V105.945C563.3 109.773 563.333 118.825 563.378 126.081L563.444 139.26L564.509 140.125C565.741 141.157 566.539 141.578 567.704 141.845C569.18 142.166 570.722 141.933 572.452 141.113C573.784 140.48 574.316 139.77 574.616 138.228C574.693 137.829 574.771 132.238 574.838 122.42C574.948 105.18 575.015 99.8993 575.126 99.5443C575.193 99.2891 575.226 99.2891 577.123 99.2891H579.053V119.225V139.171L579.963 139.815C581.161 140.658 582.47 141.301 583.435 141.501C584.356 141.689 585.909 141.712 586.73 141.545C588.106 141.257 589.892 140.147 590.324 139.326C590.668 138.65 590.757 135.377 590.923 117.649C590.979 111.426 591.057 104.725 591.101 102.761L591.168 99.1893L591.633 99.1338C591.878 99.1005 593.941 99.0229 596.193 98.9563C603.515 98.7455 605.944 98.5791 606.188 98.2352C606.288 98.1021 606.211 97.6694 605.878 96.3715C605.101 93.3429 603.049 85.5994 601.352 79.2649C600.431 75.848 599.011 70.5563 598.19 67.5055C597.38 64.4547 596.049 59.5069 595.25 56.5227C593.752 50.9758 592.554 46.3054 592.432 45.5732C592.332 44.9852 592.543 44.8188 593.42 44.8188C594.318 44.8188 594.64 44.963 594.84 45.4733C595.128 46.2055 596.57 51.2643 598.966 59.9618C600.83 66.7179 602.783 73.5072 603.093 74.3282C603.826 76.203 605.212 77.268 607.32 77.5564C608.895 77.7783 610.493 77.3457 611.502 76.4249C612.623 75.3932 613.178 73.7513 612.911 72.2425C612.656 70.8004 610.093 61.3707 607.043 50.754C602.406 34.5571 601.629 32.5713 599.022 30.2416C597.258 28.6552 594.662 27.2685 592.599 26.8025C591.833 26.625 588.383 26.4254 588.261 26.5474Z" fill="#4A6583"/>
</g>
</g>
<g id="310276 1">
<g id="Group_10">
<path id="Vector_19" d="M35.9455 86.1875C32.5018 86.7969 29.4855 88.7656 27.5737 91.6133C25.9824 94.0039 25.3293 96.5938 25.5549 99.5938C25.9112 104.117 29.0699 108.301 33.3805 109.977C35.0787 110.633 35.898 110.773 37.9999 110.785C39.9949 110.785 40.4818 110.715 42.0374 110.234C45.1605 109.262 48.153 106.613 49.5187 103.648C50.9912 100.449 51.0505 96.8398 49.673 93.6172C48.8062 91.5781 46.9299 89.3047 45.1843 88.168C42.4174 86.3633 39.0093 85.6367 35.9455 86.1875Z" fill="#CDA7D7"/>
<path id="Vector_20" d="M22.8 113.715C22.705 113.738 22.2181 113.82 21.7312 113.891C20.4725 114.09 18.5844 114.723 17.3256 115.367C12.6469 117.758 9.57123 122 8.64498 127.367C8.52623 128.059 8.4906 132.582 8.4906 148.637V169.027L8.75185 169.859C9.59498 172.473 12.445 174.02 15.2356 173.375C17.1475 172.93 18.4062 171.863 19.1306 170.082L19.4156 169.379L19.4512 151.18L19.475 132.992H20.7812H22.0875L22.1112 181.648L22.1469 230.316L22.3962 231.031C23.0969 233.012 24.225 234.359 25.8994 235.168C28.1556 236.258 30.5544 236.258 32.8581 235.168C34.6631 234.312 36.0525 232.59 36.5869 230.551C36.7056 230.082 36.7531 224.27 36.7769 201.582L36.8125 173.188H38.0594H39.3062V201.395C39.3062 225.77 39.33 229.73 39.4844 230.434C40.2087 233.867 43.5337 236.223 47.2625 235.953C50.35 235.742 52.6894 234.02 53.6512 231.254L53.9719 230.316L54.0075 181.648L54.0312 132.98L55.3137 133.016L56.5844 133.051L56.6437 151.273C56.6912 164.176 56.7387 169.602 56.8337 169.848C57.7244 172.238 59.5887 173.539 62.1419 173.539C64.9206 173.539 67.0462 171.688 67.45 168.91C67.545 168.23 67.5687 162.57 67.545 148.168C67.5094 129.559 67.4856 128.293 67.2837 127.25C65.9775 120.547 61.3462 115.625 54.8625 114.031L53.6156 113.727L38.2969 113.703C29.8775 113.691 22.895 113.691 22.8 113.715Z" fill="#CDA7D7"/>
</g>
</g>
<g id="305092 1" clip-path="url(#clip5_55_68)">
<g id="Group_11">
<path id="Vector_21" d="M176.566 86.129C173.918 86.4923 171.492 87.6407 169.664 89.3868C168.281 90.7227 167.402 92.0118 166.383 94.1915L165.809 95.4102L165.879 97.9415C165.949 100.848 166.113 101.691 166.898 103.203C169.313 107.856 174.973 110.598 180.34 109.731C183.152 109.274 185.273 108.254 187.184 106.426C189.023 104.668 190.371 102.477 190.945 100.297C191.32 98.9024 191.309 96.5704 190.934 95.1407C190.605 93.8868 189.703 92.0352 188.918 91.004C187.207 88.754 184.43 86.9845 181.559 86.3399C180.363 86.0704 177.762 85.9649 176.566 86.129Z" fill="#8FC9FF"/>
<path id="Vector_22" d="M189.867 114.043C189.832 114.066 186.727 114.16 182.953 114.23C164.895 114.594 164.203 114.617 161.871 115.016C160.066 115.32 158.871 115.812 157.16 116.961C155.227 118.25 153.621 120.066 152.777 121.895C151.781 124.086 149.672 131.41 144.773 149.633C141.457 161.926 141.082 163.449 141.07 164.691C141.059 165.488 141.106 165.711 141.375 166.215C142.301 167.973 144.621 169.227 146.637 169.051C148.617 168.875 149.742 167.609 150.938 164.164C151.617 162.23 152.203 160.285 154.828 151.391C156.106 147.043 157.348 142.859 157.57 142.098C157.805 141.348 158.18 140.117 158.402 139.367C159.164 136.871 159.891 134.703 160.254 133.895C160.652 133.004 160.887 132.828 161.883 132.641C162.82 132.453 162.914 132.523 162.914 133.379C162.902 134.68 163.301 133.227 154.816 163.812C150.527 179.258 150.211 180.43 149.449 183.266C148.371 187.332 147.914 189.195 147.914 189.582C147.914 189.828 147.996 189.98 148.16 190.074C148.465 190.227 153.68 190.402 158.473 190.414C160.254 190.414 162.106 190.449 162.598 190.484L163.5 190.566V197.914C163.5 201.957 163.535 211.52 163.582 219.184L163.652 233.105L164.777 234.02C166.078 235.109 166.922 235.555 168.152 235.836C169.711 236.176 171.34 235.93 173.168 235.062C174.574 234.395 175.137 233.645 175.453 232.016C175.535 231.594 175.617 225.687 175.688 215.316C175.805 197.105 175.875 191.527 175.992 191.152C176.063 190.883 176.098 190.883 178.102 190.883H180.141V211.941V233.012L181.102 233.691C182.367 234.582 183.75 235.262 184.77 235.473C185.742 235.672 187.383 235.695 188.25 235.52C189.703 235.215 191.59 234.043 192.047 233.176C192.41 232.461 192.504 229.004 192.68 210.277C192.738 203.703 192.82 196.625 192.867 194.551L192.938 190.777L193.43 190.719C193.688 190.684 195.867 190.602 198.246 190.531C205.981 190.309 208.547 190.133 208.805 189.77C208.91 189.629 208.828 189.172 208.477 187.801C207.656 184.602 205.488 176.422 203.695 169.73C202.723 166.121 201.223 160.531 200.356 157.309C199.5 154.086 198.094 148.859 197.25 145.707C195.668 139.848 194.402 134.914 194.273 134.141C194.168 133.52 194.391 133.344 195.316 133.344C196.266 133.344 196.606 133.496 196.816 134.035C197.121 134.809 198.645 140.152 201.176 149.34C203.145 156.477 205.207 163.648 205.535 164.516C206.309 166.496 207.773 167.621 210 167.926C211.664 168.16 213.352 167.703 214.418 166.73C215.602 165.641 216.188 163.906 215.906 162.312C215.637 160.789 212.93 150.828 209.707 139.613C204.809 122.504 203.988 120.406 201.234 117.945C199.371 116.27 196.629 114.805 194.449 114.312C193.641 114.125 189.996 113.914 189.867 114.043Z" fill="#8FC9FF"/>
</g>
</g>
<g id="310276 2">
<g id="Group_12">
<path id="Vector_23" d="M305.946 86.1875C302.502 86.7969 299.486 88.7656 297.574 91.6133C295.982 94.0039 295.329 96.5938 295.555 99.5938C295.911 104.117 299.07 108.301 303.381 109.977C305.079 110.633 305.898 110.773 308 110.785C309.995 110.785 310.482 110.715 312.037 110.234C315.161 109.262 318.153 106.613 319.519 103.648C320.991 100.449 321.051 96.8398 319.673 93.6172C318.806 91.5781 316.93 89.3047 315.184 88.168C312.417 86.3633 309.009 85.6367 305.946 86.1875Z" fill="#8179D1"/>
<path id="Vector_24" d="M292.8 113.715C292.705 113.738 292.218 113.82 291.731 113.891C290.472 114.09 288.584 114.723 287.326 115.367C282.647 117.758 279.571 122 278.645 127.367C278.526 128.059 278.491 132.582 278.491 148.637V169.027L278.752 169.859C279.595 172.473 282.445 174.02 285.236 173.375C287.147 172.93 288.406 171.863 289.131 170.082L289.416 169.379L289.451 151.18L289.475 132.992H290.781H292.087L292.111 181.648L292.147 230.316L292.396 231.031C293.097 233.012 294.225 234.359 295.899 235.168C298.156 236.258 300.554 236.258 302.858 235.168C304.663 234.312 306.052 232.59 306.587 230.551C306.706 230.082 306.753 224.27 306.777 201.582L306.812 173.188H308.059H309.306V201.395C309.306 225.77 309.33 229.73 309.484 230.434C310.209 233.867 313.534 236.223 317.262 235.953C320.35 235.742 322.689 234.02 323.651 231.254L323.972 230.316L324.007 181.648L324.031 132.98L325.314 133.016L326.584 133.051L326.644 151.273C326.691 164.176 326.739 169.602 326.834 169.848C327.724 172.238 329.589 173.539 332.142 173.539C334.921 173.539 337.046 171.688 337.45 168.91C337.545 168.23 337.569 162.57 337.545 148.168C337.509 129.559 337.486 128.293 337.284 127.25C335.977 120.547 331.346 115.625 324.862 114.031L323.616 113.727L308.297 113.703C299.877 113.691 292.895 113.691 292.8 113.715Z" fill="#8179D1"/>
</g>
</g>
<g id="305092 2" clip-path="url(#clip6_55_68)">
<g id="Group_13">
<path id="Vector_25" d="M446.566 86.129C443.918 86.4923 441.492 87.6407 439.664 89.3868C438.281 90.7227 437.402 92.0118 436.383 94.1915L435.809 95.4102L435.879 97.9415C435.949 100.848 436.113 101.691 436.898 103.203C439.313 107.856 444.973 110.598 450.34 109.731C453.152 109.274 455.273 108.254 457.184 106.426C459.023 104.668 460.371 102.477 460.945 100.297C461.32 98.9024 461.309 96.5704 460.934 95.1407C460.605 93.8868 459.703 92.0352 458.918 91.004C457.207 88.754 454.43 86.9845 451.559 86.3399C450.363 86.0704 447.762 85.9649 446.566 86.129Z" fill="#F9B3AF"/>
<path id="Vector_26" d="M459.867 114.043C459.832 114.066 456.727 114.16 452.953 114.23C434.895 114.594 434.203 114.617 431.871 115.016C430.066 115.32 428.871 115.812 427.16 116.961C425.227 118.25 423.621 120.066 422.777 121.895C421.781 124.086 419.672 131.41 414.773 149.633C411.457 161.926 411.082 163.449 411.07 164.691C411.059 165.488 411.106 165.711 411.375 166.215C412.301 167.973 414.621 169.227 416.637 169.051C418.617 168.875 419.742 167.609 420.938 164.164C421.617 162.23 422.203 160.285 424.828 151.391C426.106 147.043 427.348 142.859 427.57 142.098C427.805 141.348 428.18 140.117 428.402 139.367C429.164 136.871 429.891 134.703 430.254 133.895C430.652 133.004 430.887 132.828 431.883 132.641C432.82 132.453 432.914 132.523 432.914 133.379C432.902 134.68 433.301 133.227 424.816 163.812C420.527 179.258 420.211 180.43 419.449 183.266C418.371 187.332 417.914 189.195 417.914 189.582C417.914 189.828 417.996 189.98 418.16 190.074C418.465 190.227 423.68 190.402 428.473 190.414C430.254 190.414 432.106 190.449 432.598 190.484L433.5 190.566V197.914C433.5 201.957 433.535 211.52 433.582 219.184L433.652 233.105L434.777 234.02C436.078 235.109 436.922 235.555 438.152 235.836C439.711 236.176 441.34 235.93 443.168 235.062C444.574 234.395 445.137 233.645 445.453 232.016C445.535 231.594 445.617 225.687 445.688 215.316C445.805 197.105 445.875 191.527 445.992 191.152C446.063 190.883 446.098 190.883 448.102 190.883H450.141V211.941V233.012L451.102 233.691C452.367 234.582 453.75 235.262 454.77 235.473C455.742 235.672 457.383 235.695 458.25 235.52C459.703 235.215 461.59 234.043 462.047 233.176C462.41 232.461 462.504 229.004 462.68 210.277C462.738 203.703 462.82 196.625 462.867 194.551L462.938 190.777L463.43 190.719C463.688 190.684 465.867 190.602 468.246 190.531C475.981 190.309 478.547 190.133 478.805 189.77C478.91 189.629 478.828 189.172 478.477 187.801C477.656 184.602 475.488 176.422 473.695 169.73C472.723 166.121 471.223 160.531 470.356 157.309C469.5 154.086 468.094 148.859 467.25 145.707C465.668 139.848 464.402 134.914 464.273 134.141C464.168 133.52 464.391 133.344 465.316 133.344C466.266 133.344 466.606 133.496 466.816 134.035C467.121 134.809 468.645 140.152 471.176 149.34C473.145 156.477 475.207 163.648 475.535 164.516C476.309 166.496 477.773 167.621 480 167.926C481.664 168.16 483.352 167.703 484.418 166.73C485.602 165.641 486.188 163.906 485.906 162.312C485.637 160.789 482.93 150.828 479.707 139.613C474.809 122.504 473.988 120.406 471.234 117.945C469.371 116.27 466.629 114.805 464.449 114.312C463.641 114.125 459.996 113.914 459.867 114.043Z" fill="#F9B3AF"/>
</g>
</g>
<g id="305092 3" clip-path="url(#clip7_55_68)">
<g id="Group_14">
<path id="Vector_27" d="M586.566 86.129C583.918 86.4923 581.492 87.6407 579.664 89.3868C578.281 90.7227 577.402 92.0118 576.383 94.1915L575.809 95.4102L575.879 97.9415C575.949 100.848 576.113 101.691 576.898 103.203C579.313 107.856 584.973 110.598 590.34 109.731C593.152 109.274 595.273 108.254 597.184 106.426C599.023 104.668 600.371 102.477 600.945 100.297C601.32 98.9024 601.309 96.5704 600.934 95.1407C600.605 93.8868 599.703 92.0352 598.918 91.004C597.207 88.754 594.43 86.9845 591.559 86.3399C590.363 86.0704 587.762 85.9649 586.566 86.129Z" fill="#FCFCEC"/>
<path id="Vector_28" d="M599.867 114.043C599.832 114.066 596.727 114.16 592.953 114.23C574.895 114.594 574.203 114.617 571.871 115.016C570.066 115.32 568.871 115.812 567.16 116.961C565.227 118.25 563.621 120.066 562.777 121.895C561.781 124.086 559.672 131.41 554.773 149.633C551.457 161.926 551.082 163.449 551.07 164.691C551.059 165.488 551.106 165.711 551.375 166.215C552.301 167.973 554.621 169.227 556.637 169.051C558.617 168.875 559.742 167.609 560.938 164.164C561.617 162.23 562.203 160.285 564.828 151.391C566.106 147.043 567.348 142.859 567.57 142.098C567.805 141.348 568.18 140.117 568.402 139.367C569.164 136.871 569.891 134.703 570.254 133.895C570.652 133.004 570.887 132.828 571.883 132.641C572.82 132.453 572.914 132.523 572.914 133.379C572.902 134.68 573.301 133.227 564.816 163.812C560.527 179.258 560.211 180.43 559.449 183.266C558.371 187.332 557.914 189.195 557.914 189.582C557.914 189.828 557.996 189.98 558.16 190.074C558.465 190.227 563.68 190.402 568.473 190.414C570.254 190.414 572.106 190.449 572.598 190.484L573.5 190.566V197.914C573.5 201.957 573.535 211.52 573.582 219.184L573.652 233.105L574.777 234.02C576.078 235.109 576.922 235.555 578.152 235.836C579.711 236.176 581.34 235.93 583.168 235.062C584.574 234.395 585.137 233.645 585.453 232.016C585.535 231.594 585.617 225.687 585.688 215.316C585.805 197.105 585.875 191.527 585.992 191.152C586.063 190.883 586.098 190.883 588.102 190.883H590.141V211.941V233.012L591.102 233.691C592.367 234.582 593.75 235.262 594.77 235.473C595.742 235.672 597.383 235.695 598.25 235.52C599.703 235.215 601.59 234.043 602.047 233.176C602.41 232.461 602.504 229.004 602.68 210.277C602.738 203.703 602.82 196.625 602.867 194.551L602.938 190.777L603.43 190.719C603.688 190.684 605.867 190.602 608.246 190.531C615.981 190.309 618.547 190.133 618.805 189.77C618.91 189.629 618.828 189.172 618.477 187.801C617.656 184.602 615.488 176.422 613.695 169.73C612.723 166.121 611.223 160.531 610.356 157.309C609.5 154.086 608.094 148.859 607.25 145.707C605.668 139.848 604.402 134.914 604.273 134.141C604.168 133.52 604.391 133.344 605.316 133.344C606.266 133.344 606.606 133.496 606.816 134.035C607.121 134.809 608.645 140.152 611.176 149.34C613.145 156.477 615.207 163.648 615.535 164.516C616.309 166.496 617.773 167.621 620 167.926C621.664 168.16 623.352 167.703 624.418 166.73C625.602 165.641 626.188 163.906 625.906 162.312C625.637 160.789 622.93 150.828 619.707 139.613C614.809 122.504 613.988 120.406 611.234 117.945C609.371 116.27 606.629 114.805 604.449 114.312C603.641 114.125 599.996 113.914 599.867 114.043Z" fill="#FCFCEC"/>
</g>
</g>
</g>
<defs>
<clipPath id="clip0_55_68">
<rect width="70" height="142" fill="white" transform="translate(154)"/>
</clipPath>
<clipPath id="clip1_55_68">
<rect width="74" height="150" fill="white" transform="translate(208 43)"/>
</clipPath>
<clipPath id="clip2_55_68">
<rect width="70" height="142" fill="white" transform="translate(410)"/>
</clipPath>
<clipPath id="clip3_55_68">
<rect width="74" height="150" fill="white" transform="translate(487 43)"/>
</clipPath>
<clipPath id="clip4_55_68">
<rect width="71" height="142" fill="white" transform="translate(542)"/>
</clipPath>
<clipPath id="clip5_55_68">
<rect width="75" height="150" fill="white" transform="translate(141 86)"/>
</clipPath>
<clipPath id="clip6_55_68">
<rect width="75" height="150" fill="white" transform="translate(411 86)"/>
</clipPath>
<clipPath id="clip7_55_68">
<rect width="75" height="150" fill="white" transform="translate(551 86)"/>
</clipPath>
</defs>
</svg>
