<svg width="1087" height="604" viewBox="0 0 1087 604" fill="none" xmlns="http://www.w3.org/2000/svg">
<g id="Stars">
<g id="Iconsax/Linear/star1" clip-path="url(#clip0_64_188)">
<path id="Vector" d="M602.859 14.0617L608.776 21.5083C609.587 22.5474 611.335 23.3398 612.657 23.2835L620.465 22.9469C625.458 22.7342 627.331 25.9947 624.582 30.1798L619.954 37.2804C619.17 38.4829 619.03 40.5129 619.626 41.8197L622.835 48.7255C625.371 54.1926 622.789 57.0584 617.072 55.1268L609.119 52.4315C607.682 51.9439 605.578 52.3875 604.437 53.4183L598.248 59.0941C593.821 63.1639 590.273 61.5653 590.391 55.5636L590.54 47.9501C590.559 46.5137 589.611 44.713 588.409 43.9291L581.308 39.3007C577.128 36.5758 577.502 32.8418 582.156 31.0211L589.435 28.1779C590.644 27.7009 591.923 26.2705 592.246 24.9922L594.654 15.7912C595.972 10.7961 599.661 10.0186 602.859 14.0617V14.0617Z" stroke="#F99893" stroke-width="4" stroke-linecap="round" stroke-linejoin="round"/>
</g>
<g id="Iconsax/Linear/star1_2" clip-path="url(#clip1_64_188)">
<path id="Vector_2" d="M907.045 450.418L903.523 459.253C903.024 460.473 903.205 462.384 903.91 463.503L908.082 470.111C910.748 474.339 908.849 477.584 903.851 477.279L895.389 476.79C893.956 476.707 892.125 477.594 891.287 478.761L886.889 484.977C883.404 489.894 879.634 489.077 878.47 483.156L876.857 474.915C876.567 473.427 875.136 471.821 873.674 471.343L865.674 468.792C859.942 466.972 859.567 463.099 864.834 460.22L871.515 456.566C872.771 455.868 873.863 454.151 873.945 452.718L874.434 444.256C874.721 439.275 878.148 437.744 882.041 440.878L888.125 445.783C889.139 446.594 891.016 446.994 892.286 446.639L901.467 444.157C906.457 442.819 908.965 445.634 907.045 450.418V450.418Z" stroke="#F99893" stroke-width="4" stroke-linecap="round" stroke-linejoin="round"/>
</g>
<g id="Iconsax/Linear/star1_3" clip-path="url(#clip2_64_188)">
<path id="Vector_3" d="M54.857 275.988L47.0876 281.474C46.0042 282.225 45.1142 283.926 45.0956 285.248L44.9899 293.063C44.9198 298.06 41.5585 299.745 37.5356 296.764L30.7083 291.742C29.5521 290.891 27.5332 290.636 26.1948 291.158L19.1185 293.971C13.5167 296.193 10.8016 293.453 13.0536 287.854L16.1945 280.067C16.7626 278.66 16.4388 276.534 15.4742 275.336L10.1577 268.837C6.34491 264.186 8.14163 260.735 14.127 261.192L21.72 261.772C23.153 261.871 25.0045 261.027 25.8551 259.871L30.8779 253.043C33.8348 249.024 37.5417 249.609 39.0962 254.359L41.523 261.787C41.9308 263.021 43.2866 264.379 44.5446 264.774L53.5946 267.698C58.5071 269.297 59.0746 273.024 54.857 275.988V275.988Z" stroke="#F99893" stroke-width="4" stroke-linecap="round" stroke-linejoin="round"/>
</g>
<g id="Iconsax/Linear/star1_4" clip-path="url(#clip3_64_188)">
<path id="Vector_4" d="M1066.78 190.074L1061.67 198.095C1060.96 199.201 1060.78 201.112 1061.26 202.343L1064.13 209.614C1065.96 214.265 1063.48 217.099 1058.63 215.865L1050.41 213.806C1049.02 213.457 1047.05 213.987 1046.01 214.977L1040.53 220.262C1036.19 224.442 1032.64 222.936 1032.6 216.901L1032.55 208.505C1032.55 206.988 1031.44 205.143 1030.09 204.4L1022.71 200.401C1017.42 197.543 1017.77 193.668 1023.48 191.822L1030.73 189.48C1032.09 189.029 1033.49 187.546 1033.84 186.154L1035.9 177.932C1037.11 173.092 1040.76 172.227 1044 176.033L1049.06 181.987C1049.91 182.974 1051.68 183.717 1052.99 183.606L1062.47 182.881C1067.62 182.498 1069.56 185.732 1066.78 190.074V190.074Z" stroke="#F99893" stroke-width="4" stroke-linecap="round" stroke-linejoin="round"/>
</g>
<g id="Iconsax/Linear/star1_5" clip-path="url(#clip4_64_188)">
<path id="Vector_5" d="M494.407 571.856L490.938 577.301C490.451 578.052 490.33 579.348 490.658 580.184L492.603 585.119C493.844 588.276 492.167 590.199 488.873 589.362L483.293 587.964C482.347 587.728 481.014 588.087 480.307 588.759L476.587 592.347C473.64 595.184 471.23 594.161 471.204 590.066L471.173 584.366C471.167 583.337 470.417 582.084 469.503 581.58L464.491 578.866C460.9 576.926 461.14 574.296 465.017 573.043L469.935 571.453C470.861 571.147 471.807 570.14 472.044 569.195L473.442 563.615C474.265 560.33 476.743 559.743 478.942 562.326L482.378 566.368C482.951 567.037 484.152 567.542 485.044 567.466L491.48 566.974C494.977 566.714 496.293 568.909 494.407 571.856V571.856Z" stroke="#F99893" stroke-width="4" stroke-linecap="round" stroke-linejoin="round"/>
</g>
</g>
<defs>
<clipPath id="clip0_64_188">
<rect width="58" height="58" fill="white" transform="translate(568.643 12.6045) rotate(-11.9019)"/>
</clipPath>
<clipPath id="clip1_64_188">
<rect width="58" height="58" fill="white" transform="translate(891.308 420) rotate(48.3044)"/>
</clipPath>
<clipPath id="clip2_64_188">
<rect width="58" height="58" fill="white" transform="translate(58.2477 241.909) rotate(81.3417)"/>
</clipPath>
<clipPath id="clip3_64_188">
<rect width="58" height="58" fill="white" transform="translate(1057 157.252) rotate(59.0641)"/>
</clipPath>
<clipPath id="clip4_64_188">
<rect width="39.3676" height="39.3676" fill="white" transform="translate(487.767 549.579) rotate(59.0641)"/>
</clipPath>
</defs>
</svg>
