<svg width="1004" height="833" viewBox="0 0 1004 833" fill="none" xmlns="http://www.w3.org/2000/svg">
<path d="M823.956 506.294C823.956 683.96 679.924 828 502.263 828C324.601 828 180.535 683.982 180.535 506.294C180.535 328.606 324.574 184.588 502.263 184.588C679.952 184.588 823.956 328.65 823.956 506.294Z" fill="#355575"/>
<path d="M796.896 377.906C797.012 377.906 797.129 377.906 797.246 377.906C794.079 370.631 790.652 363.506 786.966 356.532C785.81 356.87 784.916 357.237 784.788 357.604C784.432 358.676 782.999 359.749 782.999 359.749C782.999 359.749 780.526 360.81 780.154 361.882C779.781 362.955 778.026 362.949 778.026 362.949L775.531 363.305L779.798 370.783L780.893 373.656L783.382 377.151C783.382 377.151 783.382 376.373 785.883 377.151C788.383 377.929 791.934 377.151 791.934 377.151L793.351 377.495C793.351 377.495 794.079 377.062 795.496 377.495C796.912 377.929 792.978 377.545 796.896 377.906Z" fill="#82628A" stroke="#CDA7D7" stroke-width="5.33333" stroke-miterlimit="10"/>
<path d="M410.762 258.608L411.262 258.836C413.422 257.181 410.762 258.608 410.762 258.608Z" fill="#D9E7E2"/>
<path d="M503.713 589.449C504.068 588.015 491.966 574.13 491.966 574.13L482.359 571.641L461.694 565.229L453.503 561.34L444.241 564.89C444.241 564.89 439.24 567.385 435.7 567.035C432.161 566.685 426.437 562.762 426.437 561.69C426.437 560.618 426.076 558.845 427.148 557.773C428.221 556.7 431.427 551.366 432.149 550.294C432.872 549.222 433.211 548.516 433.211 545.666C433.211 542.815 435.344 537.47 431.794 534.981C428.243 532.492 407.211 526.091 407.211 526.091C407.211 526.091 402.938 519.329 401.51 518.257C400.082 517.184 386.908 512.562 386.908 512.562C386.908 512.562 383.707 509.711 382.635 509.006C381.562 508.3 371.238 503.655 371.238 503.655L354.14 502.233C354.14 502.233 355.924 498.588 351.295 498.271C346.667 497.954 342.755 502.588 342.755 502.588C342.755 502.588 342.755 506.478 340.966 508.289C339.176 510.1 333.131 504.016 333.131 504.016C333.131 504.016 333.486 501.527 331.353 503.655C329.219 505.783 325.296 505.083 324.235 507.578C323.891 508.326 323.397 508.996 322.784 509.546C322.172 510.096 321.453 510.516 320.673 510.778C320.673 510.778 313.899 505.083 312.477 505.439L303.931 507.578C303.931 507.578 304.286 508.645 302.147 508.289C300.008 507.933 290.034 498.288 290.034 498.288C290.034 498.288 289.689 495.51 290.034 494.398C290.378 493.287 289.884 483.347 289.884 483.347L286.844 478.346C286.844 478.346 281.843 477.274 280.782 478.346C279.721 479.419 268.669 475.146 269.752 473.346C270.836 471.546 272.947 471.568 274.003 468.006C275.059 464.445 275.114 455.182 275.114 455.182L277.965 451.621C277.965 451.621 271.047 448.415 269.702 451.621C268.357 454.827 263.034 458.388 262.634 459.811C262.334 461.011 249.637 462.722 245.675 463.228C245.87 462.772 245.675 461.733 244.486 459.461C241.63 454.116 238.08 442.72 238.08 441.681C238.08 440.642 233.079 437.047 238.08 431.357C243.08 425.668 242.703 423.868 243.414 422.801C244.125 421.734 251.249 417.8 253.382 417.106C255.516 416.411 256.955 413.544 260.873 413.544C264.79 413.544 267.641 413.9 268.696 413.544C269.752 413.189 270.841 414.616 272.975 413.544C275.109 412.472 273.686 412.122 278.32 410.338C282.955 408.555 285.083 408.555 287.928 410.338C290.773 412.122 300.041 411.055 300.041 411.055C300.041 411.055 301.114 406.421 302.886 412.833C304.659 419.245 305.02 418.178 306.103 421.723C307.187 425.268 313.21 429.202 313.21 429.202C313.21 429.202 313.927 435.613 315.344 426.712C316.761 417.811 316.783 417.822 316.783 415.667C316.783 413.511 316.783 405.343 317.845 404.276C318.906 403.21 330.669 388.958 330.669 388.958C330.669 388.958 338.159 382.19 340.638 378.995C343.116 375.801 345.983 371.156 345.983 371.156C345.983 371.156 350.245 363.321 351.323 362.266C352.401 361.21 355.952 360.132 360.214 358.704C364.476 357.276 368.754 356.565 371.243 353.704C373.733 350.842 374.1 348.003 376.95 346.58C379.801 345.158 379.078 343.38 384.068 340.18C389.058 336.979 390.836 337.679 396.17 335.896L401.516 334.123C402.527 336.122 403.133 338.301 403.299 340.535C403.661 344.425 400.443 344.802 403.661 344.425C406.878 344.047 409.006 343.713 412.201 341.219C415.396 338.724 413.629 340.157 415.413 338.729C417.197 337.302 417.541 329.573 417.541 329.573C417.541 329.573 420.392 326.267 416.83 323.772C413.268 321.277 413.629 320.566 410.779 321.277C407.928 321.989 401.516 323.244 401.516 321.016C401.516 318.788 412.201 312.732 412.201 312.732C415.762 312.939 419.331 312.939 422.892 312.732C428.238 312.371 437.845 311.665 439.99 308.842C442.135 306.02 455.654 302.075 455.654 302.075C455.654 302.075 458.154 295.307 455.304 293.185C452.453 291.063 448.541 292.468 446.413 286.773C444.285 281.078 438.59 269.332 437.862 268.26C437.134 267.187 429.671 264.698 428.61 264.698H423.981L411.295 258.87C410.612 259.392 409.473 260.214 407.595 261.492C399.76 266.837 399.043 265.771 397.593 267.904C396.143 270.038 392.592 272.905 390.114 276.45C387.635 279.995 388.341 280.339 385.841 283.934C383.34 287.529 383.34 289.268 379.434 292.118C375.528 294.969 363.403 306.009 363.403 306.009C363.403 306.009 357.708 306.726 357.352 300.669C356.996 294.613 355.218 289.985 355.218 288.562C355.218 287.14 349.162 283.562 349.162 283.562C349.162 283.562 337.765 283.923 337.048 281.422C336.331 278.922 334.903 277.144 334.903 274.661C334.903 272.177 333.848 267.537 335.62 265.037C337.393 262.537 337.42 258.186 340.621 258.047C343.822 257.909 344.538 256.497 349.884 255.786C355.229 255.075 360.219 254.714 363.059 252.936C365.898 251.158 367.332 248.307 371.249 247.596C375.166 246.885 376.583 247.235 380.873 245.813C385.163 244.39 389.064 242.607 390.842 242.607C392.62 242.607 396.176 240.884 397.96 240.856C399.743 240.829 401.521 237.267 401.521 237.267L405.094 226.588C405.094 226.588 402.594 227.294 394.759 230.144C386.924 232.994 387.98 240.806 381.929 234.75C375.878 228.694 369.749 221.932 369.793 221.576C369.838 221.221 365.904 220.86 364.12 224.066C362.336 227.271 359.847 228.344 357.002 231.55C354.157 234.756 354.857 235.817 348.811 235.817C345.166 235.817 336.615 235.039 330.38 234.428C261.245 278.228 209.974 347.614 189.904 429.313C191.148 431.446 192.276 433.258 192.827 434.174C193.888 435.958 204.94 449.843 204.94 449.843C204.94 449.843 198.867 458.033 204.223 460.533C209.58 463.033 208.491 461.244 215.97 466.584C223.449 471.923 228.794 474.063 228.794 474.063C228.794 474.063 218.098 471.923 234.84 476.918C251.582 481.914 253.36 482.958 254.077 481.919C254.794 480.88 255.144 475.507 256.933 480.491C258.722 485.475 255.861 484.769 262.612 489.042C269.363 493.315 277.581 500.082 279.715 501.51C281.849 502.938 285.061 505.4 285.061 505.4C285.061 505.4 295.751 513.367 296.813 513.834C297.874 514.301 311.06 518.218 311.06 518.218C311.06 518.218 318.178 515.012 319.606 518.574C321.034 522.135 321.74 523.919 321.023 526.413C320.306 528.908 313.549 541.371 313.549 541.371L308.548 550.989L302.13 558.823V568.074C302.13 568.074 302.13 568.796 303.559 570.574C304.987 572.352 302.13 583.031 302.13 583.031L307.832 590.516C307.832 590.516 309.604 596.922 311.038 599.406C312.471 601.889 315.3 607.951 316.383 609.735C317.32 611.133 318.392 612.436 319.584 613.624C319.584 613.624 323.851 617.891 325.279 621.458C326.707 625.025 329.908 626.803 331.336 628.931C332.764 631.059 330.269 629.287 332.758 631.076C335.248 632.865 334.175 631.782 338.115 633.915C342.055 636.049 334.887 628.581 342.005 636.066L349.128 643.533C349.128 643.533 350.901 643.178 353.757 652.423C356.613 661.669 358.035 664.247 358.035 664.247V684.549C358.035 684.549 359.452 690.6 358.035 693.439C356.619 696.278 356.246 708.035 356.618 711.219C356.991 714.403 357.874 714.781 358.663 720.109C359.452 725.438 360.175 730.077 360.536 735.055C360.897 740.034 360.536 740.756 360.536 744.679C360.536 748.601 358.002 757.858 360.686 763.57C363.37 769.282 358.736 763.57 367.287 772.46C375.839 781.35 377.984 779.944 377.984 784.217C377.984 788.49 377.267 790.273 380.829 797.746C382.301 800.836 381.345 802.825 380.629 804.103C382.473 804.853 384.329 805.57 386.185 806.286H386.874C400.06 806.286 400.766 803.797 400.766 803.797C400.766 803.797 401.477 800.236 402.549 798.796C403.622 797.357 406.111 790.601 406.111 788.795C406.111 786.989 403.622 778.116 403.622 778.116L400.06 770.993C400.06 770.993 397.56 767.065 400.06 763.153C402.56 759.242 406.111 751.396 406.111 751.396C406.111 751.396 403.611 747.84 406.111 746.773C408.612 745.707 410.74 744.634 411.812 743.562C412.885 742.49 415.374 738.934 415.374 737.872C415.374 736.811 417.502 731.455 415.374 728.61C413.246 725.765 411.445 725.043 413.59 723.61C415.735 722.176 422.136 717.559 422.136 717.559C422.136 717.559 424.281 718.631 426.026 717.92C427.771 717.209 432.088 710.436 433.861 708.297C435.633 706.157 437.75 702.246 438.506 701.179C439.262 700.112 441.701 693.345 442.396 688.711C443.09 684.077 443.463 683.016 445.596 682.305C447.73 681.593 448.452 680.521 450.225 679.449C451.998 678.376 452.359 678.743 455.932 675.176C459.505 671.609 455.565 671.287 461.983 669.842C468.401 668.397 469.818 667.703 470.873 667.347C471.929 666.992 474.763 665.214 476.569 663.458C478.375 661.702 479.425 658.824 481.914 656.335C484.404 653.846 485.832 649.923 485.832 648.856C485.832 647.789 483.342 645.656 485.832 641.733C488.321 637.81 485.47 639.955 490.46 631.404C495.45 622.853 497.228 614.313 499.001 612.891C500.773 611.468 503.635 596.155 503.635 596.155C503.635 596.155 503.363 590.871 503.713 589.449Z" fill="#8FC9FF" stroke="#CDA7D7" stroke-width="5.33333" stroke-miterlimit="10"/>
<path d="M343.527 229.877C345.127 227.805 347.8 224.593 347.8 224.593C348.163 224.26 348.488 223.888 348.767 223.482C345.955 225.016 343.21 226.66 340.432 228.272C341.471 229.588 342.36 231.416 343.527 229.877Z" fill="#E3CFC6"/>
<path d="M364.359 216.326C364.359 216.326 363.025 217.926 364.359 217.926C365.692 217.926 364.092 217.126 365.698 217.926C366.2 218.156 366.746 218.275 367.298 218.275C367.851 218.275 368.397 218.156 368.899 217.926L370.499 218.281L371.838 216.459H374.244L376.111 214.648V210.981C375.614 210.925 375.113 210.925 374.616 210.981C370.638 212.697 366.687 214.448 362.803 216.326H364.359Z" fill="#E3CFC6" stroke="#CDA7D7" stroke-width="5.33333" stroke-miterlimit="10"/>
<path d="M392.142 210.714H383.312L381.195 214.492L381.99 216.587L382.796 216.326C383.59 216.053 384.396 216.326 385.457 215.214C386.518 214.103 386.53 214.481 386.53 214.481C386.53 214.481 389.736 213.109 390.541 212.592C391.347 212.075 392.67 212.592 392.67 212.592C392.67 212.592 393.748 212.592 394.537 212.592C395.326 212.592 394.537 210.703 394.537 210.703H392.142V210.714Z" fill="#FCFCEC" stroke="#CDA7D7" stroke-width="5.33333" stroke-miterlimit="10"/>
<path d="M403.527 205.902C404.575 206.121 405.657 206.121 406.706 205.902C407.47 206.517 408.431 206.835 409.412 206.797H415.107C415.107 206.797 417.597 206.241 418.324 206.797C419.052 207.352 420.469 206.241 421.169 206.797C421.87 207.352 422.77 206.208 423.487 206.952C424.203 207.697 426.332 207.68 426.332 207.68H429.721C430.431 207.772 431.15 207.772 431.86 207.68C432.416 207.508 432.922 208.38 433.455 207.763C433.989 207.147 435.411 205.374 435.411 205.374C435.411 205.374 436.3 204.485 434.711 204.041C433.122 203.596 434.711 204.13 431.321 204.041C427.932 203.952 426.687 204.041 426.687 204.041C426.687 204.041 425.62 203.596 425.087 204.041C424.553 204.485 424.376 203.774 422.414 204.041C420.75 204.184 419.077 204.184 417.413 204.041H415.824L414.051 203.235C413.972 203.117 413.863 203.022 413.735 202.959C413.608 202.897 413.465 202.869 413.324 202.88C412.768 202.88 412.079 201.985 412.079 201.985L411.907 201.279L410.656 200.557C409.601 200.557 407.639 199.49 407.089 200.557C406.578 201.438 405.918 202.224 405.139 202.88C404.583 203.435 404.066 203.591 403.722 204.119C403.377 204.646 403.883 204.835 403.722 205.374C403.561 205.913 401.766 205.547 403.527 205.902Z" fill="#FCFCEC" stroke="#CDA7D7" stroke-width="5.33333" stroke-miterlimit="10"/>
<path d="M460.66 242.629C460.964 242.074 461.153 241.464 461.216 240.834C461.349 239.956 462.016 239.423 460.555 238.612C459.42 238.075 458.382 237.354 457.482 236.478C456.32 235.315 455.248 234.065 454.276 232.739C454.053 232.097 453.963 231.416 454.009 230.739V227.927C454.009 227.26 454.804 226.321 452.931 225.793C451.059 225.266 447.591 224.054 447.591 224.054L444.391 220.576C444.391 220.576 443.835 220.021 443.19 219.248C442.546 218.476 443.19 217.509 441.451 217.509C439.712 217.509 440.518 216.842 438.245 217.509C436.764 217.927 435.242 218.183 433.705 218.27L431.433 217.376C430.473 216.836 429.594 216.165 428.821 215.381C427.71 214.17 426.882 212.57 425.559 212.836C424.237 213.103 422.748 213.909 422.225 213.642C421.703 213.375 420.92 214.264 419.236 214.481C417.783 214.605 416.322 214.605 414.868 214.481L413.14 213.642L411.668 211.77L409.123 210.703H407.667C407.667 210.703 406.183 210.703 405.528 211.642C404.932 212.377 404.259 213.048 403.522 213.642C403.058 213.894 402.611 214.174 402.183 214.481C401.516 214.975 400.849 215.109 400.316 215.776C399.782 216.442 399.104 215.637 398.854 216.576C398.604 217.515 397.782 218.315 397.382 218.848C396.982 219.382 396.437 219.248 396.309 219.776C396.107 220.279 396.107 220.84 396.309 221.343C396.576 221.899 396.865 221.899 397.504 222.593C397.946 223.011 398.441 223.367 398.977 223.654H401.91C402.757 223.724 403.608 223.724 404.455 223.654C405.122 223.6 405.793 223.621 406.456 223.715H407.667C407.667 223.715 405.789 222.704 408.856 223.715C411.923 224.727 412.601 224.727 412.601 224.727C412.601 224.727 411.807 225.127 413.535 224.727C414.428 224.555 415.288 224.24 416.08 223.793C416.668 223.453 417.295 223.184 417.947 222.993C418.352 222.993 419.547 222.721 420.342 222.721C420.968 222.657 421.599 222.657 422.225 222.721C422.892 222.854 424.092 222.993 424.631 223.393C425.17 223.793 426.359 224.282 427.015 224.904C427.671 225.527 428.227 225.527 428.771 226.055C429.316 226.582 428.632 225.655 429.327 226.61C430.021 227.566 430.271 227.81 431.194 229.016C432.116 230.222 431.749 229.816 432.794 231.15C433.839 232.483 434.894 232.622 435.711 233.422C436.145 233.861 436.65 234.222 437.206 234.489C438.141 234.578 439.027 234.95 439.745 235.556C440.69 236.495 440.301 234.756 440.69 236.495C441.079 238.234 441.485 236.623 441.079 238.228C440.673 239.834 442.279 239.295 439.884 240.223C437.489 241.151 438.373 240.512 435.711 240.84C433.05 241.168 427.988 239.979 427.043 240.84C426.098 241.701 425.054 241.562 424.381 243.173C423.709 244.785 422.781 243.968 423.715 245.951C424.648 247.935 423.853 246.618 424.659 247.952C425.465 249.285 425.72 248.507 426.654 250.758C427.587 253.008 426.098 251.963 428.254 254.23C430.41 256.497 432.794 257.564 434.272 258.37C435.75 259.175 439.884 259.436 439.884 259.436L441.251 258.636C441.251 258.636 443.018 258.77 441.251 257.308C440.046 256.281 438.917 255.166 437.873 253.975L438.278 252.775C438.278 252.775 438.684 251.836 439.351 251.836C440.018 251.836 443.074 253.175 443.074 253.175L443.891 253.441C444.285 253.569 443.752 253.708 445.224 253.569C446.697 253.43 447.347 253.308 447.625 252.908C447.902 252.508 448.697 251.836 448.569 250.769C448.389 249.809 448.115 248.869 447.752 247.963C447.556 247.31 447.42 246.64 447.347 245.963C447.347 245.557 447.219 243.696 447.219 243.284C447.219 242.873 446.98 242.484 448.58 241.962C449.385 241.653 450.232 241.465 451.092 241.406C451.745 241.659 452.373 241.976 452.964 242.351C453.787 242.84 454.634 243.285 455.504 243.685C455.504 243.685 455.771 243.946 456.843 243.818C457.525 243.761 458.198 243.625 458.849 243.412C459.721 243.168 460.277 243.568 460.66 242.629Z" fill="#FCFCEC" stroke="#CDA7D7" stroke-width="5.33333" stroke-miterlimit="10"/>
<path d="M441.862 192.728C441.198 193.419 440.398 193.963 439.512 194.329C439.512 194.329 438.628 195.04 438.084 194.329C437.539 193.617 435.656 192.912 435.656 192.912L437.017 196.29C437.017 196.29 436.083 195.04 435.656 196.29C435.228 197.54 435.067 197.534 434.544 197.534C434.022 197.534 433.477 196.468 431.883 197.534C430.55 198.341 428.978 198.655 427.437 198.423C427.021 198.296 426.632 198.757 425.926 198.74C425.645 198.724 425.37 198.648 425.12 198.518C423.876 197.896 423.159 198.518 423.337 198.74C423.515 198.962 427.437 200.324 427.965 200.085C428.493 199.846 431.171 200.085 431.171 200.085L433.489 199.318C433.571 199.224 433.673 199.148 433.787 199.096C433.901 199.044 434.025 199.018 434.15 199.018C434.275 199.018 434.399 199.044 434.513 199.096C434.627 199.148 434.729 199.224 434.811 199.318C435.445 200.035 437.934 200.085 437.934 200.085C438.536 200.308 439.085 200.654 439.545 201.102C440.618 201.985 442.751 201.985 442.751 201.985C443.259 201.645 443.794 201.35 444.352 201.102C444.907 200.924 446.485 201.04 446.313 200.085C446.141 199.129 447.386 198.418 447.902 198.246C448.419 198.073 449.514 197.007 450.586 196.829C451.659 196.651 452.014 196.273 453.603 195.756C455.193 195.24 456.282 195.106 456.821 194.717C457.36 194.329 458.955 193.262 459.671 193.262C460.388 193.262 462.872 192.012 463.4 192.012C463.928 192.012 466.434 190.411 467.495 190.411C468.556 190.411 471.423 189.856 471.94 189.856C472.457 189.856 473.541 188.961 474.785 188.961C476.03 188.961 474.085 188.406 477.102 188.25C480.12 188.094 486.182 186.644 486.182 186.644C486.182 186.644 487.971 185.755 488.499 185.583C488.688 185.516 489.21 185.227 489.816 184.894C479.814 185.283 469.968 186.139 460.233 187.405C458.793 189.106 458.566 190.139 458.043 189.834C457.521 189.528 452.892 190.389 452.364 190.561C451.899 190.688 451.419 190.751 450.936 190.75L449.858 190.561C449.858 190.561 449.675 190.006 448.619 189.834L447.547 189.678C447.547 189.678 447.386 189.55 447.152 189.389C445.485 189.678 443.818 189.945 442.118 190.284C442.496 191.589 443.051 191.567 441.862 192.728Z" fill="#FCFCEC" stroke="#CDA7D7" stroke-width="5.33333" stroke-miterlimit="10"/>
<path d="M326.174 450.56C324.824 448.954 324.824 449.754 322.957 448.159C321.09 446.565 320.284 447.087 319.223 445.748C318.161 444.409 314.416 445.748 314.416 445.748C314.416 445.748 311.732 444.414 310.938 444.414C310.143 444.414 303.458 443.081 302.664 443.081C301.869 443.081 297.33 445.748 297.33 445.748L295.451 446.554V447.882L298.391 448.687H301.858L303.725 448.132L306.676 447.854C306.676 447.854 328.835 458.538 329.641 457.744C330.447 456.949 332.575 457.744 332.575 457.744V455.599L331.769 455.338C330.975 455.071 329.374 454.543 327.496 452.138C327.095 451.579 326.653 451.052 326.174 450.56Z" fill="#8FC9FF" stroke="#CDA7D7" stroke-width="5.33333" stroke-miterlimit="10"/>
<path d="M341.116 464.717L338.982 464.978L334.448 466.317L336.309 466.173C338.176 466.028 339.515 466.317 341.116 466.173C342.716 466.028 342.733 464.978 343.527 465.75C344.322 466.523 346.478 466.05 348.606 465.75C349.773 465.589 350.128 465.539 350.217 465.517C350.306 465.495 353.434 466.034 354.74 465.517C356.046 465 354.74 465.517 356.613 464.45C358.485 463.383 358.497 464.189 361.964 462.856C365.431 461.522 361.964 462.856 361.686 460.972C361.408 459.088 361.686 460.972 360.097 460.416C358.508 459.861 357.413 459.627 356.074 459.088C354.735 458.55 353.946 459.088 351.534 458.016C349.123 456.944 350.195 457.794 350.195 457.794C350.195 457.794 348.067 458.288 347.006 457.794C345.944 457.299 343.527 457.794 343.527 457.794V459.627L344.322 461.889L342.999 463.633L341.116 464.717Z" fill="#8FC9FF" stroke="#CDA7D7" stroke-width="5.33333" stroke-miterlimit="10"/>
<path d="M481.359 192.012C479.225 190.95 475.48 195.756 475.48 195.756V200.085H478.68C478.68 200.085 492.572 197.896 495.784 198.974C498.995 200.051 495.784 198.974 496.311 201.996C496.749 204.085 497.467 206.105 498.445 208.002L506.463 210.725L511.548 214.47C511.548 214.47 512.103 214.192 512.342 215.798C512.581 217.404 513.137 217.137 512.342 218.743C511.764 219.795 510.943 220.694 509.947 221.365V223.815C509.947 223.815 511.548 223.26 510.475 225.949C509.403 228.638 508.597 229.416 507.803 229.95C507.008 230.483 505.924 230.505 505.658 231.561C505.391 232.617 503.724 235.095 503.724 235.095C503.724 235.095 500.99 236.361 501.857 237.167C502.724 237.973 501.857 240.845 501.857 240.845C501.857 240.845 499.518 242.779 497.912 243.301C496.306 243.823 495.245 249.719 494.711 251.852C494.178 253.986 496.311 259.464 496.311 259.464C496.311 259.464 498.445 262.542 501.868 263.07C505.291 263.598 518.76 263.07 519.288 259.464C519.816 255.858 527.312 255.575 527.312 255.575L531.057 251.302C534.791 247.029 533.718 249.169 536.93 244.357C540.142 239.545 540.136 244.357 540.136 244.357C540.136 244.357 549.749 243.829 555.623 240.829C561.496 237.828 558.101 240.829 558.101 240.829C558.101 240.829 563.102 237.412 565.774 235.078C565.774 235.078 578.049 232.072 582.333 230.45C586.617 228.827 585.006 231.005 586.595 230.45C588.184 229.894 590.346 230.45 590.346 230.45C592.112 229.896 593.75 228.995 595.163 227.799C597.819 225.66 593.558 225.132 593.558 225.132C593.558 225.132 591.946 221.926 592.485 221.348C593.024 220.771 595.691 218.276 595.691 218.276V215.22L598.364 213.648C598.364 213.648 600.498 211.242 609.577 207.986C616.49 205.497 615.384 206.197 616.084 205.385C581.02 192.149 543.907 185.163 506.43 184.744C503.691 185.761 504.702 190.667 503.724 192.039C502.613 193.651 494.711 193.834 494.711 193.834C494.711 193.834 483.487 193.078 481.359 192.012Z" fill="#FCFCEC" stroke="#CDA7D7" stroke-width="5.33333" stroke-miterlimit="10"/>
<path d="M636.977 291.024C638.766 288.873 636.977 291.024 636.977 288.746H635.204C634.375 288.625 633.533 288.625 632.704 288.746C631.644 288.915 630.563 288.915 629.503 288.746C628.828 288.719 628.164 288.558 627.552 288.271C626.939 287.985 626.39 287.58 625.936 287.079C624.524 285.656 623.091 287.079 623.091 287.079L617.39 291.007H612.055L610.266 294.563H612.055L614.9 294.919L617.745 296.335H628.786L630.203 293.846H631.976C631.976 293.846 635.215 293.152 636.977 291.024Z" fill="#82628A" stroke="#CDA7D7" stroke-width="5.33333" stroke-miterlimit="10"/>
<path d="M652.663 308.476C652.663 309.537 647.662 312.032 647.662 312.032H652.663L655.864 310.609C658.009 310.609 663.343 309.537 663.343 309.537H668.344L670.478 308.476V304.547L672.967 302.769L670.833 300.991L665.832 296.352L665.127 293.968L663.343 289.951L661.915 286.468H659.07C658.659 285.794 658.413 285.032 658.353 284.245V278.905L656.225 277.483C656.225 277.483 654.791 273.916 654.091 277.483C653.391 281.05 653.73 278.905 653.374 281.039C653.019 283.173 653.374 281.756 653.019 283.178L652.663 284.601V286.462L656.225 288.162L657.653 289.946V296.346H655.152V297.78H652.663V303.831H655.152L657.653 305.259L655.152 308.47C655.152 308.47 652.663 307.398 652.663 308.476Z" fill="#82628A" stroke="#CDA7D7" stroke-width="5.33333" stroke-miterlimit="10"/>
<path d="M697.705 252.913C695.838 253.469 695.31 252.113 694.249 254.514C693.187 256.914 689.431 256.386 689.965 259.059C690.498 261.731 689.965 259.409 690.52 263.237C691.076 267.065 690.798 267.332 691.87 268.938C692.943 270.543 693.193 271.61 693.999 272.949C694.804 274.288 696.677 274.544 696.677 274.544C696.677 274.544 697.999 275.099 701.211 274.283C704.423 273.466 708.435 271.877 710.029 271.877C711.624 271.877 711.896 271.877 713.23 274.01C714.564 276.144 713.786 275.077 714.847 278.55C715.908 282.023 714.847 283.095 716.436 284.695C718.025 286.295 719.904 287.434 721.509 286.468C723.115 285.501 725.127 284.162 726.66 283.628C727.983 283.167 729.944 280.328 730.461 279.556C720.911 269.979 710.769 261.012 700.094 252.708C699.292 252.634 698.483 252.704 697.705 252.913Z" fill="#82628A" stroke="#CDA7D7" stroke-width="5.33333" stroke-miterlimit="10"/>
<path d="M807.203 403.837C806.559 404.236 805.841 404.499 805.092 404.61H801.88C800.819 404.61 795.112 406.043 794.056 404.61C793 403.176 782.654 399.609 782.654 399.609C780.515 401.037 773.391 401.037 773.391 401.037C771.448 400.602 769.545 400.005 767.701 399.253L762.35 396.403L753.087 395.697C752.238 396.824 751.745 398.178 751.671 399.587C751.671 401.726 753.804 403.348 751.671 405.21C749.537 407.071 748.109 407.782 747.036 407.782C745.964 407.782 744.908 408.143 743.83 407.782C742.752 407.421 734.94 405.649 732.622 405.104C730.305 404.56 726.632 401.904 726.632 401.904V399.231L720.142 396.559C720.142 396.559 718.009 396.003 716.408 395.497C714.808 394.992 710.002 391.758 710.002 391.758L709.446 385.88V382.674L707.846 378.94C707.846 378.94 707.846 375.201 706.245 375.201C704.645 375.201 697.694 377.334 697.694 377.334L693.421 377.89H688.097C688.097 377.89 690.77 377.334 685.425 377.334H669.394C665.66 381.073 657.653 386.413 657.653 386.413C657.653 386.413 647.857 385.857 647.651 385.341C647.445 384.824 640.666 383.746 640.666 383.746C640.666 383.746 639.794 386.952 637.766 388.547L635.721 390.152L629.32 396.025L624.002 399.765C623.969 402.971 625.669 406.493 624.002 407.938C622.335 409.382 618.634 413.122 618.634 413.122H615.951C615.951 413.122 613.817 415.789 612.756 417.394C611.981 418.508 611.146 419.578 610.255 420.6C609.045 421.402 608.065 422.505 607.41 423.801C606.349 425.946 603.665 428.079 603.665 428.079L598.331 436.625C598.331 436.625 601.003 435.558 598.331 439.297C595.658 443.037 593.524 444.109 592.452 447.309C591.379 450.51 591.896 445.176 591.379 450.515C590.862 455.855 589.245 456.388 591.379 458.522C593.513 460.655 593.524 460.127 593.524 463.333C593.524 466.539 594.08 466.539 592.968 469.751C591.857 472.962 591.857 470.807 590.29 476.152C589.151 479.806 589.151 483.721 590.29 487.375C590.846 488.975 586.551 483.636 590.846 488.975C595.141 494.315 596.736 495.643 598.864 498.188C600.992 500.732 597.792 491.642 601.009 500.727C604.226 509.811 603.143 508.156 605.815 513.79C608.488 519.424 607.232 519.424 610.261 523.157C613.289 526.891 612.233 526.369 615.956 529.041C619.679 531.714 610.077 529.597 619.701 531.708C629.325 533.82 627.18 534.914 633.593 531.708C640.005 528.502 635.193 529.041 639.999 528.502C644.806 527.963 650.151 527.947 650.151 527.947C651.116 528.566 652.22 528.933 653.363 529.014C654.969 529.014 663.521 526.341 663.521 526.341C663.521 526.341 661.904 524.741 666.177 523.13C670.45 521.518 667.249 522.057 670.455 521.535L673.667 520.979C673.667 520.979 675.801 519.913 679.007 521.535C682.213 523.157 684.88 524.741 687.025 526.874C689.17 529.008 685.414 524.741 689.153 529.014C691.525 531.611 694.747 533.276 698.238 533.709C698.238 533.709 699.311 531.453 700.911 533.709C702.511 535.965 703.039 535.42 704.117 538.626C705.195 541.832 704.673 537.02 705.184 541.826C705.695 546.632 702.5 543.438 703.573 549.844C704.645 556.25 703.017 550.916 704.645 556.256C706.273 561.595 703.573 557.323 707.318 564.268C711.063 571.213 705.045 568.002 711.246 574.419C711.246 574.419 717.114 580.47 717.114 582.248C717.114 584.026 716.753 581.898 717.47 585.815C718.186 589.732 718.887 590.443 719.959 592.577C721.031 594.711 721.387 597.916 722.093 599.7C722.798 601.484 722.448 603.267 723.16 606.467C723.871 609.668 723.521 611.818 722.804 613.591C722.087 615.363 721.387 615.73 720.315 618.936C719.242 622.142 717.47 620.358 716.425 626.048C715.38 631.737 714.291 631.748 715.364 636.049C716.436 640.349 716.069 642.455 717.142 645.661C718.214 648.867 718.914 649.551 721.415 653.49C723.915 657.429 725.471 661.685 726.649 664.525C727.827 667.364 727.116 665.597 728.533 670.942C729.95 676.287 729.594 673.426 731.028 680.204C732.461 686.983 732.095 688.744 734.601 694.445C737.107 700.146 739.218 702.64 740.291 703.335C741.363 704.029 741.363 701.551 743.491 707.224C745.619 712.897 742.202 710.558 745.508 716.598C794.356 660.185 823.973 586.676 823.973 506.2C823.965 471.396 818.301 436.824 807.203 403.837Z" fill="#82628A" stroke="#CDA7D7" stroke-width="5.33333" stroke-miterlimit="10"/>
<path d="M743.663 293.785C743.405 293.897 743.128 293.96 742.847 293.968C740.713 293.779 739.113 294.152 738.312 293.968C737.512 293.785 732.7 294.424 731.906 293.968C731.111 293.513 726.96 294.58 726.632 295.38C726.305 296.18 723.082 296.808 722.287 296.352C721.493 295.896 717.214 293.968 717.214 293.968H712.135C712.135 293.968 709.196 294.685 708.401 293.968C707.607 293.252 706.534 294.424 705.729 293.968C704.923 293.513 702.261 295.741 701.983 296.352C701.706 296.963 701.717 295.741 699.85 296.352C697.983 296.963 698.249 295.207 696.377 296.352C694.504 297.497 692.898 296.985 692.359 298.052C691.82 299.119 689.964 299.658 689.698 300.458C689.431 301.258 690.226 300.458 688.097 302.592C685.969 304.725 683.819 305.531 683.013 306.07C682.36 306.6 681.643 307.046 680.879 307.398C679.312 308.191 677.798 309.083 676.345 310.07C674.739 311.137 672.595 311.937 670.728 313.271C668.86 314.604 668.066 315.677 666.188 316.749C664.397 317.815 662.39 318.464 660.314 318.649C658.607 318.782 656.912 319.05 655.247 319.449C654.452 319.716 650.974 319.716 650.974 320.788C650.974 321.861 652.046 323.455 653.38 323.989C654.713 324.522 657.658 325.328 658.453 325.856C659.248 326.383 657.658 324.522 659.259 326.411C660.859 328.3 659.814 329.356 660.314 330.69C660.815 332.023 659.525 330.417 660.314 333.356C661.103 336.296 660.314 337.363 660.314 339.235V341.107C660.314 343.774 662.181 342.441 660.314 343.774C658.447 345.108 658.453 345.113 657.114 345.113C655.775 345.113 652.669 343.774 652.669 343.774C651.06 343.151 649.276 343.151 647.668 343.774C645.178 344.841 642.978 343.185 640.683 343.302C638.388 343.419 640.905 343.419 638.41 343.419C635.915 343.419 635.21 343.419 634.137 344.136C633.252 344.777 632.419 345.489 631.648 346.264V349.458C631.648 349.458 631.992 347.664 634.137 349.458C636.282 351.253 640.683 351.253 640.683 351.253L642.144 353.031C642.254 353.738 642.254 354.458 642.144 355.165C641.961 356.237 640.683 358.371 640.683 358.371C640.683 358.371 641.917 359.443 640.683 361.221C639.449 362.999 640.683 365.855 640.683 365.855C639.882 366.862 638.898 367.708 637.782 368.35C636.271 369.055 635.56 370.128 635.56 371.194C635.56 372.261 637.782 376.195 637.782 376.195H647.668C647.668 376.195 650.868 377.262 652.669 376.195C654.469 375.128 660.314 371.922 660.314 371.922C661.06 370.788 661.716 369.597 662.276 368.361C662.637 367.294 664.421 363.727 664.421 363.727L665.838 359.988L670.472 355.893L672.961 353.403L675.106 349.47V348.053L681.152 343.308H683.652C683.652 343.308 684.725 341.396 686.492 343.308L688.286 345.214L695.404 344.852L698.599 342.452L702.489 340.23L704.99 342.363L708.19 345.564C708.941 345.984 709.658 346.461 710.335 346.992C711.757 348.053 713.18 348.381 714.958 349.47C716.191 350.238 717.38 351.075 718.52 351.975L724.221 355.865C725.064 355.902 725.885 356.146 726.61 356.576C727.508 357.146 728.376 357.761 729.211 358.421V360.849C729.899 361.337 730.5 361.938 730.989 362.627C731.7 363.699 730.272 363.699 730.989 365.121L731.7 366.549C731.7 366.549 729.916 370.439 731.7 370.439H733.473V358.393C733.473 358.393 735.262 357.021 736.679 358.393L738.118 359.76L740.969 360.115C740.969 360.115 741.669 358.393 739.179 358.393C736.69 358.393 730.289 354.77 730.289 354.77L724.954 351.209L722.81 349.414L719.603 344.413L717.12 340.146H714.63L716.047 335.512C716.047 335.512 718.892 335.862 719.937 335.512C720.981 335.162 722.437 338.718 722.437 338.718L729.561 342.28C731.652 343.221 733.79 344.052 735.968 344.769L741.046 346.908C741.046 346.908 737.935 346.191 741.046 347.969L744.158 349.758C744.158 349.758 745.586 349.403 747.003 352.959C748.42 356.515 745.586 357.96 747.003 359.015L748.42 360.088C748.42 360.088 748.42 363.644 750.204 363.644H754.832C754.832 363.644 756.983 367.211 757.338 368.277C757.694 369.344 760.533 368.983 757.694 369.344C754.854 369.705 755.555 366.494 754.832 369.694C754.11 372.895 755.21 376.584 755.21 376.584H756.999C756.999 376.584 759.489 377.767 760.889 376.584C762.289 375.401 763.395 372.9 763.395 372.9C763.395 372.9 764.101 370.411 763.395 369.344C762.689 368.277 760.533 365.455 760.533 365.455C760.533 365.455 759.116 364.021 759.828 362.243C760.539 360.465 763.034 355.02 765.523 356.326C768.012 357.632 771.569 355.037 773.002 356.326C774.436 357.615 776.214 357.609 777.275 357.993C778.337 358.376 782.276 356.326 782.276 356.326C782.276 356.326 783.704 354.409 782.276 353.342C780.848 352.275 779.787 350.464 779.787 349.408C779.787 348.547 780.259 345.802 780.432 344.813C769.869 326.646 757.555 309.555 743.663 293.785Z" fill="#82628A" stroke="#CDA7D7" stroke-width="5.33333" stroke-miterlimit="10"/>
<path d="M698.788 351.731C698.06 349.392 695.193 350.136 693.71 348.803L692.637 347.197C692.637 348.369 690.609 351.392 690.031 353.02C689.225 355.242 689.187 356.826 689.164 359.221C689.131 361.899 687.142 373.222 692.382 368.772C696.271 365.438 692.059 360.865 695.632 357.415C697.144 355.948 699.594 354.376 698.788 351.731Z" fill="#82628A" stroke="#CDA7D7" stroke-width="5.33333" stroke-miterlimit="10"/>
<path d="M451.709 316.755C450.786 314.627 450.981 311.915 450.875 309.565C450.369 309.42 450.264 309.743 449.836 310.07V310.343C446.73 313.382 445.507 316.766 441.573 318.827C439.423 319.938 433.072 323.116 438.062 324.228C440.584 324.783 443.096 323.283 445.563 323.411C447.513 323.516 448.48 324.811 450.158 325.3C454.092 326.456 458.088 323.711 457.56 319.744C455.015 319.566 452.57 318.716 451.709 316.755Z" fill="#2E4964" stroke="#CDA7D7" stroke-width="5.33333" stroke-miterlimit="10"/>
<path d="M823.956 506.294C823.956 683.96 679.924 828 502.263 828C324.601 828 180.535 683.983 180.535 506.294C180.535 328.606 324.574 184.588 502.263 184.588C679.952 184.588 823.956 328.65 823.956 506.294Z" stroke="#CDA7D7" stroke-width="9.33332" stroke-linecap="round" stroke-linejoin="round"/>
<path d="M162.636 400.354L80.9653 388.363" stroke="#CDA7D7" stroke-width="9.33332" stroke-miterlimit="10" stroke-linecap="round"/>
<path d="M181.112 350.247L50.5262 278.761" stroke="#CDA7D7" stroke-width="9.33332" stroke-miterlimit="10" stroke-linecap="round"/>
<path d="M235.983 265.882L167.026 220.51" stroke="#CDA7D7" stroke-width="9.33332" stroke-miterlimit="10" stroke-linecap="round"/>
<path d="M273.896 228.283L185.763 108.307" stroke="#CDA7D7" stroke-width="9.33332" stroke-miterlimit="10" stroke-linecap="round"/>
<path d="M359.284 175.01L315.971 104.745" stroke="#CDA7D7" stroke-width="9.33332" stroke-miterlimit="10" stroke-linecap="round"/>
<path d="M409.544 156.952L380.372 10.9785" stroke="#CDA7D7" stroke-width="9.33332" stroke-miterlimit="10" stroke-linecap="round"/>
<path d="M509.446 144.756L499.888 62.7737" stroke="#CDA7D7" stroke-width="9.33332" stroke-miterlimit="10" stroke-linecap="round"/>
<path d="M562.622 149.629L597.885 5" stroke="#CDA7D7" stroke-width="9.33332" stroke-miterlimit="10" stroke-linecap="round"/>
<path d="M658.324 180.794L684.307 102.451" stroke="#CDA7D7" stroke-width="9.33332" stroke-miterlimit="10" stroke-linecap="round"/>
<path d="M704.46 207.686L797.539 91.505" stroke="#CDA7D7" stroke-width="9.33332" stroke-miterlimit="10" stroke-linecap="round"/>
<path d="M778.019 276.366L834.685 216.348" stroke="#CDA7D7" stroke-width="9.33332" stroke-miterlimit="10" stroke-linecap="round"/>
<path d="M808.469 320.238L941.933 254.28" stroke="#CDA7D7" stroke-width="9.33332" stroke-miterlimit="10" stroke-linecap="round"/>
<path d="M843 405L923 383" stroke="#CDA7D7" stroke-width="9.33332" stroke-miterlimit="10" stroke-linecap="round"/>
</svg>
